<svg width="443" height="103" viewBox="0 0 443 103" fill="none" xmlns="http://www.w3.org/2000/svg">
<path d="M115.183 80.807C115.073 80.807 114.995 80.7446 114.949 80.6354L112.187 74.9258H112H108.615C108.537 74.9258 108.506 74.957 108.506 75.035V80.6198C108.506 80.7446 108.443 80.807 108.303 80.807H107.57C107.445 80.807 107.367 80.7446 107.367 80.6198V67.8278C107.367 67.703 107.429 67.6406 107.554 67.6406H111.985C113.233 67.6406 114.231 67.9682 114.933 68.6078C115.651 69.2474 115.994 70.1522 115.994 71.2754C115.994 72.1958 115.76 72.9446 115.292 73.553C114.824 74.1614 114.153 74.5514 113.311 74.7698L116.181 80.6042C116.212 80.6666 116.228 80.7134 116.212 80.7602C116.197 80.7914 116.15 80.8226 116.087 80.8226H115.183V80.807ZM111.985 73.865C112.921 73.865 113.638 73.6466 114.153 73.1942C114.652 72.7418 114.902 72.1022 114.902 71.2598C114.902 70.433 114.652 69.7934 114.153 69.341C113.654 68.8886 112.936 68.6702 111.985 68.6702H108.631C108.553 68.6702 108.521 68.7014 108.521 68.7794V73.7402C108.521 73.8182 108.553 73.8494 108.631 73.8494H111.985V73.865Z" fill="#88774F"/>
<path d="M123.45 80.9939C122.358 80.9939 121.469 80.7443 120.752 80.2451C120.034 79.7459 119.519 79.0127 119.192 78.0299C119.129 77.8583 119.067 77.6711 119.02 77.4527C118.973 77.2343 118.942 76.9847 118.911 76.7039C118.88 76.4075 118.848 76.0643 118.833 75.6743C118.817 75.2687 118.802 74.7851 118.802 74.2235C118.802 73.6619 118.817 73.1783 118.833 72.7727C118.848 72.3671 118.88 72.0239 118.911 71.7431C118.942 71.4467 118.989 71.1971 119.02 70.9943C119.067 70.7915 119.114 70.5887 119.192 70.4171C119.519 69.4499 120.034 68.7167 120.752 68.2019C121.469 67.7027 122.374 67.4531 123.45 67.4531C124.527 67.4531 125.416 67.7027 126.134 68.2019C126.851 68.7011 127.366 69.4343 127.694 70.4171C127.74 70.6043 127.803 70.7915 127.85 70.9943C127.896 71.1971 127.943 71.4467 127.974 71.7431C128.006 72.0395 128.037 72.3827 128.052 72.7727C128.084 73.1627 128.084 73.6463 128.084 74.2079C128.084 74.7695 128.068 75.2687 128.052 75.6587C128.037 76.0643 128.006 76.4075 127.974 76.6883C127.943 76.9847 127.896 77.2343 127.85 77.4371C127.803 77.6555 127.74 77.8427 127.694 78.0143C127.366 78.9815 126.851 79.7147 126.134 80.2295C125.416 80.7443 124.527 80.9939 123.45 80.9939ZM126.96 74.2079C126.96 73.6775 126.945 73.2251 126.929 72.8351C126.914 72.4451 126.882 72.1175 126.867 71.8523C126.836 71.5871 126.804 71.3531 126.758 71.1815C126.711 70.9943 126.664 70.8383 126.633 70.7135C126.149 69.2315 125.088 68.4827 123.45 68.4827C121.812 68.4827 120.752 69.2315 120.252 70.7135C120.221 70.8383 120.174 70.9943 120.128 71.1815C120.081 71.3687 120.05 71.5871 120.018 71.8523C119.987 72.1175 119.972 72.4451 119.956 72.8351C119.94 73.2251 119.925 73.6775 119.925 74.2079C119.925 74.7383 119.94 75.1907 119.956 75.5807C119.972 75.9707 120.003 76.2983 120.018 76.5635C120.05 76.8287 120.081 77.0627 120.128 77.2343C120.174 77.4215 120.221 77.5775 120.252 77.7023C120.736 79.1843 121.812 79.9331 123.45 79.9331C125.073 79.9331 126.134 79.1843 126.633 77.7023C126.664 77.5775 126.711 77.4215 126.758 77.2343C126.804 77.0471 126.836 76.8287 126.867 76.5635C126.898 76.2983 126.914 75.9707 126.929 75.5807C126.945 75.1907 126.96 74.7383 126.96 74.2079Z" fill="#88774F"/>
<path d="M133.855 80.807C133.73 80.807 133.652 80.7446 133.652 80.6198V75.3938L129.705 67.8434C129.674 67.7966 129.69 67.7498 129.721 67.703C129.752 67.6562 129.799 67.6406 129.861 67.6406H130.61C130.735 67.6406 130.828 67.703 130.906 67.8278L134.229 74.1302H134.292L137.552 67.8278C137.614 67.703 137.708 67.6406 137.848 67.6406H138.582C138.66 67.6406 138.706 67.6562 138.738 67.703C138.769 67.7498 138.769 67.7966 138.738 67.8434L134.791 75.3938V80.6042C134.791 80.729 134.728 80.7914 134.588 80.7914H133.855V80.807Z" fill="#88774F"/>
<path d="M143.34 67.8122C143.371 67.6874 143.449 67.625 143.574 67.625H144.276C144.385 67.625 144.463 67.6874 144.51 67.8122L149.081 80.6042C149.112 80.729 149.081 80.7914 148.94 80.7914H148.191C148.051 80.7914 147.957 80.729 147.942 80.6042L146.772 77.375H141.031L139.861 80.6042C139.814 80.729 139.721 80.7914 139.611 80.7914H138.863C138.738 80.7914 138.691 80.729 138.722 80.6042L143.34 67.8122ZM146.397 76.283L143.933 69.4034H143.87L141.39 76.283H146.397Z" fill="#88774F"/>
<path d="M151.764 67.8122C151.764 67.6874 151.826 67.625 151.966 67.625H152.7C152.824 67.625 152.902 67.6874 152.902 67.8122V79.637C152.902 79.715 152.934 79.7462 153.012 79.7462H159.517C159.642 79.7462 159.704 79.8086 159.704 79.9334V80.5886C159.704 80.7134 159.642 80.7758 159.517 80.7758H151.966C151.842 80.7758 151.764 80.7134 151.764 80.5886V67.8122Z" fill="#88774F"/>
<path d="M167.24 78.0455C167.193 77.8739 167.146 77.6867 167.099 77.4995C167.052 77.2967 167.021 77.0471 166.99 76.7507C166.959 76.4543 166.943 76.0955 166.928 75.6899C166.912 75.2843 166.896 74.7851 166.896 74.2079C166.896 73.6307 166.912 73.1315 166.928 72.7259C166.943 72.3203 166.974 71.9615 166.99 71.6651C167.021 71.3687 167.052 71.1191 167.099 70.9163C167.146 70.7135 167.193 70.5263 167.24 70.3703C167.583 69.3719 168.098 68.6387 168.784 68.1551C169.486 67.6715 170.36 67.4219 171.405 67.4219C172.31 67.4219 173.105 67.6247 173.792 68.0303C174.478 68.4359 175.009 69.0443 175.383 69.8555C175.43 69.9647 175.414 70.0583 175.32 70.1051L174.681 70.4171C174.572 70.4795 174.494 70.4483 174.431 70.3391C174.135 69.7775 173.745 69.3095 173.261 68.9663C172.778 68.6231 172.154 68.4515 171.405 68.4515C170.594 68.4515 169.938 68.6387 169.439 68.9975C168.94 69.3719 168.566 69.9179 168.3 70.6355C168.269 70.7603 168.222 70.9163 168.191 71.1035C168.16 71.2907 168.113 71.5091 168.098 71.7743C168.082 72.0395 168.051 72.3671 168.035 72.7571C168.02 73.1471 168.02 73.6151 168.02 74.1767C168.02 74.7383 168.02 75.2063 168.035 75.5963C168.051 75.9863 168.066 76.3139 168.098 76.5791C168.129 76.8443 168.16 77.0783 168.191 77.2499C168.222 77.4371 168.269 77.5931 168.3 77.7179C168.566 78.4355 168.94 78.9815 169.439 79.3559C169.938 79.7303 170.594 79.9019 171.405 79.9019C172.154 79.9019 172.778 79.7303 173.261 79.3871C173.745 79.0439 174.135 78.5915 174.431 78.0143C174.494 77.9051 174.572 77.8739 174.681 77.9363L175.32 78.2483C175.414 78.2951 175.43 78.3887 175.383 78.4979C175.009 79.3091 174.478 79.9175 173.792 80.3231C173.105 80.7287 172.31 80.9315 171.405 80.9315C170.36 80.9315 169.486 80.6819 168.784 80.1983C168.098 79.7771 167.583 79.0439 167.24 78.0455Z" fill="#88774F"/>
<path d="M182.449 80.9939C181.357 80.9939 180.468 80.7443 179.751 80.2451C179.033 79.7459 178.518 79.0127 178.191 78.0299C178.128 77.8583 178.066 77.6711 178.019 77.4527C177.972 77.2343 177.941 76.9847 177.91 76.7039C177.879 76.4075 177.847 76.0643 177.832 75.6743C177.816 75.2687 177.801 74.7851 177.801 74.2235C177.801 73.6619 177.816 73.1783 177.832 72.7727C177.847 72.3671 177.879 72.0239 177.91 71.7431C177.941 71.4467 177.988 71.1971 178.019 70.9943C178.066 70.7915 178.113 70.5887 178.191 70.4171C178.518 69.4499 179.033 68.7167 179.751 68.2019C180.468 67.7027 181.373 67.4531 182.449 67.4531C183.526 67.4531 184.415 67.7027 185.133 68.2019C185.85 68.7011 186.365 69.4343 186.693 70.4171C186.739 70.6043 186.802 70.7915 186.849 70.9943C186.895 71.1971 186.942 71.4467 186.973 71.7431C187.005 72.0395 187.036 72.3827 187.051 72.7727C187.067 73.1783 187.083 73.6619 187.083 74.2235C187.083 74.7851 187.067 75.2843 187.051 75.6743C187.036 76.0799 187.005 76.4231 186.973 76.7039C186.942 77.0003 186.895 77.2499 186.849 77.4527C186.802 77.6555 186.739 77.8583 186.693 78.0299C186.365 78.9971 185.85 79.7303 185.133 80.2451C184.415 80.7443 183.526 80.9939 182.449 80.9939ZM185.959 74.2079C185.959 73.6775 185.944 73.2251 185.928 72.8351C185.913 72.4451 185.881 72.1175 185.866 71.8523C185.835 71.5871 185.803 71.3531 185.757 71.1815C185.71 70.9943 185.663 70.8383 185.632 70.7135C185.148 69.2315 184.087 68.4827 182.449 68.4827C180.811 68.4827 179.751 69.2315 179.251 70.7135C179.22 70.8383 179.173 70.9943 179.127 71.1815C179.08 71.3687 179.049 71.5871 179.017 71.8523C178.986 72.1175 178.971 72.4451 178.955 72.8351C178.939 73.2251 178.924 73.6775 178.924 74.2079C178.924 74.7383 178.939 75.1907 178.955 75.5807C178.971 75.9707 179.002 76.2983 179.017 76.5635C179.049 76.8287 179.08 77.0627 179.127 77.2343C179.173 77.4215 179.22 77.5775 179.251 77.7023C179.735 79.1843 180.811 79.9331 182.449 79.9331C184.072 79.9331 185.133 79.1843 185.632 77.7023C185.663 77.5775 185.71 77.4215 185.757 77.2343C185.803 77.0471 185.835 76.8287 185.866 76.5635C185.897 76.2983 185.913 75.9707 185.928 75.5807C185.944 75.2063 185.959 74.7383 185.959 74.2079Z" fill="#88774F"/>
<path d="M190.265 67.8122C190.265 67.6874 190.328 67.625 190.468 67.625H191.217C191.357 67.625 191.467 67.6874 191.513 67.8122L195.788 77.2502H195.866L200.047 67.8122C200.093 67.6874 200.187 67.625 200.327 67.625H201.092C201.217 67.625 201.295 67.6874 201.295 67.8122V80.6042C201.295 80.729 201.232 80.7914 201.092 80.7914H200.359C200.234 80.7914 200.156 80.729 200.156 80.6042V70.2926H200.093L196.303 78.6386C196.271 78.7166 196.225 78.7634 196.178 78.8102C196.131 78.8414 196.053 78.857 195.959 78.857H195.569C195.413 78.857 195.304 78.779 195.242 78.6386L191.451 70.2926H191.389V80.6042C191.389 80.729 191.326 80.7914 191.186 80.7914H190.453C190.328 80.7914 190.25 80.729 190.25 80.6042V67.8122H190.265Z" fill="#88774F"/>
<path d="M204.867 67.8122C204.867 67.6874 204.93 67.625 205.07 67.625H205.819C205.959 67.625 206.069 67.6874 206.115 67.8122L210.39 77.2502H210.468L214.649 67.8122C214.695 67.6874 214.789 67.625 214.929 67.625H215.694C215.819 67.625 215.897 67.6874 215.897 67.8122V80.6042C215.897 80.729 215.834 80.7914 215.694 80.7914H214.961C214.836 80.7914 214.758 80.729 214.758 80.6042V70.2926H214.695L210.905 78.6386C210.873 78.7166 210.827 78.7634 210.78 78.8102C210.733 78.8414 210.655 78.857 210.561 78.857H210.171C210.015 78.857 209.906 78.779 209.844 78.6386L206.053 70.2926H205.991V80.6042C205.991 80.729 205.928 80.7914 205.788 80.7914H205.055C204.93 80.7914 204.852 80.729 204.852 80.6042V67.8122H204.867Z" fill="#88774F"/>
<path d="M219.451 67.8122C219.451 67.6874 219.514 67.625 219.654 67.625H220.387C220.512 67.625 220.59 67.6874 220.59 67.8122V80.6042C220.59 80.729 220.528 80.7914 220.387 80.7914H219.654C219.529 80.7914 219.451 80.729 219.451 80.6042V67.8122Z" fill="#88774F"/>
<path d="M228.002 80.9939C227.58 80.9939 227.144 80.9471 226.722 80.8691C226.301 80.7911 225.896 80.6663 225.506 80.5259C225.131 80.3855 224.772 80.2139 224.46 80.0267C224.148 79.8395 223.868 79.6523 223.634 79.4495C223.524 79.3559 223.524 79.2623 223.618 79.1843L224.086 78.6071C224.18 78.4979 224.273 78.4979 224.351 78.5915C224.788 78.9347 225.334 79.2311 225.989 79.5275C226.644 79.8083 227.362 79.9487 228.126 79.9487C229.187 79.9487 230.014 79.6991 230.622 79.2155C231.231 78.7319 231.527 78.0767 231.527 77.2655C231.527 76.9379 231.48 76.6415 231.371 76.3607C231.262 76.0799 231.09 75.8303 230.856 75.6119C230.622 75.3935 230.295 75.2063 229.889 75.0503C229.484 74.8943 228.969 74.7851 228.376 74.7071L227.768 74.6291C226.473 74.4575 225.521 74.0831 224.897 73.4903C224.273 72.8975 223.961 72.1175 223.961 71.1503C223.961 69.9959 224.336 69.0911 225.084 68.4359C225.833 67.7807 226.847 67.4531 228.111 67.4531C228.844 67.4531 229.546 67.5467 230.201 67.7495C230.856 67.9523 231.418 68.2175 231.87 68.5607C231.98 68.6231 231.995 68.7167 231.902 68.8259L231.512 69.4187C231.434 69.5123 231.34 69.5279 231.246 69.4499C230.716 69.1223 230.201 68.8883 229.686 68.7167C229.172 68.5607 228.626 68.4671 228.064 68.4671C227.128 68.4671 226.395 68.7011 225.864 69.1691C225.35 69.6371 225.084 70.2611 225.084 71.0411C225.084 71.7119 225.318 72.2579 225.786 72.6947C226.254 73.1159 227.05 73.4123 228.173 73.5527L228.766 73.6307C230.108 73.8179 231.09 74.2079 231.699 74.8007C232.307 75.4091 232.619 76.1891 232.619 77.1719C232.619 77.7335 232.526 78.2327 232.323 78.7007C232.12 79.1687 231.824 79.5743 231.434 79.9175C231.044 80.2607 230.56 80.5259 229.983 80.7131C229.406 80.9003 228.766 80.9939 228.002 80.9939Z" fill="#88774F"/>
<path d="M239.607 80.9939C239.186 80.9939 238.749 80.9471 238.328 80.8691C237.907 80.7911 237.501 80.6663 237.111 80.5259C236.737 80.3855 236.378 80.2139 236.066 80.0267C235.754 79.8395 235.473 79.6523 235.239 79.4495C235.13 79.3559 235.13 79.2623 235.224 79.1843L235.692 78.6071C235.785 78.4979 235.879 78.4979 235.957 78.5915C236.394 78.9347 236.94 79.2311 237.595 79.5275C238.25 79.8083 238.968 79.9487 239.732 79.9487C240.793 79.9487 241.62 79.6991 242.228 79.2155C242.837 78.7319 243.133 78.0767 243.133 77.2655C243.133 76.9379 243.086 76.6415 242.977 76.3607C242.868 76.0799 242.696 75.8303 242.462 75.6119C242.228 75.3935 241.901 75.2063 241.495 75.0503C241.089 74.8943 240.575 74.7851 239.982 74.7071L239.373 74.6291C238.079 74.4575 237.127 74.0831 236.503 73.4903C235.879 72.8975 235.567 72.1175 235.567 71.1503C235.567 69.9959 235.941 69.0911 236.69 68.4359C237.439 67.7807 238.453 67.4531 239.717 67.4531C240.45 67.4531 241.152 67.5467 241.807 67.7495C242.462 67.9523 243.024 68.2175 243.476 68.5607C243.585 68.6231 243.601 68.7167 243.507 68.8259L243.117 69.4187C243.039 69.5123 242.946 69.5279 242.852 69.4499C242.322 69.1223 241.807 68.8883 241.292 68.7167C240.777 68.5607 240.231 68.4671 239.67 68.4671C238.734 68.4671 238.001 68.7011 237.47 69.1691C236.955 69.6371 236.69 70.2611 236.69 71.0411C236.69 71.7119 236.924 72.2579 237.392 72.6947C237.86 73.1159 238.656 73.4123 239.779 73.5527L240.372 73.6307C241.713 73.8179 242.696 74.2079 243.305 74.8007C243.913 75.4091 244.225 76.1891 244.225 77.1719C244.225 77.7335 244.131 78.2327 243.929 78.7007C243.726 79.1687 243.429 79.5743 243.039 79.9175C242.649 80.2607 242.166 80.5259 241.589 80.7131C241.011 80.9003 240.372 80.9939 239.607 80.9939Z" fill="#88774F"/>
<path d="M247.267 67.8122C247.267 67.6874 247.329 67.625 247.47 67.625H248.203C248.328 67.625 248.406 67.6874 248.406 67.8122V80.6042C248.406 80.729 248.343 80.7914 248.203 80.7914H247.47C247.345 80.7914 247.267 80.729 247.267 80.6042V67.8122Z" fill="#88774F"/>
<path d="M256.206 80.9939C255.114 80.9939 254.224 80.7443 253.507 80.2451C252.789 79.7459 252.274 79.0127 251.947 78.0299C251.884 77.8583 251.822 77.6711 251.775 77.4527C251.728 77.2343 251.697 76.9847 251.666 76.7039C251.635 76.4075 251.604 76.0643 251.588 75.6743C251.572 75.2687 251.557 74.7851 251.557 74.2235C251.557 73.6619 251.572 73.1783 251.588 72.7727C251.604 72.3671 251.635 72.0239 251.666 71.7431C251.697 71.4467 251.744 71.1971 251.775 70.9943C251.822 70.7915 251.869 70.5887 251.947 70.4171C252.274 69.4499 252.789 68.7167 253.507 68.2019C254.224 67.7027 255.129 67.4531 256.206 67.4531C257.282 67.4531 258.171 67.7027 258.889 68.2019C259.607 68.7011 260.121 69.4343 260.449 70.4171C260.496 70.6043 260.558 70.7915 260.605 70.9943C260.652 71.1971 260.698 71.4467 260.73 71.7431C260.761 72.0395 260.792 72.3827 260.808 72.7727C260.823 73.1783 260.839 73.6619 260.839 74.2235C260.839 74.7851 260.823 75.2843 260.808 75.6743C260.792 76.0799 260.761 76.4231 260.73 76.7039C260.698 77.0003 260.652 77.2499 260.605 77.4527C260.558 77.6711 260.496 77.8583 260.449 78.0299C260.121 78.9971 259.607 79.7303 258.889 80.2451C258.171 80.7443 257.282 80.9939 256.206 80.9939ZM259.716 74.2079C259.716 73.6775 259.7 73.2251 259.684 72.8351C259.669 72.4451 259.638 72.1175 259.622 71.8523C259.591 71.5871 259.56 71.3531 259.513 71.1815C259.466 70.9943 259.419 70.8383 259.388 70.7135C258.904 69.2315 257.844 68.4827 256.206 68.4827C254.568 68.4827 253.491 69.2315 253.008 70.7135C252.976 70.8383 252.93 70.9943 252.883 71.1815C252.836 71.3687 252.805 71.5871 252.774 71.8523C252.742 72.1175 252.727 72.4451 252.711 72.8351C252.696 73.2251 252.68 73.6775 252.68 74.2079C252.68 74.7383 252.696 75.1907 252.711 75.5807C252.727 75.9707 252.758 76.2983 252.774 76.5635C252.805 76.8287 252.836 77.0627 252.883 77.2343C252.93 77.4215 252.976 77.5775 253.008 77.7023C253.491 79.1843 254.568 79.9331 256.206 79.9331C257.828 79.9331 258.889 79.1843 259.388 77.7023C259.419 77.5775 259.466 77.4215 259.513 77.2343C259.56 77.0471 259.591 76.8287 259.622 76.5635C259.653 76.2983 259.669 75.9707 259.684 75.5807C259.7 75.2063 259.716 74.7383 259.716 74.2079Z" fill="#88774F"/>
<path d="M264.022 67.8122C264.022 67.6874 264.085 67.625 264.225 67.625H264.958C265.114 67.625 265.223 67.6874 265.286 67.8122L271.838 78.6386H271.9V67.8122C271.9 67.6874 271.963 67.625 272.103 67.625H272.836C272.961 67.625 273.039 67.6874 273.039 67.8122V80.6042C273.039 80.729 272.977 80.7914 272.852 80.7914H272.103C271.963 80.7914 271.853 80.729 271.775 80.6042L265.27 69.7466H265.192V80.6042C265.192 80.729 265.13 80.7914 264.989 80.7914H264.256C264.131 80.7914 264.053 80.729 264.053 80.6042V67.8122H264.022Z" fill="#88774F"/>
<path d="M282.055 67.8122C282.055 67.6874 282.117 67.625 282.257 67.625H289.808C289.933 67.625 289.995 67.6874 289.995 67.8122V68.4674C289.995 68.5922 289.933 68.6546 289.808 68.6546H283.303C283.225 68.6546 283.193 68.6858 283.193 68.7638V73.5842C283.193 73.6622 283.225 73.6934 283.303 73.6934H288.903C289.028 73.6934 289.09 73.7558 289.09 73.8806V74.5358C289.09 74.6606 289.028 74.723 288.903 74.723H283.303C283.225 74.723 283.193 74.7542 283.193 74.8322V80.5418C283.193 80.6666 283.131 80.729 282.991 80.729H282.257C282.133 80.729 282.055 80.6666 282.055 80.5418V67.8122Z" fill="#88774F"/>
<path d="M296.751 80.9939C295.659 80.9939 294.769 80.7443 294.052 80.2451C293.334 79.7459 292.819 79.0127 292.492 78.0299C292.429 77.8583 292.367 77.6711 292.32 77.4527C292.273 77.2343 292.242 76.9847 292.211 76.7039C292.18 76.4075 292.149 76.0643 292.133 75.6743C292.117 75.2687 292.102 74.7851 292.102 74.2235C292.102 73.6619 292.117 73.1783 292.133 72.7727C292.149 72.3671 292.18 72.0239 292.211 71.7431C292.242 71.4467 292.289 71.1971 292.32 70.9943C292.367 70.7915 292.414 70.5887 292.492 70.4171C292.819 69.4499 293.334 68.7167 294.052 68.2019C294.769 67.7027 295.674 67.4531 296.751 67.4531C297.827 67.4531 298.716 67.7027 299.434 68.2019C300.151 68.7011 300.666 69.4343 300.994 70.4171C301.041 70.6043 301.103 70.7915 301.15 70.9943C301.197 71.1971 301.243 71.4467 301.275 71.7431C301.306 72.0395 301.337 72.3827 301.353 72.7727C301.368 73.1783 301.384 73.6619 301.384 74.2235C301.384 74.7851 301.368 75.2843 301.353 75.6743C301.337 76.0799 301.306 76.4231 301.275 76.7039C301.243 77.0003 301.197 77.2499 301.15 77.4527C301.103 77.6711 301.041 77.8583 300.994 78.0299C300.666 78.9971 300.151 79.7303 299.434 80.2451C298.716 80.7443 297.827 80.9939 296.751 80.9939ZM300.261 74.2079C300.261 73.6775 300.245 73.2251 300.229 72.8351C300.214 72.4451 300.183 72.1175 300.167 71.8523C300.136 71.5871 300.105 71.3531 300.058 71.1815C300.011 70.9943 299.964 70.8383 299.933 70.7135C299.449 69.2315 298.389 68.4827 296.751 68.4827C295.113 68.4827 294.036 69.2315 293.553 70.7135C293.521 70.8383 293.475 70.9943 293.428 71.1815C293.381 71.3687 293.35 71.5871 293.319 71.8523C293.287 72.1175 293.272 72.4451 293.256 72.8351C293.241 73.2251 293.225 73.6775 293.225 74.2079C293.225 74.7383 293.241 75.1907 293.256 75.5807C293.272 75.9707 293.303 76.2983 293.319 76.5635C293.35 76.8287 293.381 77.0627 293.428 77.2343C293.475 77.4215 293.521 77.5775 293.553 77.7023C294.036 79.1843 295.113 79.9331 296.751 79.9331C298.373 79.9331 299.434 79.1843 299.933 77.7023C299.964 77.5775 300.011 77.4215 300.058 77.2343C300.105 77.0471 300.136 76.8287 300.167 76.5635C300.198 76.2983 300.214 75.9707 300.229 75.5807C300.245 75.2063 300.261 74.7383 300.261 74.2079Z" fill="#88774F"/>
<path d="M312.367 80.807C312.258 80.807 312.18 80.7446 312.133 80.6354L309.372 74.9258H309.185H305.8C305.722 74.9258 305.69 74.957 305.69 75.035V80.6198C305.69 80.7446 305.628 80.807 305.488 80.807H304.754C304.63 80.807 304.552 80.7446 304.552 80.6198V67.8278C304.552 67.703 304.614 67.6406 304.739 67.6406H309.169C310.417 67.6406 311.416 67.9682 312.118 68.6078C312.835 69.2474 313.178 70.1522 313.178 71.2754C313.178 72.1958 312.944 72.9446 312.476 73.553C312.008 74.1614 311.338 74.5514 310.495 74.7698L313.366 80.6042C313.397 80.6666 313.412 80.7134 313.397 80.7602C313.381 80.7914 313.334 80.8226 313.272 80.8226H312.367V80.807ZM309.154 73.865C310.09 73.865 310.807 73.6466 311.322 73.1942C311.821 72.7418 312.071 72.1022 312.071 71.2598C312.071 70.433 311.821 69.7934 311.322 69.341C310.823 68.8886 310.105 68.6702 309.154 68.6702H305.8C305.722 68.6702 305.69 68.7014 305.69 68.7794V73.7402C305.69 73.8182 305.722 73.8494 305.8 73.8494H309.154V73.865Z" fill="#88774F"/>
<path d="M52.2673 89.4509C52.2673 89.3261 52.3297 89.2637 52.4701 89.2637H53.2189C53.3593 89.2637 53.4685 89.3261 53.5153 89.4509L57.7897 98.8889H57.8677L62.0485 89.4509C62.0953 89.3261 62.1889 89.2637 62.3293 89.2637H63.0937C63.2185 89.2637 63.2965 89.3261 63.2965 89.4509V102.243C63.2965 102.368 63.2341 102.43 63.0937 102.43H62.3605C62.2357 102.43 62.1577 102.368 62.1577 102.243V91.9313H62.0953L58.3045 100.277C58.2733 100.355 58.2265 100.402 58.1797 100.449C58.1329 100.48 58.0549 100.496 57.9613 100.496H57.5713C57.4153 100.496 57.3061 100.418 57.2437 100.277L53.4529 91.9313H53.3905V102.243C53.3905 102.368 53.3281 102.43 53.1877 102.43H52.4545C52.3297 102.43 52.2517 102.368 52.2517 102.243V89.4509H52.2673Z" fill="#88774F"/>
<path d="M70.5818 89.4509C70.613 89.3261 70.691 89.2637 70.8158 89.2637H71.5178C71.627 89.2637 71.705 89.3261 71.7518 89.4509L76.3226 102.243C76.3538 102.368 76.3226 102.43 76.1822 102.43H75.4334C75.293 102.43 75.1994 102.368 75.1838 102.243L74.0138 99.0137H68.273L67.103 102.243C67.0562 102.368 66.9626 102.43 66.8534 102.43H66.1046C65.9798 102.43 65.933 102.368 65.9642 102.243L70.5818 89.4509ZM73.6394 97.9217L71.1746 91.0421H71.1122L68.6318 97.9217H73.6394Z" fill="#88774F"/>
<path d="M78.9899 89.4509C78.9899 89.3261 79.0523 89.2637 79.1927 89.2637H79.9259C80.0507 89.2637 80.1287 89.3261 80.1287 89.4509V97.0481L86.3999 89.4353C86.5091 89.3261 86.6183 89.2637 86.7275 89.2637H87.6323C87.6947 89.2637 87.7415 89.2793 87.7571 89.3261C87.7727 89.3729 87.7571 89.4197 87.7103 89.4665L83.5451 94.4429L88.0379 102.212C88.0691 102.274 88.0847 102.321 88.0691 102.368C88.0535 102.399 88.0067 102.43 87.9443 102.43H87.0707C86.9615 102.43 86.8523 102.368 86.7743 102.258L82.7963 95.3477L80.0975 98.5613V102.243C80.0975 102.368 80.0351 102.43 79.8947 102.43H79.1615C79.0367 102.43 78.9587 102.368 78.9587 102.243V89.4509H78.9899Z" fill="#88774F"/>
<path d="M90.799 89.4509C90.799 89.3261 90.8614 89.2637 91.0018 89.2637H91.735C91.8598 89.2637 91.9378 89.3261 91.9378 89.4509V97.0481L98.209 89.4353C98.3182 89.3261 98.4274 89.2637 98.5366 89.2637H99.4414C99.5038 89.2637 99.5506 89.2793 99.5662 89.3261C99.5818 89.3729 99.5662 89.4197 99.5194 89.4665L95.3542 94.4429L99.847 102.212C99.8782 102.274 99.8938 102.321 99.8782 102.368C99.8626 102.399 99.8158 102.43 99.7534 102.43H98.8798C98.7706 102.43 98.6614 102.368 98.5834 102.258L94.6054 95.3477L91.9066 98.5613V102.243C91.9066 102.368 91.8442 102.43 91.7038 102.43H90.9706C90.8458 102.43 90.7678 102.368 90.7678 102.243V89.4509H90.799Z" fill="#88774F"/>
<path d="M106.632 89.4509C106.663 89.3261 106.741 89.2637 106.866 89.2637H107.568C107.677 89.2637 107.755 89.3261 107.802 89.4509L112.372 102.243C112.404 102.368 112.372 102.43 112.232 102.43H111.483C111.343 102.43 111.249 102.368 111.234 102.243L110.064 99.0137H104.323L103.153 102.243C103.106 102.368 103.012 102.43 102.903 102.43H102.154C102.03 102.43 101.983 102.368 102.014 102.243L106.632 89.4509ZM109.689 97.9217L107.224 91.0421H107.162L104.682 97.9217H109.689Z" fill="#88774F"/>
<path d="M115.057 89.4509C115.057 89.3261 115.119 89.2637 115.26 89.2637H115.993C116.118 89.2637 116.196 89.3261 116.196 89.4509V95.1137C116.196 95.1917 116.227 95.2229 116.305 95.2229H122.794C122.872 95.2229 122.904 95.1917 122.904 95.1137V89.4509C122.904 89.3261 122.966 89.2637 123.106 89.2637H123.84C123.964 89.2637 124.042 89.3261 124.042 89.4509V102.243C124.042 102.368 123.98 102.43 123.84 102.43H123.091C122.966 102.43 122.888 102.368 122.888 102.243V96.3929C122.888 96.3149 122.857 96.2837 122.779 96.2837H116.289C116.211 96.2837 116.18 96.3149 116.18 96.3929V102.243C116.18 102.368 116.118 102.43 115.977 102.43H115.244C115.119 102.43 115.041 102.368 115.041 102.243V89.4509H115.057Z" fill="#88774F"/>
<path d="M132.857 99.6841C132.81 99.5125 132.764 99.3253 132.717 99.1381C132.67 98.9353 132.639 98.6857 132.608 98.3893C132.576 98.0929 132.561 97.7342 132.545 97.3286C132.53 96.923 132.514 96.4237 132.514 95.8465C132.514 95.2693 132.53 94.7701 132.545 94.3645C132.561 93.9589 132.592 93.6001 132.608 93.3037C132.639 93.0073 132.67 92.7577 132.717 92.5549C132.764 92.3521 132.81 92.1649 132.857 92.0089C133.2 91.0105 133.715 90.2773 134.402 89.7937C135.104 89.3101 135.977 89.0605 137.022 89.0605C137.927 89.0605 138.723 89.2633 139.409 89.6689C140.096 90.0745 140.626 90.6829 141 91.4941C141.047 91.6033 141.032 91.6969 140.938 91.7437L140.298 92.0557C140.189 92.1181 140.111 92.087 140.049 91.9778C139.752 91.4162 139.362 90.9481 138.879 90.6049C138.395 90.2617 137.771 90.0901 137.022 90.0901C136.211 90.0901 135.556 90.2774 135.057 90.6362C134.558 91.0106 134.183 91.5565 133.918 92.2741C133.887 92.3989 133.84 92.5549 133.809 92.7421C133.778 92.9293 133.731 93.1477 133.715 93.4129C133.684 93.6781 133.668 94.0057 133.653 94.3957C133.637 94.7857 133.637 95.2537 133.637 95.8154C133.637 96.377 133.637 96.8449 133.653 97.2349C133.668 97.6249 133.684 97.9526 133.715 98.2178C133.746 98.483 133.778 98.717 133.809 98.8886C133.84 99.0758 133.887 99.2317 133.918 99.3565C134.183 100.074 134.558 100.62 135.057 100.995C135.556 101.369 136.211 101.541 137.022 101.541C137.771 101.541 138.395 101.369 138.879 101.026C139.362 100.683 139.752 100.23 140.049 99.6529C140.111 99.5437 140.189 99.5125 140.298 99.5749L140.938 99.887C141.032 99.9338 141.047 100.027 141 100.137C140.626 100.948 140.096 101.556 139.409 101.962C138.723 102.367 137.927 102.57 137.022 102.57C135.977 102.57 135.104 102.321 134.402 101.837C133.715 101.416 133.2 100.683 132.857 99.6841Z" fill="#88774F"/>
<path d="M143.902 89.4509C143.902 89.3261 143.964 89.2637 144.104 89.2637H144.838C144.962 89.2637 145.04 89.3261 145.04 89.4509V102.243C145.04 102.368 144.978 102.43 144.838 102.43H144.104C143.98 102.43 143.902 102.368 143.902 102.243V89.4509Z" fill="#88774F"/>
<path d="M151.919 102.428C151.794 102.428 151.716 102.366 151.716 102.241V90.4161C151.716 90.3381 151.685 90.3069 151.607 90.3069H147.816C147.692 90.3069 147.629 90.2445 147.629 90.1197V89.4645C147.629 89.3397 147.692 89.2773 147.816 89.2773H156.771C156.896 89.2773 156.958 89.3397 156.958 89.4645V90.1197C156.958 90.2445 156.896 90.3069 156.771 90.3069H152.98C152.902 90.3069 152.871 90.3381 152.871 90.4161V102.241C152.871 102.366 152.808 102.428 152.668 102.428H151.919Z" fill="#88774F"/>
<path d="M163.041 102.428C162.917 102.428 162.839 102.366 162.839 102.241V97.0305L158.892 89.4801C158.861 89.4333 158.876 89.3865 158.907 89.3397C158.939 89.2929 158.985 89.2773 159.048 89.2773H159.797C159.921 89.2773 160.015 89.3397 160.093 89.4645L163.416 95.7669H163.478L166.739 89.4645C166.801 89.3397 166.895 89.2773 167.035 89.2773H167.768C167.846 89.2773 167.893 89.2929 167.924 89.3397C167.955 89.3865 167.955 89.4333 167.924 89.4801L163.977 97.0305V102.241C163.977 102.366 163.915 102.428 163.775 102.428H163.041Z" fill="#88774F"/>
<path d="M179.032 89.4509C179.063 89.3261 179.141 89.2637 179.266 89.2637H179.967C180.077 89.2637 180.155 89.3261 180.202 89.4509L184.772 102.243C184.804 102.368 184.772 102.43 184.632 102.43H183.883C183.743 102.43 183.649 102.368 183.634 102.243L182.464 99.0137H176.723L175.553 102.243C175.506 102.368 175.412 102.43 175.303 102.43H174.554C174.429 102.43 174.383 102.368 174.414 102.243L179.032 89.4509ZM182.089 97.9217L179.624 91.0421H179.562L177.082 97.9217H182.089Z" fill="#88774F"/>
<path d="M187.457 89.4509C187.457 89.3261 187.519 89.2637 187.66 89.2637H188.393C188.549 89.2637 188.658 89.3261 188.72 89.4509L195.272 100.277H195.335V89.4509C195.335 89.3261 195.397 89.2637 195.538 89.2637H196.271C196.396 89.2637 196.474 89.3261 196.474 89.4509V102.243C196.474 102.368 196.411 102.43 196.286 102.43H195.538C195.397 102.43 195.288 102.368 195.21 102.243L188.705 91.3853H188.627V102.243C188.627 102.368 188.564 102.43 188.424 102.43H187.691C187.566 102.43 187.488 102.368 187.488 102.243V89.4509H187.457Z" fill="#88774F"/>
<path d="M200.031 89.4509C200.031 89.3261 200.094 89.2637 200.219 89.2637H204.353C206.568 89.2637 207.972 90.1529 208.565 91.9313C208.627 92.1185 208.689 92.3213 208.736 92.5241C208.783 92.7269 208.814 92.9765 208.846 93.2729C208.877 93.5693 208.908 93.9125 208.908 94.3337C208.923 94.7549 208.924 95.2541 208.924 95.8469C208.924 96.4553 208.923 96.9545 208.908 97.3757C208.892 97.7813 208.877 98.1245 208.846 98.4209C208.814 98.7173 208.767 98.9669 208.736 99.1697C208.689 99.3725 208.643 99.5753 208.565 99.7781C207.987 101.556 206.584 102.446 204.353 102.446H200.219C200.094 102.446 200.031 102.383 200.031 102.258V89.4509ZM201.155 101.276C201.155 101.354 201.186 101.385 201.264 101.385H204.197C205.055 101.385 205.741 101.229 206.303 100.917C206.849 100.605 207.254 100.09 207.488 99.3881C207.535 99.2321 207.582 99.0605 207.629 98.8889C207.66 98.7017 207.707 98.4833 207.722 98.2181C207.754 97.9529 207.769 97.6253 207.785 97.2509C207.8 96.8765 207.8 96.4085 207.8 95.8469C207.8 95.2853 207.8 94.8173 207.785 94.4429C207.769 94.0685 207.754 93.7409 207.722 93.4757C207.691 93.2105 207.66 92.9921 207.629 92.8049C207.598 92.6177 207.551 92.4617 207.488 92.3057C207.254 91.6037 206.864 91.1045 206.303 90.7925C205.757 90.4805 205.055 90.3245 204.197 90.3245H201.264C201.186 90.3245 201.155 90.3557 201.155 90.4337V101.276Z" fill="#88774F"/>
<path d="M217.471 89.4509C217.471 89.3261 217.533 89.2637 217.674 89.2637H218.407C218.532 89.2637 218.61 89.3261 218.61 89.4509V95.1137C218.61 95.1917 218.641 95.2229 218.719 95.2229H225.209C225.287 95.2229 225.318 95.1917 225.318 95.1137V89.4509C225.318 89.3261 225.38 89.2637 225.521 89.2637H226.254C226.379 89.2637 226.457 89.3261 226.457 89.4509V102.243C226.457 102.368 226.394 102.43 226.254 102.43H225.521C225.396 102.43 225.318 102.368 225.318 102.243V96.3929C225.318 96.3149 225.287 96.2837 225.209 96.2837H218.719C218.641 96.2837 218.61 96.3149 218.61 96.3929V102.243C218.61 102.368 218.547 102.43 218.407 102.43H217.674C217.549 102.43 217.471 102.368 217.471 102.243V89.4509Z" fill="#88774F"/>
<path d="M234.258 102.631C233.166 102.631 232.277 102.381 231.559 101.882C230.842 101.383 230.327 100.649 229.999 99.6667C229.937 99.4951 229.874 99.3078 229.828 99.0894C229.781 98.871 229.75 98.6214 229.718 98.3406C229.687 98.0442 229.656 97.701 229.64 97.3111C229.625 96.9055 229.609 96.4218 229.609 95.8602C229.609 95.2986 229.625 94.815 229.64 94.4094C229.656 94.0038 229.687 93.6606 229.718 93.3798C229.75 93.0834 229.796 92.8339 229.828 92.6311C229.874 92.4283 229.921 92.2254 229.999 92.0538C230.327 91.0866 230.842 90.3534 231.559 89.8386C232.277 89.3238 233.182 89.0898 234.258 89.0898C235.334 89.0898 236.224 89.3394 236.941 89.8386C237.659 90.3378 238.174 91.071 238.501 92.0538C238.548 92.241 238.61 92.4283 238.657 92.6311C238.704 92.8339 238.751 93.0834 238.782 93.3798C238.813 93.6762 238.844 94.0194 238.86 94.4094C238.876 94.815 238.891 95.2986 238.891 95.8602C238.891 96.4218 238.876 96.9211 238.86 97.3111C238.844 97.7167 238.813 98.0598 238.782 98.3406C238.751 98.637 238.704 98.8866 238.657 99.0894C238.61 99.3078 238.548 99.4951 238.501 99.6667C238.174 100.634 237.659 101.367 236.941 101.882C236.224 102.381 235.334 102.631 234.258 102.631ZM237.768 95.8446C237.768 95.3142 237.752 94.8619 237.737 94.4719C237.721 94.0819 237.69 93.7542 237.674 93.489C237.643 93.2238 237.612 92.9898 237.565 92.8182C237.518 92.631 237.472 92.475 237.44 92.3502C236.957 90.8682 235.896 90.1194 234.258 90.1194C232.62 90.1194 231.559 90.8682 231.06 92.3502C231.029 92.475 230.982 92.631 230.935 92.8182C230.888 93.0054 230.857 93.2238 230.826 93.489C230.795 93.7542 230.779 94.0819 230.764 94.4719C230.748 94.8619 230.732 95.3142 230.732 95.8446C230.732 96.375 230.748 96.8274 230.764 97.2174C230.779 97.6074 230.81 97.9351 230.826 98.2002C230.857 98.4654 230.888 98.6995 230.935 98.871C230.982 99.0583 231.029 99.2142 231.06 99.339C231.544 100.821 232.62 101.57 234.258 101.57C235.88 101.57 236.941 100.821 237.44 99.339C237.472 99.2142 237.518 99.0583 237.565 98.871C237.612 98.6839 237.643 98.4654 237.674 98.2002C237.706 97.9351 237.721 97.6074 237.737 97.2174C237.752 96.8274 237.768 96.375 237.768 95.8446Z" fill="#88774F"/>
<path d="M242.072 89.4509C242.072 89.3261 242.134 89.2637 242.275 89.2637H243.008C243.133 89.2637 243.211 89.3261 243.211 89.4509V101.276C243.211 101.354 243.242 101.385 243.32 101.385H249.825C249.95 101.385 250.012 101.447 250.012 101.572V102.227C250.012 102.352 249.95 102.414 249.825 102.414H242.275C242.15 102.414 242.072 102.352 242.072 102.227V89.4509Z" fill="#88774F"/>
<path d="M254.118 102.428C253.993 102.428 253.915 102.366 253.915 102.241V97.0305L249.968 89.4801C249.937 89.4333 249.952 89.3865 249.984 89.3397C250.015 89.2929 250.062 89.2773 250.124 89.2773H250.873C250.998 89.2773 251.091 89.3397 251.169 89.4645L254.492 95.7669H254.554L257.815 89.4645C257.877 89.3397 257.971 89.2773 258.111 89.2773H258.844C258.922 89.2773 258.969 89.2929 259 89.3397C259.032 89.3865 259.032 89.4333 259 89.4801L255.054 97.0305V102.241C255.054 102.366 254.991 102.428 254.851 102.428H254.118Z" fill="#88774F"/>
<path d="M270.512 102.631C270.091 102.631 269.654 102.584 269.233 102.506C268.811 102.428 268.406 102.303 268.016 102.163C267.641 102.022 267.283 101.851 266.971 101.663C266.659 101.476 266.378 101.289 266.144 101.086C266.035 100.993 266.035 100.899 266.128 100.821L266.596 100.244C266.69 100.135 266.783 100.135 266.861 100.228C267.298 100.571 267.844 100.868 268.499 101.164C269.155 101.445 269.872 101.585 270.637 101.585C271.697 101.585 272.524 101.336 273.133 100.852C273.741 100.369 274.037 99.7134 274.037 98.9022C274.037 98.5746 273.991 98.2782 273.881 97.9974C273.772 97.7166 273.601 97.467 273.367 97.2486C273.133 97.0302 272.805 96.843 272.399 96.687C271.994 96.531 271.479 96.4218 270.886 96.3438L270.293 96.2659C268.999 96.0943 268.047 95.7198 267.423 95.127C266.799 94.5342 266.487 93.7542 266.487 92.787C266.487 91.6326 266.861 90.7279 267.61 90.0727C268.359 89.4175 269.373 89.0898 270.637 89.0898C271.37 89.0898 272.072 89.1834 272.727 89.3862C273.382 89.589 273.944 89.8542 274.396 90.1974C274.505 90.2598 274.521 90.3535 274.427 90.4627L274.037 91.0554C273.959 91.149 273.866 91.1647 273.772 91.0867C273.242 90.7591 272.727 90.5251 272.212 90.3535C271.697 90.1975 271.151 90.1038 270.59 90.1038C269.654 90.1038 268.921 90.3379 268.39 90.8059C267.875 91.2739 267.61 91.8978 267.61 92.6778C267.61 93.3486 267.844 93.8946 268.312 94.3314C268.78 94.7526 269.576 95.049 270.699 95.1894L271.292 95.2674C272.633 95.4546 273.616 95.8446 274.225 96.4374C274.833 97.0458 275.145 97.8258 275.145 98.8086C275.145 99.3702 275.051 99.8694 274.849 100.337C274.646 100.805 274.349 101.211 273.959 101.554C273.569 101.897 273.086 102.163 272.509 102.35C271.931 102.537 271.276 102.631 270.512 102.631Z" fill="#88774F"/>
<path d="M278.171 89.4509C278.171 89.3261 278.234 89.2637 278.374 89.2637H279.107C279.232 89.2637 279.31 89.3261 279.31 89.4509V102.243C279.31 102.368 279.248 102.43 279.107 102.43H278.374C278.249 102.43 278.171 102.368 278.171 102.243V89.4509Z" fill="#88774F"/>
<path d="M286.19 102.428C286.065 102.428 285.987 102.366 285.987 102.241V90.4161C285.987 90.3381 285.956 90.3069 285.878 90.3069H282.087C281.962 90.3069 281.9 90.2445 281.9 90.1197V89.4645C281.9 89.3397 281.962 89.2773 282.087 89.2773H291.041C291.166 89.2773 291.228 89.3397 291.228 89.4645V90.1197C291.228 90.2445 291.166 90.3069 291.041 90.3069H287.25C287.172 90.3069 287.141 90.3381 287.141 90.4161V102.241C287.141 102.366 287.079 102.428 286.938 102.428H286.19Z" fill="#88774F"/>
<path d="M293.802 89.4509C293.802 89.3261 293.864 89.2637 294.005 89.2637H301.555C301.68 89.2637 301.742 89.3261 301.742 89.4509V90.1061C301.742 90.2309 301.68 90.2933 301.555 90.2933H295.05C294.972 90.2933 294.941 90.3245 294.941 90.4025V95.0981C294.941 95.1761 294.972 95.2073 295.05 95.2073H300.65C300.775 95.2073 300.838 95.2697 300.838 95.3945V96.0497C300.838 96.1745 300.775 96.2369 300.65 96.2369H295.05C294.972 96.2369 294.941 96.2681 294.941 96.3461V101.229C294.941 101.307 294.972 101.338 295.05 101.338H301.555C301.68 101.338 301.742 101.4 301.742 101.525V102.18C301.742 102.305 301.68 102.368 301.555 102.368H294.005C293.88 102.368 293.802 102.305 293.802 102.18V89.4509Z" fill="#88774F"/>
<path d="M308.732 102.631C308.311 102.631 307.874 102.584 307.453 102.506C307.032 102.428 306.626 102.303 306.236 102.163C305.862 102.022 305.503 101.851 305.191 101.663C304.879 101.476 304.598 101.289 304.364 101.086C304.255 100.993 304.255 100.899 304.349 100.821L304.817 100.244C304.91 100.135 305.004 100.135 305.082 100.228C305.519 100.571 306.065 100.868 306.72 101.164C307.375 101.445 308.093 101.585 308.857 101.585C309.918 101.585 310.745 101.336 311.353 100.852C311.962 100.369 312.258 99.7134 312.258 98.9022C312.258 98.5746 312.211 98.2782 312.102 97.9974C311.993 97.7166 311.821 97.467 311.587 97.2486C311.353 97.0302 311.026 96.843 310.62 96.687C310.214 96.531 309.7 96.4218 309.107 96.3438L308.514 96.2659C307.219 96.0943 306.268 95.7198 305.644 95.127C305.02 94.5342 304.708 93.7542 304.708 92.787C304.708 91.6326 305.082 90.7279 305.831 90.0727C306.58 89.4175 307.594 89.0898 308.857 89.0898C309.59 89.0898 310.292 89.1834 310.948 89.3862C311.603 89.589 312.164 89.8542 312.617 90.1974C312.726 90.2598 312.742 90.3535 312.648 90.4627L312.258 91.0554C312.18 91.149 312.086 91.1647 311.993 91.0867C311.462 90.7591 310.948 90.5251 310.433 90.3535C309.918 90.1975 309.372 90.1038 308.81 90.1038C307.874 90.1038 307.141 90.3379 306.611 90.8059C306.096 91.2739 305.831 91.8978 305.831 92.6778C305.831 93.3486 306.065 93.8946 306.533 94.3314C307.001 94.7526 307.796 95.049 308.92 95.1894L309.512 95.2674C310.854 95.4546 311.837 95.8446 312.445 96.4374C313.054 97.0458 313.366 97.8258 313.366 98.8086C313.366 99.3702 313.272 99.8694 313.069 100.337C312.866 100.805 312.57 101.211 312.18 101.554C311.79 101.897 311.306 102.163 310.729 102.35C310.168 102.537 309.497 102.631 308.732 102.631Z" fill="#88774F"/>
<path d="M9.61696 1.70898C8.64976 1.70898 7.85416 2.52018 7.85416 3.47178C7.85416 4.42338 8.61856 5.23458 9.61696 5.23458C10.5842 5.23458 11.3798 4.42338 11.3798 3.47178C11.3798 2.50458 10.5686 1.70898 9.61696 1.70898ZM5.28016 1.70898C4.31296 1.70898 3.53296 2.52018 3.53296 3.47178C3.53296 4.42338 4.25056 5.23458 5.28016 5.23458C6.27856 5.23458 7.04296 4.43898 7.04296 3.47178C7.04296 2.47338 6.26296 1.70898 5.28016 1.70898Z" fill="#00080C"/>
<path d="M43.0161 6.71774C38.3205 6.71774 35.9805 9.85334 35.9805 13.2853C35.9805 15.2041 36.4953 16.4053 37.4781 17.1541C37.3533 17.1229 36.8073 16.9669 35.9805 16.9669H32.6889C32.4237 11.7721 30.1149 9.07334 26.6985 7.52894L33.2973 3.53534V-0.00585938L22.5801 6.71774V9.33854C26.8857 10.3369 29.0541 12.7705 29.1945 16.9669H13.4541V7.65374C13.4541 7.65374 10.9893 6.71774 7.77566 6.71774C2.81486 6.71774 0.630859 9.96254 0.630859 13.5037C0.630859 17.3569 2.61206 19.7905 7.85366 19.7905H49.1313V12.9421C49.1313 9.15134 47.2437 6.71774 43.0161 6.71774ZM9.99086 16.9825H8.25926C5.42006 16.9825 4.20326 15.6565 4.20326 13.1917C4.20326 11.0857 5.38886 9.54134 7.41686 9.54134C8.96126 9.54134 9.99086 10.0249 9.99086 10.0249V16.9825ZM45.6369 16.9825H43.5777C40.7697 16.9825 39.5217 15.7345 39.5217 13.1917C39.5217 11.0857 40.7073 9.54134 42.7353 9.54134C44.5449 9.54134 45.6369 10.6801 45.6369 13.3945V16.9825Z" fill="#00080C"/>
<path d="M67.1345 1.70898C66.1673 1.70898 65.3717 2.52018 65.3717 3.47178C65.3717 4.42338 66.1205 5.23458 67.1345 5.23458C68.1017 5.23458 68.8973 4.42338 68.8973 3.47178C68.8817 2.50458 68.0861 1.70898 67.1345 1.70898ZM62.7977 1.70898C61.8305 1.70898 61.0349 2.52018 61.0349 3.47178C61.0349 4.42338 61.7681 5.23458 62.7977 5.23458C63.7961 5.23458 64.5605 4.43898 64.5605 3.47178C64.5605 2.47338 63.7649 1.70898 62.7977 1.70898Z" fill="#00080C"/>
<path d="M84.716 1.69531C83.7176 1.69531 82.8596 2.55331 82.8596 3.55171C82.8596 4.55011 83.6864 5.42371 84.716 5.42371C85.7144 5.42371 86.588 4.59691 86.588 3.55171C86.588 2.52211 85.7144 1.69531 84.716 1.69531Z" fill="#00080C"/>
<path d="M95.9465 21.7734C94.9793 21.7734 94.1837 22.5534 94.1837 23.5206C94.1837 24.4722 94.9325 25.2834 95.9465 25.2834C96.9137 25.2834 97.7093 24.4722 97.7093 23.5206C97.7093 22.5534 96.8981 21.7734 95.9465 21.7734ZM91.6097 21.7734C90.6425 21.7734 89.8469 22.5534 89.8469 23.5206C89.8469 24.4722 90.6113 25.2834 91.6097 25.2834C92.5769 25.2834 93.3725 24.4722 93.3725 23.5206C93.3725 22.5534 92.5613 21.7734 91.6097 21.7734Z" fill="#00080C"/>
<path d="M92.0782 7.07562V16.9816H86.509V7.07562H82.9366V16.9816H70.9714V7.66842C70.9714 7.66842 68.5066 6.73242 65.293 6.73242C60.3322 6.73242 58.1482 9.97722 58.1482 13.5184C58.1482 17.3716 60.1294 19.8052 65.371 19.8052H95.6662V7.07562H92.0782ZM67.5082 16.9816H65.7766C62.9374 16.9816 61.7206 15.6556 61.7206 13.1908C61.7206 11.0848 62.9062 9.54042 64.9342 9.54042C66.4786 9.54042 67.5082 10.024 67.5082 10.024V16.9816Z" fill="#00080C"/>
<path d="M132.639 0.712891V16.9837H127.694V12.9589C127.694 9.16809 125.806 6.73449 121.578 6.73449C116.883 6.73449 114.543 9.87009 114.543 13.3021C114.543 16.0945 113.498 16.9837 111.86 16.9837H110.565C110.237 10.9465 107.133 7.88889 101.548 6.42249L100.69 9.40209C104.964 10.4785 106.914 12.9745 107.07 16.9681H99.0676V19.7917H112.25C114.527 19.7917 115.604 18.9493 116.103 17.7013C117.054 18.9493 118.271 19.7917 122.156 19.7917H136.227V0.712891H132.639ZM124.215 16.9837H122.156C119.348 16.9837 118.1 15.7357 118.1 13.1929C118.1 11.0869 119.285 9.54249 121.313 9.54249C123.123 9.54249 124.215 10.6813 124.215 13.3957V16.9837Z" fill="#00080C"/>
<path d="M154.649 1.70898C153.682 1.70898 152.902 2.52018 152.902 3.47178C152.902 4.42338 153.651 5.23458 154.649 5.23458C155.632 5.23458 156.412 4.42338 156.412 3.47178C156.412 2.50458 155.601 1.70898 154.649 1.70898ZM150.312 1.70898C149.345 1.70898 148.565 2.52018 148.565 3.47178C148.565 4.42338 149.283 5.23458 150.312 5.23458C151.311 5.23458 152.075 4.43898 152.075 3.47178C152.075 2.47338 151.295 1.70898 150.312 1.70898Z" fill="#00080C"/>
<path d="M169.408 21.7734C168.425 21.7734 167.645 22.5534 167.645 23.5206C167.645 24.4722 168.394 25.2834 169.408 25.2834C170.375 25.2834 171.155 24.4722 171.155 23.5206C171.155 22.5534 170.344 21.7734 169.408 21.7734ZM173.745 21.7734C172.762 21.7734 171.982 22.5534 171.982 23.5206C171.982 24.4722 172.731 25.2834 173.745 25.2834C174.712 25.2834 175.492 24.4722 175.492 23.5206C175.492 22.5534 174.681 21.7734 173.745 21.7734Z" fill="#00080C"/>
<path d="M218.205 0.711764V16.9826H213.244V12.9578C213.244 9.16696 211.357 6.73337 207.129 6.73337C202.449 6.73337 200.093 9.86896 200.093 13.301C200.093 16.0934 199.033 16.9826 197.41 16.9826H194.836V0.711764H191.264V16.9826H186.849C186.584 11.7878 184.275 9.08897 180.859 7.54457L187.457 3.55096V0.00976562L176.74 6.73337V9.35417C181.046 10.3526 183.214 12.7862 183.355 16.9826H173.355V7.07656H169.783V16.9826H158.473V7.66937C158.473 7.66937 156.008 6.73337 152.794 6.73337C147.833 6.73337 145.649 9.97817 145.649 13.5194C145.649 17.3726 147.631 19.8062 152.888 19.8062H197.785C200.047 19.8062 201.139 18.9638 201.638 17.7158C202.574 18.9638 203.791 19.8062 207.691 19.8062H221.762V0.711764H218.205ZM155.025 16.9826H153.293C150.454 16.9826 149.237 15.6566 149.237 13.1918C149.237 11.0858 150.423 9.54136 152.451 9.54136C153.995 9.54136 155.025 10.025 155.025 10.025V16.9826ZM209.75 16.9826H207.691C204.867 16.9826 203.635 15.7346 203.635 13.1918C203.635 11.0858 204.82 9.54136 206.848 9.54136C208.658 9.54136 209.75 10.6802 209.75 13.3946V16.9826Z" fill="#00080C"/>
<path d="M226.097 0.712891H229.669V19.7917H226.097V0.712891Z" fill="#00080C"/>
<path d="M248.14 1.70898C247.173 1.70898 246.378 2.52018 246.378 3.47178C246.378 4.42338 247.126 5.23458 248.14 5.23458C249.108 5.23458 249.903 4.42338 249.903 3.47178C249.888 2.50458 249.076 1.70898 248.14 1.70898ZM243.804 1.70898C242.836 1.70898 242.041 2.52018 242.041 3.47178C242.041 4.42338 242.774 5.23458 243.804 5.23458C244.802 5.23458 245.566 4.43898 245.566 3.47178C245.566 2.47338 244.771 1.70898 243.804 1.70898Z" fill="#00080C"/>
<path d="M266.501 3.84546C264.988 3.84546 264.551 3.47106 264.551 2.84706C264.551 2.33226 264.957 1.92666 265.877 1.92666C266.579 1.92666 267.203 2.06706 267.344 2.08266L267.687 0.195063C267.5 0.163863 266.829 0.0390625 266.096 0.0390625C263.257 0.0390625 262.118 1.48986 262.118 2.83146C262.118 3.31506 262.383 3.79866 262.804 4.01706C262.43 3.92346 261.775 3.86106 261.166 3.86106V5.81106H268.155V3.86106H266.501V3.84546Z" fill="#00080C"/>
<path d="M276.363 21.7734C275.395 21.7734 274.6 22.5534 274.6 23.5206C274.6 24.4722 275.349 25.2834 276.363 25.2834C277.33 25.2834 278.125 24.4722 278.125 23.5206C278.125 22.5534 277.314 21.7734 276.363 21.7734ZM272.026 21.7734C271.059 21.7734 270.263 22.5534 270.263 23.5206C270.263 24.4722 271.012 25.2834 272.026 25.2834C272.993 25.2834 273.789 24.4722 273.789 23.5206C273.789 22.5534 272.977 21.7734 272.026 21.7734Z" fill="#00080C"/>
<path d="M301.946 0.712891V16.9837H297.609V16.9057C297.609 8.99649 293.756 5.78289 287.001 5.78289C284.833 5.78289 282.368 6.21969 280.418 6.84369L280.761 9.63609C282.462 9.05889 284.693 8.57529 286.549 8.57529C291.9 8.57529 294.193 11.0557 294.193 16.6717V16.9993H291.479V16.3753C291.479 13.3177 290.121 10.6657 286.502 10.6657C283.226 10.6657 281.307 12.5845 281.307 15.2209C281.307 16.3597 281.853 16.9993 281.963 17.1397C281.853 17.1241 281.385 17.0149 280.746 17.0149H276.003V7.10889H272.431V17.0149H266.846V7.10889H263.274V17.0149H251.964V7.70169C251.964 7.70169 249.499 6.76569 246.27 6.76569C241.325 6.76569 239.125 10.0105 239.125 13.5517C239.125 17.4049 241.106 19.8385 246.348 19.8385H305.487V0.712891H301.946ZM248.516 16.9837H246.785C243.93 16.9837 242.729 15.6577 242.729 13.1929C242.729 11.0869 243.914 9.54249 245.942 9.54249C247.487 9.54249 248.516 10.0261 248.516 10.0261V16.9837ZM288.561 17.0929H286.783C285.395 17.0929 284.209 16.4845 284.209 14.9557C284.209 13.8169 285.005 13.1149 286.237 13.1149C287.828 13.1149 288.577 14.2225 288.577 16.3129V17.0929H288.561Z" fill="#00080C"/>
<path d="M309.84 0.712891H313.412V19.7917H309.84V0.712891Z" fill="#00080C"/>
<path d="M9.5862 31.4297C8.619 31.4297 7.8234 32.2409 7.8234 33.1769C7.8234 34.1285 8.5878 34.9397 9.5862 34.9397C10.5534 34.9397 11.349 34.1285 11.349 33.1769C11.349 32.2097 10.5378 31.4297 9.5862 31.4297ZM5.2494 31.4297C4.2822 31.4297 3.5022 32.2409 3.5022 33.1769C3.5022 34.1285 4.2198 34.9397 5.2494 34.9397C6.2478 34.9397 7.0122 34.1597 7.0122 33.1769C7.0122 32.1941 6.2322 31.4297 5.2494 31.4297Z" fill="#00080C"/>
<path d="M37.1043 35.7031L33.6099 36.1867C34.0779 38.2459 34.4055 40.7419 34.4055 43.4407C34.4055 44.2831 34.3587 45.5935 34.2495 46.6855H33.5163C31.0203 46.6855 30.3027 46.2487 30.3027 44.1115V37.3255H26.8707V43.4407C26.8707 46.0615 26.0751 46.9039 24.6711 46.9039C23.0799 46.9039 22.7991 45.8431 22.7991 43.4095V38.4019H19.2267V43.3315C19.2267 45.9835 18.5403 46.6855 16.7931 46.6855H13.4235V37.3723C13.4235 37.3723 10.9587 36.4207 7.74514 36.4207C2.78434 36.4207 0.600342 39.6655 0.600342 43.2223C0.600342 47.0755 2.58154 49.4935 7.82314 49.4935H16.7619C18.7431 49.4935 19.8195 48.8383 20.3655 47.6059C20.8023 48.9007 22.2375 49.7119 24.0003 49.7119C26.1219 49.7119 27.5415 48.7915 28.0875 47.6215C28.8831 49.1191 30.3183 49.4935 33.1575 49.4935H37.6191C37.8687 47.5747 37.9935 45.1567 37.9935 43.1911C37.9779 40.5079 37.6191 37.8715 37.1043 35.7031ZM9.96034 46.7011H8.22874C5.38954 46.7011 4.17274 45.3751 4.17274 42.9103C4.17274 40.7887 5.35834 39.2599 7.38634 39.2599C8.93074 39.2599 9.96034 39.7435 9.96034 39.7435V46.7011Z" fill="#00080C"/>
<path d="M60.2865 31.4297C59.3193 31.4297 58.5237 32.2409 58.5237 33.1769C58.5237 34.1285 59.2569 34.9397 60.2865 34.9397C61.2849 34.9397 62.0493 34.1597 62.0493 33.1769C62.0337 32.1941 61.2537 31.4297 60.2865 31.4297ZM64.6077 31.4297C63.6405 31.4297 62.8449 32.2409 62.8449 33.1769C62.8449 34.1285 63.5937 34.9397 64.6077 34.9397C65.5749 34.9397 66.3705 34.1285 66.3705 33.1769C66.3705 32.2097 65.5593 31.4297 64.6077 31.4297Z" fill="#00080C"/>
<path d="M91.2057 30.4297V46.7005H86.2605V42.6601C86.2605 38.8849 84.3729 36.4357 80.1453 36.4357C75.4497 36.4357 73.1097 39.5869 73.1097 43.0189C73.1097 45.8113 72.0645 46.7005 70.4265 46.7005H69.4905C68.5389 46.7005 67.4001 46.8253 67.4001 46.8253C68.4297 45.9673 68.9601 44.3137 68.9601 42.7381C68.9601 38.4325 66.4953 36.4357 62.6889 36.4357C58.5705 36.4357 55.7937 39.2749 55.7937 43.1749C55.7937 44.7193 56.2305 45.9829 57.0729 46.8253C57.0729 46.8253 56.2305 46.7005 55.3881 46.7005H52.6581C52.3305 40.6633 49.2261 37.6057 43.6413 36.1393L42.7833 39.1189C47.0577 40.1953 49.0077 42.6913 49.1637 46.7005H41.1453V49.5085H70.8165C73.0941 49.5085 74.1705 48.6817 74.6697 47.4181C75.6213 48.6661 76.8381 49.5085 80.7225 49.5085H94.7937V30.4297H91.2057ZM62.3613 46.7005C60.3801 46.7005 59.3817 45.4213 59.3817 42.8785C59.3817 40.3357 60.8793 39.2593 62.4237 39.2593C64.4517 39.2593 65.3877 40.5541 65.3877 42.9253C65.3877 45.4369 64.0773 46.7005 62.3613 46.7005ZM82.7661 46.7005H80.7069C77.8989 46.7005 76.6509 45.4525 76.6509 42.9097C76.6509 40.7881 77.8365 39.2593 79.8645 39.2593C81.6741 39.2593 82.7661 40.3981 82.7661 43.0969V46.7005Z" fill="#00080C"/>
<path d="M99.1145 30.4297H102.687V49.5085H99.1145V30.4297Z" fill="#00080C"/>
<path d="M135.899 46.7003V49.5083H119.519V49.6175C119.519 53.0807 118.334 56.3879 112.827 56.3879C112 56.3879 111.204 56.2787 110.565 56.1227L110.83 53.2679C111.485 53.4551 112.156 53.5955 113.03 53.5955C114.87 53.5955 115.947 52.7219 115.947 49.8047V36.7943H119.519V46.7003H126.118C124.932 45.9827 124.028 44.4695 124.028 42.6599C124.028 39.3059 126.321 36.4355 131.094 36.4355C132.935 36.4355 134.448 36.9503 134.448 36.9503L133.824 39.7895C133.824 39.7895 132.576 39.2123 131.016 39.2123C128.988 39.2123 127.6 40.5695 127.6 42.6443C127.6 44.9375 129.472 46.6847 133.762 46.6847H135.899V46.7003Z" fill="#00080C"/>
<path d="M155.243 31.5549C154.275 31.5549 153.48 32.3661 153.48 33.3177C153.48 34.2849 154.275 35.0805 155.243 35.0805C156.194 35.0805 157.005 34.2693 157.005 33.3177C157.005 32.3505 156.194 31.5549 155.243 31.5549ZM157.489 28.0137C156.522 28.0137 155.726 28.8249 155.726 29.7765C155.726 30.7437 156.522 31.5393 157.489 31.5393C158.456 31.5393 159.252 30.7125 159.252 29.7765C159.252 28.7937 158.456 28.0137 157.489 28.0137ZM159.72 31.5549C158.768 31.5549 157.957 32.3661 157.957 33.3177C157.957 34.2849 158.768 35.0805 159.72 35.0805C160.687 35.0805 161.467 34.2693 161.467 33.3177C161.467 32.3505 160.687 31.5549 159.72 31.5549Z" fill="#00080C"/>
<path d="M190.187 30.4297V46.7005H185.226V42.6601C185.226 38.8849 183.339 36.4357 179.111 36.4357C174.416 36.4357 172.076 39.5869 172.076 43.0189C172.076 45.8113 171.03 46.7005 169.392 46.7005H166.943C167.021 45.4993 167.052 44.2981 167.052 43.2061C167.052 40.5229 166.694 37.8865 166.179 35.7025L162.684 36.1861C163.152 38.2453 163.48 40.7413 163.48 43.4401C163.48 44.2825 163.433 45.5929 163.324 46.6849H162.591C160.11 46.6849 159.377 46.2481 159.377 44.1109V37.3249H155.945V43.4401C155.945 46.0609 155.15 46.9033 153.746 46.9033C152.154 46.9033 151.874 45.8425 151.874 43.4089V38.4013H148.301V43.3309C148.301 45.9829 147.63 46.6849 145.868 46.6849H142.514V30.4297H138.941V49.5085H145.836C147.818 49.5085 148.894 48.8533 149.44 47.6209C149.877 48.9157 151.312 49.7269 153.075 49.7269C155.196 49.7269 156.616 48.8065 157.162 47.6365C157.958 49.1341 159.393 49.5085 162.232 49.5085H169.814C172.076 49.5085 173.168 48.6817 173.651 47.4181C174.603 48.6661 175.82 49.5085 179.704 49.5085H193.775V30.4297H190.187ZM181.748 46.7005H179.688C176.88 46.7005 175.632 45.4525 175.632 42.9097C175.632 40.7881 176.818 39.2593 178.846 39.2593C180.656 39.2593 181.748 40.3981 181.748 43.0969V46.7005Z" fill="#00080C"/>
<path d="M198.081 30.4297H201.653V49.5085H198.081V30.4297Z" fill="#00080C"/>
<path d="M205.475 55.9667L205.693 53.0495C205.693 53.0495 207.799 53.5019 209.921 53.5019C212.729 53.5019 214.601 52.4411 214.601 49.8983V49.4927H212.464C207.207 49.4927 205.241 47.0591 205.241 43.2215C205.241 39.6803 207.441 36.4355 212.386 36.4355C215.599 36.4355 218.064 37.3871 218.064 37.3871V49.5707C218.064 53.2991 215.631 56.3411 209.593 56.3411C207.565 56.3255 205.475 55.9667 205.475 55.9667ZM214.601 39.7271C214.601 39.7271 213.571 39.2435 212.027 39.2435C209.999 39.2435 208.813 40.7879 208.813 42.8939C208.813 45.3587 210.03 46.6847 212.869 46.6847H214.601V39.7271Z" fill="#00080C"/>
<path d="M236.487 31.4297C235.52 31.4297 234.724 32.2409 234.724 33.1769C234.724 34.1285 235.489 34.9397 236.487 34.9397C237.47 34.9397 238.25 34.1285 238.25 33.1769C238.25 32.2097 237.439 31.4297 236.487 31.4297ZM232.15 31.4297C231.183 31.4297 230.403 32.2409 230.403 33.1769C230.403 34.1285 231.121 34.9397 232.15 34.9397C233.149 34.9397 233.913 34.1597 233.913 33.1769C233.913 32.1941 233.133 31.4297 232.15 31.4297Z" fill="#00080C"/>
<path d="M251.838 36.4355C247.142 36.4355 244.802 39.5867 244.802 43.0187C244.802 44.9375 245.317 46.1231 246.3 46.8719C246.175 46.8407 245.629 46.7003 244.802 46.7003H240.341V37.3871C240.341 37.3871 237.876 36.4355 234.662 36.4355C229.701 36.4355 227.517 39.6803 227.517 43.2371C227.517 47.0903 229.499 49.5083 234.74 49.5083H257.969V42.6599C257.953 38.8691 256.065 36.4355 251.838 36.4355ZM236.862 46.7003H235.13C232.291 46.7003 231.074 45.3743 231.074 42.9095C231.074 40.7879 232.26 39.2591 234.288 39.2591C235.832 39.2591 236.862 39.7427 236.862 39.7427V46.7003ZM254.459 46.7003H252.399C249.591 46.7003 248.343 45.4523 248.343 42.9095C248.343 40.7879 249.529 39.2591 251.557 39.2591C253.367 39.2591 254.459 40.3979 254.459 43.0967V46.7003Z" fill="#00080C"/>
<path d="M301.929 30.4286V46.6994H296.984V42.659C296.984 38.8838 295.096 36.4346 290.868 36.4346C286.173 36.4346 283.833 39.5858 283.833 43.0178C283.833 45.8102 282.788 46.6994 281.15 46.6994H279.746C279.48 41.5046 277.172 38.7902 273.755 37.2458L280.37 33.2678V29.7266L269.637 36.4346V39.0554C273.942 40.0538 276.111 42.4874 276.251 46.6994H266.907V36.7934H263.334V49.8038C263.334 52.721 262.242 53.5946 260.402 53.5946C259.544 53.5946 258.857 53.4542 258.202 53.267L257.937 56.1218C258.592 56.2778 259.372 56.387 260.199 56.387C265.69 56.387 266.891 53.0798 266.891 49.6166V49.5074H281.508C283.786 49.5074 284.862 48.6806 285.362 47.417C286.313 48.665 287.53 49.5074 291.414 49.5074H305.486V30.4286H301.929ZM293.489 46.6994H291.43C288.622 46.6994 287.374 45.4514 287.374 42.9086C287.374 40.787 288.575 39.2582 290.603 39.2582C292.413 39.2582 293.505 40.397 293.505 43.0958V46.6994H293.489Z" fill="#00080C"/>
<path d="M309.84 30.4297H313.412V49.5085H309.84V30.4297Z" fill="#00080C"/>
<path d="M421.238 86.2871H415.84V91.6847H421.238V86.2871Z" fill="#00080C"/>
<path d="M421.238 97.0664H415.84V102.464H421.238V97.0664Z" fill="#00080C"/>
<path d="M372.706 75.4922V97.0514H367.309V86.2718H340.352V102.449H410.443V86.2718H383.486V97.0514H378.088V80.8898H421.222V75.4922H372.706ZM361.927 97.067H345.75V91.685H361.927V97.067ZM388.884 91.6694H405.061V97.0514H388.884V91.6694Z" fill="#00080C"/>
<path d="M432.018 21.5762H426.621V26.9738H432.018V21.5762Z" fill="#00080C"/>
<path d="M442.813 21.5762H437.416V26.9738H442.813V21.5762Z" fill="#00080C"/>
<path d="M426.637 32.3558V59.3282H437.416V64.7102H421.239V21.5762H415.857V70.1078H437.416V75.4898H426.637V102.447H442.814V32.3558H426.637ZM437.416 97.0646H432.019V80.8874H437.416V97.0646ZM437.416 53.9306H432.019V37.7534H437.416V53.9306Z" fill="#00080C"/>
<path d="M367.325 10.7988H361.927V16.1964H367.325V10.7988Z" fill="#00080C"/>
<path d="M367.324 0.0175781H361.927V5.41518H367.324V0.0175781Z" fill="#00080C"/>
<path d="M372.706 0.0175781V16.1948H399.663V5.41518H405.061V21.5768H361.927V26.9744H410.443V5.41518H415.84V16.1948H442.797V0.0175781H372.706ZM394.281 10.7972H378.104V5.41518H394.281V10.7972ZM437.415 10.7972H421.238V5.41518H437.415V10.7972Z" fill="#00080C"/>
<path d="M356.545 75.4922H351.147V80.8898H356.545V75.4922Z" fill="#00080C"/>
<path d="M345.765 75.4922H340.367V80.8898H345.765V75.4922Z" fill="#00080C"/>
<path d="M345.75 32.3564V26.9744H356.529V0.0175781H340.352V70.1084H356.529V43.1516H345.75V37.7696H361.927V80.9036H367.309V32.3564H345.75ZM345.75 5.41518H351.147V21.5768H345.75V5.41518ZM351.147 48.5336V64.7108H345.75V48.5336H351.147Z" fill="#00080C"/>
<path d="M398.477 44.8686C399.007 45.9918 399.319 47.2398 399.444 48.4098C398.134 46.725 396.558 45.243 394.858 44.1198C394.998 44.307 395.139 44.5098 395.263 44.7126C396.652 46.9746 396.418 49.9542 395.607 52.3722C395.107 50.0946 394.234 47.8794 393.111 45.9762C392.845 45.5394 392.58 45.1182 392.284 44.697L392.689 54.8838C392.689 55.2426 392.268 55.8978 391.566 55.8978C390.864 55.8978 390.443 55.2582 390.443 54.8838L390.849 44.7126C390.552 45.1182 390.271 45.5394 390.022 45.9762C388.899 47.8794 388.025 50.0946 387.526 52.3722C386.73 49.9542 386.481 46.959 387.869 44.7126C387.994 44.5098 388.134 44.307 388.275 44.1198C386.59 45.243 384.999 46.725 383.688 48.4098C383.953 46.0698 384.905 43.4178 386.995 42.0918C387.697 41.655 388.446 41.3586 389.226 41.2026C389.226 41.1558 389.226 41.1714 389.226 41.1246C388.774 41.1558 388.337 41.187 387.885 41.265C385.935 41.5614 384.063 42.123 382.269 42.9654C383.579 40.9686 385.654 39.471 387.604 39.2058C387.916 39.159 388.243 39.1434 388.571 39.159C387.401 38.5662 386.122 38.067 384.811 37.7238C386.59 37.2402 388.524 37.3494 390.193 38.0826C390.677 36.0234 391.551 34.8066 391.551 34.8066C391.551 34.8066 392.424 36.0234 392.908 38.0826C394.577 37.3338 396.511 37.2402 398.29 37.7238C396.979 38.067 395.7 38.5662 394.53 39.159C394.858 39.1434 395.185 39.159 395.497 39.2058C396.48 39.3306 397.494 39.7674 398.415 40.4382C399.351 41.0934 400.193 41.967 400.848 42.9654C399.054 42.123 397.182 41.5614 395.232 41.265C394.78 41.2026 394.343 41.1558 393.891 41.1246C393.891 41.187 393.891 41.1558 393.891 41.2026C394.671 41.3586 395.419 41.655 396.121 42.0918C397.182 42.7626 397.947 43.7454 398.477 44.8686Z" fill="#88774F"/>
<path d="M410.442 51.9025C408.367 51.6685 406.183 52.1053 404.264 53.2753L393.313 59.9677L397.712 62.6509L398.321 61.6525C398.305 61.6525 398.29 61.6369 398.274 61.6369C397.79 61.3405 397.634 60.6853 397.931 60.2017C398.227 59.7181 398.867 59.5621 399.366 59.8585C399.85 60.1549 400.006 60.7945 399.709 61.2937L398.555 63.1813L399.132 63.5401L400.442 64.3357C400.879 64.6165 401.41 64.6321 401.846 64.4449C401.862 64.6789 401.831 64.9129 401.737 65.1313C401.706 65.2093 401.675 65.2873 401.612 65.3653C401.176 66.0985 400.208 66.3325 399.491 65.8801L397.603 64.7257L396.995 65.7241C397.01 65.7241 397.026 65.7397 397.042 65.7397C397.525 66.0361 397.681 66.6757 397.385 67.1749C397.088 67.6585 396.433 67.8301 395.95 67.5181C395.466 67.2061 395.31 66.5665 395.606 66.0829L396.761 64.1953L391.582 61.0285L386.402 64.1953L387.557 66.0829C387.853 66.5665 387.697 67.2217 387.214 67.5181C386.73 67.8145 386.09 67.6585 385.778 67.1749C385.482 66.6913 385.638 66.0517 386.122 65.7397C386.137 65.7397 386.153 65.7241 386.168 65.7085L385.56 64.7101L383.672 65.8645C382.939 66.3169 381.988 66.0829 381.535 65.3497C381.488 65.2717 381.457 65.1937 381.41 65.1157C381.332 64.8973 381.286 64.6477 381.301 64.4293C381.754 64.6165 382.268 64.6009 382.721 64.3201L384.031 63.5245L384.624 63.1657L383.47 61.2781C383.173 60.7945 383.329 60.1549 383.813 59.8429C384.296 59.5465 384.936 59.7025 385.248 60.1861C385.544 60.6697 385.388 61.3249 384.905 61.6213C384.889 61.6213 384.874 61.6369 384.858 61.6369L385.466 62.6353L389.866 59.9521L378.914 53.2597C376.996 52.0897 374.812 51.6529 372.737 51.8869C374.796 50.4829 377.588 50.3113 379.866 51.7153L391.613 58.8913L403.36 51.7153C405.59 50.3425 408.383 50.4985 410.442 51.9025Z" fill="#88774F"/>
</svg>
