<svg width="319" height="101" viewBox="0 0 319 101" fill="none" xmlns="http://www.w3.org/2000/svg">
<g clip-path="url(#clip0_556_270)">
<path d="M90.7302 69.07C90.6602 69.07 90.6102 69.03 90.5802 68.96L88.8102 65.3H88.6902H86.5202C86.4702 65.3 86.4502 65.32 86.4502 65.37V68.95C86.4502 69.03 86.4102 69.07 86.3202 69.07H85.8502C85.7702 69.07 85.7202 69.03 85.7202 68.95V60.75C85.7202 60.67 85.7602 60.63 85.8402 60.63H88.6802C89.4802 60.63 90.1202 60.84 90.5702 61.25C91.0302 61.66 91.2502 62.24 91.2502 62.96C91.2502 63.55 91.1002 64.03 90.8002 64.42C90.5002 64.81 90.0702 65.06 89.5302 65.2L91.3702 68.94C91.3902 68.98 91.4002 69.01 91.3902 69.04C91.3802 69.06 91.3502 69.08 91.3102 69.08H90.7302V69.07ZM88.6802 64.62C89.2802 64.62 89.7402 64.48 90.0702 64.19C90.3902 63.9 90.5502 63.49 90.5502 62.95C90.5502 62.42 90.3902 62.01 90.0702 61.72C89.7502 61.43 89.2902 61.29 88.6802 61.29H86.5302C86.4802 61.29 86.4602 61.31 86.4602 61.36V64.54C86.4602 64.59 86.4802 64.61 86.5302 64.61H88.6802V64.62Z" fill="#88774F"/>
<path d="M96.03 69.19C95.33 69.19 94.76 69.03 94.3 68.71C93.84 68.39 93.51 67.92 93.3 67.29C93.26 67.18 93.22 67.06 93.19 66.92C93.16 66.78 93.14 66.62 93.12 66.44C93.1 66.25 93.08 66.03 93.07 65.78C93.06 65.52 93.05 65.21 93.05 64.85C93.05 64.49 93.06 64.18 93.07 63.92C93.08 63.66 93.1 63.44 93.12 63.26C93.14 63.07 93.17 62.91 93.19 62.78C93.22 62.65 93.25 62.52 93.3 62.41C93.51 61.79 93.84 61.32 94.3 60.99C94.76 60.67 95.34 60.51 96.03 60.51C96.72 60.51 97.29 60.67 97.75 60.99C98.21 61.31 98.54 61.78 98.75 62.41C98.78 62.53 98.82 62.65 98.85 62.78C98.88 62.91 98.91 63.07 98.93 63.26C98.95 63.45 98.97 63.67 98.98 63.92C99 64.17 99 64.48 99 64.84C99 65.2 98.99 65.52 98.98 65.77C98.97 66.03 98.95 66.25 98.93 66.43C98.91 66.62 98.88 66.78 98.85 66.91C98.82 67.05 98.78 67.17 98.75 67.28C98.54 67.9 98.21 68.37 97.75 68.7C97.29 69.03 96.72 69.19 96.03 69.19ZM98.28 64.84C98.28 64.5 98.27 64.21 98.26 63.96C98.25 63.71 98.23 63.5 98.22 63.33C98.2 63.16 98.18 63.01 98.15 62.9C98.12 62.78 98.09 62.68 98.07 62.6C97.76 61.65 97.08 61.17 96.03 61.17C94.98 61.17 94.3 61.65 93.98 62.6C93.96 62.68 93.93 62.78 93.9 62.9C93.87 63.02 93.85 63.16 93.83 63.33C93.81 63.5 93.8 63.71 93.79 63.96C93.78 64.21 93.77 64.5 93.77 64.84C93.77 65.18 93.78 65.47 93.79 65.72C93.8 65.97 93.82 66.18 93.83 66.35C93.85 66.52 93.87 66.67 93.9 66.78C93.93 66.9 93.96 67 93.98 67.08C94.29 68.03 94.98 68.51 96.03 68.51C97.07 68.51 97.75 68.03 98.07 67.08C98.09 67 98.12 66.9 98.15 66.78C98.18 66.66 98.2 66.52 98.22 66.35C98.24 66.18 98.25 65.97 98.26 65.72C98.27 65.47 98.28 65.18 98.28 64.84Z" fill="#88774F"/>
<path d="M102.7 69.07C102.62 69.07 102.57 69.03 102.57 68.95V65.6L100.04 60.76C100.02 60.73 100.03 60.7 100.05 60.67C100.07 60.64 100.1 60.63 100.14 60.63H100.62C100.7 60.63 100.76 60.67 100.81 60.75L102.94 64.79H102.98L105.07 60.75C105.11 60.67 105.17 60.63 105.26 60.63H105.73C105.78 60.63 105.81 60.64 105.83 60.67C105.85 60.7 105.85 60.73 105.83 60.76L103.3 65.6V68.94C103.3 69.02 103.26 69.06 103.17 69.06H102.7V69.07Z" fill="#88774F"/>
<path d="M108.78 60.74C108.8 60.66 108.85 60.62 108.93 60.62H109.38C109.45 60.62 109.5 60.66 109.53 60.74L112.46 68.94C112.48 69.02 112.46 69.06 112.37 69.06H111.89C111.8 69.06 111.74 69.02 111.73 68.94L110.98 66.87H107.3L106.55 68.94C106.52 69.02 106.46 69.06 106.39 69.06H105.91C105.83 69.06 105.8 69.02 105.82 68.94L108.78 60.74ZM110.74 66.17L109.16 61.76H109.12L107.53 66.17H110.74Z" fill="#88774F"/>
<path d="M114.18 60.74C114.18 60.66 114.22 60.62 114.31 60.62H114.78C114.86 60.62 114.91 60.66 114.91 60.74V68.32C114.91 68.37 114.93 68.39 114.98 68.39H119.15C119.23 68.39 119.27 68.43 119.27 68.51V68.93C119.27 69.01 119.23 69.05 119.15 69.05H114.31C114.23 69.05 114.18 69.01 114.18 68.93V60.74Z" fill="#88774F"/>
<path d="M124.1 67.3C124.07 67.19 124.04 67.07 124.01 66.95C123.98 66.82 123.96 66.66 123.94 66.47C123.92 66.28 123.91 66.05 123.9 65.79C123.89 65.53 123.88 65.21 123.88 64.84C123.88 64.47 123.89 64.15 123.9 63.89C123.91 63.63 123.93 63.4 123.94 63.21C123.96 63.02 123.98 62.86 124.01 62.73C124.04 62.6 124.07 62.48 124.1 62.38C124.32 61.74 124.65 61.27 125.09 60.96C125.54 60.65 126.1 60.49 126.77 60.49C127.35 60.49 127.86 60.62 128.3 60.88C128.74 61.14 129.08 61.53 129.32 62.05C129.35 62.12 129.34 62.18 129.28 62.21L128.87 62.41C128.8 62.45 128.75 62.43 128.71 62.36C128.52 62 128.27 61.7 127.96 61.48C127.65 61.26 127.25 61.15 126.77 61.15C126.25 61.15 125.83 61.27 125.51 61.5C125.19 61.74 124.95 62.09 124.78 62.55C124.76 62.63 124.73 62.73 124.71 62.85C124.69 62.97 124.66 63.11 124.65 63.28C124.64 63.45 124.62 63.66 124.61 63.91C124.6 64.16 124.6 64.46 124.6 64.82C124.6 65.18 124.6 65.48 124.61 65.73C124.62 65.98 124.63 66.19 124.65 66.36C124.67 66.53 124.69 66.68 124.71 66.79C124.73 66.91 124.76 67.01 124.78 67.09C124.95 67.55 125.19 67.9 125.51 68.14C125.83 68.38 126.25 68.49 126.77 68.49C127.25 68.49 127.65 68.38 127.96 68.16C128.27 67.94 128.52 67.65 128.71 67.28C128.75 67.21 128.8 67.19 128.87 67.23L129.28 67.43C129.34 67.46 129.35 67.52 129.32 67.59C129.08 68.11 128.74 68.5 128.3 68.76C127.86 69.02 127.35 69.15 126.77 69.15C126.1 69.15 125.54 68.99 125.09 68.68C124.65 68.41 124.32 67.94 124.1 67.3Z" fill="#88774F"/>
<path d="M133.85 69.19C133.15 69.19 132.58 69.03 132.12 68.71C131.66 68.39 131.33 67.92 131.12 67.29C131.08 67.18 131.04 67.06 131.01 66.92C130.98 66.78 130.96 66.62 130.94 66.44C130.92 66.25 130.9 66.03 130.89 65.78C130.88 65.52 130.87 65.21 130.87 64.85C130.87 64.49 130.88 64.18 130.89 63.92C130.9 63.66 130.92 63.44 130.94 63.26C130.96 63.07 130.99 62.91 131.01 62.78C131.04 62.65 131.07 62.52 131.12 62.41C131.33 61.79 131.66 61.32 132.12 60.99C132.58 60.67 133.16 60.51 133.85 60.51C134.54 60.51 135.11 60.67 135.57 60.99C136.03 61.31 136.36 61.78 136.57 62.41C136.6 62.53 136.64 62.65 136.67 62.78C136.7 62.91 136.73 63.07 136.75 63.26C136.77 63.45 136.79 63.67 136.8 63.92C136.81 64.18 136.82 64.49 136.82 64.85C136.82 65.21 136.81 65.53 136.8 65.78C136.79 66.04 136.77 66.26 136.75 66.44C136.73 66.63 136.7 66.79 136.67 66.92C136.64 67.05 136.6 67.18 136.57 67.29C136.36 67.91 136.03 68.38 135.57 68.71C135.11 69.03 134.54 69.19 133.85 69.19ZM136.1 64.84C136.1 64.5 136.09 64.21 136.08 63.96C136.07 63.71 136.05 63.5 136.04 63.33C136.02 63.16 136 63.01 135.97 62.9C135.94 62.78 135.91 62.68 135.89 62.6C135.58 61.65 134.9 61.17 133.85 61.17C132.8 61.17 132.12 61.65 131.8 62.6C131.78 62.68 131.75 62.78 131.72 62.9C131.69 63.02 131.67 63.16 131.65 63.33C131.63 63.5 131.62 63.71 131.61 63.96C131.6 64.21 131.59 64.5 131.59 64.84C131.59 65.18 131.6 65.47 131.61 65.72C131.62 65.97 131.64 66.18 131.65 66.35C131.67 66.52 131.69 66.67 131.72 66.78C131.75 66.9 131.78 67 131.8 67.08C132.11 68.03 132.8 68.51 133.85 68.51C134.89 68.51 135.57 68.03 135.89 67.08C135.91 67 135.94 66.9 135.97 66.78C136 66.66 136.02 66.52 136.04 66.35C136.06 66.18 136.07 65.97 136.08 65.72C136.09 65.48 136.1 65.18 136.1 64.84Z" fill="#88774F"/>
<path d="M138.86 60.74C138.86 60.66 138.9 60.62 138.99 60.62H139.47C139.56 60.62 139.63 60.66 139.66 60.74L142.4 66.79H142.45L145.13 60.74C145.16 60.66 145.22 60.62 145.31 60.62H145.8C145.88 60.62 145.93 60.66 145.93 60.74V68.94C145.93 69.02 145.89 69.06 145.8 69.06H145.33C145.25 69.06 145.2 69.02 145.2 68.94V62.33H145.16L142.73 67.68C142.71 67.73 142.68 67.76 142.65 67.79C142.62 67.81 142.57 67.82 142.51 67.82H142.26C142.16 67.82 142.09 67.77 142.05 67.68L139.62 62.33H139.58V68.94C139.58 69.02 139.54 69.06 139.45 69.06H138.98C138.9 69.06 138.85 69.02 138.85 68.94V60.74H138.86Z" fill="#88774F"/>
<path d="M148.22 60.74C148.22 60.66 148.26 60.62 148.35 60.62H148.83C148.92 60.62 148.99 60.66 149.02 60.74L151.76 66.79H151.81L154.49 60.74C154.52 60.66 154.58 60.62 154.67 60.62H155.16C155.24 60.62 155.29 60.66 155.29 60.74V68.94C155.29 69.02 155.25 69.06 155.16 69.06H154.69C154.61 69.06 154.56 69.02 154.56 68.94V62.33H154.52L152.09 67.68C152.07 67.73 152.04 67.76 152.01 67.79C151.98 67.81 151.93 67.82 151.87 67.82H151.62C151.52 67.82 151.45 67.77 151.41 67.68L148.98 62.33H148.94V68.94C148.94 69.02 148.9 69.06 148.81 69.06H148.34C148.26 69.06 148.21 69.02 148.21 68.94V60.74H148.22Z" fill="#88774F"/>
<path d="M157.57 60.74C157.57 60.66 157.61 60.62 157.7 60.62H158.17C158.25 60.62 158.3 60.66 158.3 60.74V68.94C158.3 69.02 158.26 69.06 158.17 69.06H157.7C157.62 69.06 157.57 69.02 157.57 68.94V60.74Z" fill="#88774F"/>
<path d="M163.05 69.19C162.78 69.19 162.5 69.16 162.23 69.11C161.96 69.06 161.7 68.98 161.45 68.89C161.21 68.8 160.98 68.69 160.78 68.57C160.58 68.45 160.4 68.33 160.25 68.2C160.18 68.14 160.18 68.08 160.24 68.03L160.54 67.66C160.6 67.59 160.66 67.59 160.71 67.65C160.99 67.87 161.34 68.06 161.76 68.25C162.18 68.43 162.64 68.52 163.13 68.52C163.81 68.52 164.34 68.36 164.73 68.05C165.12 67.74 165.31 67.32 165.31 66.8C165.31 66.59 165.28 66.4 165.21 66.22C165.14 66.04 165.03 65.88 164.88 65.74C164.73 65.6 164.52 65.48 164.26 65.38C164 65.28 163.67 65.21 163.29 65.16L162.9 65.11C162.07 65 161.46 64.76 161.06 64.38C160.66 64 160.46 63.5 160.46 62.88C160.46 62.14 160.7 61.56 161.18 61.14C161.66 60.72 162.31 60.51 163.12 60.51C163.59 60.51 164.04 60.57 164.46 60.7C164.88 60.83 165.24 61 165.53 61.22C165.6 61.26 165.61 61.32 165.55 61.39L165.3 61.77C165.25 61.83 165.19 61.84 165.13 61.79C164.79 61.58 164.46 61.43 164.13 61.32C163.8 61.22 163.45 61.16 163.09 61.16C162.49 61.16 162.02 61.31 161.68 61.61C161.35 61.91 161.18 62.31 161.18 62.81C161.18 63.24 161.33 63.59 161.63 63.87C161.93 64.14 162.44 64.33 163.16 64.42L163.54 64.47C164.4 64.59 165.03 64.84 165.42 65.22C165.81 65.61 166.01 66.11 166.01 66.74C166.01 67.1 165.95 67.42 165.82 67.72C165.69 68.02 165.5 68.28 165.25 68.5C165 68.72 164.69 68.89 164.32 69.01C163.95 69.13 163.54 69.19 163.05 69.19Z" fill="#88774F"/>
<path d="M170.49 69.19C170.22 69.19 169.94 69.16 169.67 69.11C169.4 69.06 169.14 68.98 168.89 68.89C168.65 68.8 168.42 68.69 168.22 68.57C168.02 68.45 167.84 68.33 167.69 68.2C167.62 68.14 167.62 68.08 167.68 68.03L167.98 67.66C168.04 67.59 168.1 67.59 168.15 67.65C168.43 67.87 168.78 68.06 169.2 68.25C169.62 68.43 170.08 68.52 170.57 68.52C171.25 68.52 171.78 68.36 172.17 68.05C172.56 67.74 172.75 67.32 172.75 66.8C172.75 66.59 172.72 66.4 172.65 66.22C172.58 66.04 172.47 65.88 172.32 65.74C172.17 65.6 171.96 65.48 171.7 65.38C171.44 65.28 171.11 65.21 170.73 65.16L170.34 65.11C169.51 65 168.9 64.76 168.5 64.38C168.1 64 167.9 63.5 167.9 62.88C167.9 62.14 168.14 61.56 168.62 61.14C169.1 60.72 169.75 60.51 170.56 60.51C171.03 60.51 171.48 60.57 171.9 60.7C172.32 60.83 172.68 61 172.97 61.22C173.04 61.26 173.05 61.32 172.99 61.39L172.74 61.77C172.69 61.83 172.63 61.84 172.57 61.79C172.23 61.58 171.9 61.43 171.57 61.32C171.24 61.22 170.89 61.16 170.53 61.16C169.93 61.16 169.46 61.31 169.12 61.61C168.79 61.91 168.62 62.31 168.62 62.81C168.62 63.24 168.77 63.59 169.07 63.87C169.37 64.14 169.88 64.33 170.6 64.42L170.98 64.47C171.84 64.59 172.47 64.84 172.86 65.22C173.25 65.61 173.45 66.11 173.45 66.74C173.45 67.1 173.39 67.42 173.26 67.72C173.13 68.02 172.94 68.28 172.69 68.5C172.44 68.72 172.13 68.89 171.76 69.01C171.39 69.13 170.98 69.19 170.49 69.19Z" fill="#88774F"/>
<path d="M175.4 60.74C175.4 60.66 175.44 60.62 175.53 60.62H176C176.08 60.62 176.13 60.66 176.13 60.74V68.94C176.13 69.02 176.09 69.06 176 69.06H175.53C175.45 69.06 175.4 69.02 175.4 68.94V60.74Z" fill="#88774F"/>
<path d="M181.13 69.19C180.43 69.19 179.86 69.03 179.4 68.71C178.94 68.39 178.61 67.92 178.4 67.29C178.36 67.18 178.32 67.06 178.29 66.92C178.26 66.78 178.24 66.62 178.22 66.44C178.2 66.25 178.18 66.03 178.17 65.78C178.16 65.52 178.15 65.21 178.15 64.85C178.15 64.49 178.16 64.18 178.17 63.92C178.18 63.66 178.2 63.44 178.22 63.26C178.24 63.07 178.27 62.91 178.29 62.78C178.32 62.65 178.35 62.52 178.4 62.41C178.61 61.79 178.94 61.32 179.4 60.99C179.86 60.67 180.44 60.51 181.13 60.51C181.82 60.51 182.39 60.67 182.85 60.99C183.31 61.31 183.64 61.78 183.85 62.41C183.88 62.53 183.92 62.65 183.95 62.78C183.98 62.91 184.01 63.07 184.03 63.26C184.05 63.45 184.07 63.67 184.08 63.92C184.09 64.18 184.1 64.49 184.1 64.85C184.1 65.21 184.09 65.53 184.08 65.78C184.07 66.04 184.05 66.26 184.03 66.44C184.01 66.63 183.98 66.79 183.95 66.92C183.92 67.06 183.88 67.18 183.85 67.29C183.64 67.91 183.31 68.38 182.85 68.71C182.39 69.03 181.82 69.19 181.13 69.19ZM183.38 64.84C183.38 64.5 183.37 64.21 183.36 63.96C183.35 63.71 183.33 63.5 183.32 63.33C183.3 63.16 183.28 63.01 183.25 62.9C183.22 62.78 183.19 62.68 183.17 62.6C182.86 61.65 182.18 61.17 181.13 61.17C180.08 61.17 179.39 61.65 179.08 62.6C179.06 62.68 179.03 62.78 179 62.9C178.97 63.02 178.95 63.16 178.93 63.33C178.91 63.5 178.9 63.71 178.89 63.96C178.88 64.21 178.87 64.5 178.87 64.84C178.87 65.18 178.88 65.47 178.89 65.72C178.9 65.97 178.92 66.18 178.93 66.35C178.95 66.52 178.97 66.67 179 66.78C179.03 66.9 179.06 67 179.08 67.08C179.39 68.03 180.08 68.51 181.13 68.51C182.17 68.51 182.85 68.03 183.17 67.08C183.19 67 183.22 66.9 183.25 66.78C183.28 66.66 183.3 66.52 183.32 66.35C183.34 66.18 183.35 65.97 183.36 65.72C183.37 65.48 183.38 65.18 183.38 64.84Z" fill="#88774F"/>
<path d="M186.14 60.74C186.14 60.66 186.18 60.62 186.27 60.62H186.74C186.84 60.62 186.91 60.66 186.95 60.74L191.15 67.68H191.19V60.74C191.19 60.66 191.23 60.62 191.32 60.62H191.79C191.87 60.62 191.92 60.66 191.92 60.74V68.94C191.92 69.02 191.88 69.06 191.8 69.06H191.32C191.23 69.06 191.16 69.02 191.11 68.94L186.94 61.98H186.89V68.94C186.89 69.02 186.85 69.06 186.76 69.06H186.29C186.21 69.06 186.16 69.02 186.16 68.94V60.74H186.14Z" fill="#88774F"/>
<path d="M197.7 60.74C197.7 60.66 197.74 60.62 197.83 60.62H202.67C202.75 60.62 202.79 60.66 202.79 60.74V61.16C202.79 61.24 202.75 61.28 202.67 61.28H198.5C198.45 61.28 198.43 61.3 198.43 61.35V64.44C198.43 64.49 198.45 64.51 198.5 64.51H202.09C202.17 64.51 202.21 64.55 202.21 64.63V65.05C202.21 65.13 202.17 65.17 202.09 65.17H198.5C198.45 65.17 198.43 65.19 198.43 65.24V68.9C198.43 68.98 198.39 69.02 198.3 69.02H197.83C197.75 69.02 197.7 68.98 197.7 68.9V60.74Z" fill="#88774F"/>
<path d="M207.12 69.19C206.42 69.19 205.85 69.03 205.39 68.71C204.93 68.39 204.6 67.92 204.39 67.29C204.35 67.18 204.31 67.06 204.28 66.92C204.25 66.78 204.23 66.62 204.21 66.44C204.19 66.25 204.17 66.03 204.16 65.78C204.15 65.52 204.14 65.21 204.14 64.85C204.14 64.49 204.15 64.18 204.16 63.92C204.17 63.66 204.19 63.44 204.21 63.26C204.23 63.07 204.26 62.91 204.28 62.78C204.31 62.65 204.34 62.52 204.39 62.41C204.6 61.79 204.93 61.32 205.39 60.99C205.85 60.67 206.43 60.51 207.12 60.51C207.81 60.51 208.38 60.67 208.84 60.99C209.3 61.31 209.63 61.78 209.84 62.41C209.87 62.53 209.91 62.65 209.94 62.78C209.97 62.91 210 63.07 210.02 63.26C210.04 63.45 210.06 63.67 210.07 63.92C210.08 64.18 210.09 64.49 210.09 64.85C210.09 65.21 210.08 65.53 210.07 65.78C210.06 66.04 210.04 66.26 210.02 66.44C210 66.63 209.97 66.79 209.94 66.92C209.91 67.06 209.87 67.18 209.84 67.29C209.63 67.91 209.3 68.38 208.84 68.71C208.38 69.03 207.81 69.19 207.12 69.19ZM209.37 64.84C209.37 64.5 209.36 64.21 209.35 63.96C209.34 63.71 209.32 63.5 209.31 63.33C209.29 63.16 209.27 63.01 209.24 62.9C209.21 62.78 209.18 62.68 209.16 62.6C208.85 61.65 208.17 61.17 207.12 61.17C206.07 61.17 205.38 61.65 205.07 62.6C205.05 62.68 205.02 62.78 204.99 62.9C204.96 63.02 204.94 63.16 204.92 63.33C204.9 63.5 204.89 63.71 204.88 63.96C204.87 64.21 204.86 64.5 204.86 64.84C204.86 65.18 204.87 65.47 204.88 65.72C204.89 65.97 204.91 66.18 204.92 66.35C204.94 66.52 204.96 66.67 204.99 66.78C205.02 66.9 205.05 67 205.07 67.08C205.38 68.03 206.07 68.51 207.12 68.51C208.16 68.51 208.84 68.03 209.16 67.08C209.18 67 209.21 66.9 209.24 66.78C209.27 66.66 209.29 66.52 209.31 66.35C209.33 66.18 209.34 65.97 209.35 65.72C209.36 65.48 209.37 65.18 209.37 64.84Z" fill="#88774F"/>
<path d="M217.13 69.07C217.06 69.07 217.01 69.03 216.98 68.96L215.21 65.3H215.09H212.92C212.87 65.3 212.85 65.32 212.85 65.37V68.95C212.85 69.03 212.81 69.07 212.72 69.07H212.25C212.17 69.07 212.12 69.03 212.12 68.95V60.75C212.12 60.67 212.16 60.63 212.24 60.63H215.08C215.88 60.63 216.52 60.84 216.97 61.25C217.43 61.66 217.65 62.24 217.65 62.96C217.65 63.55 217.5 64.03 217.2 64.42C216.9 64.81 216.47 65.06 215.93 65.2L217.77 68.94C217.79 68.98 217.8 69.01 217.79 69.04C217.78 69.06 217.75 69.08 217.71 69.08H217.13V69.07ZM215.07 64.62C215.67 64.62 216.13 64.48 216.46 64.19C216.78 63.9 216.94 63.49 216.94 62.95C216.94 62.42 216.78 62.01 216.46 61.72C216.14 61.43 215.68 61.29 215.07 61.29H212.92C212.87 61.29 212.85 61.31 212.85 61.36V64.54C212.85 64.59 212.87 64.61 212.92 64.61H215.07V64.62Z" fill="#88774F"/>
<path d="M50.4001 74.61C50.4001 74.53 50.4401 74.49 50.5301 74.49H51.0101C51.1001 74.49 51.1701 74.53 51.2001 74.61L53.9401 80.66H53.9901L56.6701 74.61C56.7001 74.53 56.7601 74.49 56.8501 74.49H57.3401C57.4201 74.49 57.4701 74.53 57.4701 74.61V82.81C57.4701 82.89 57.4301 82.93 57.3401 82.93H56.8701C56.7901 82.93 56.7401 82.89 56.7401 82.81V76.2H56.7001L54.2701 81.55C54.2501 81.6 54.2201 81.63 54.1901 81.66C54.1601 81.68 54.1101 81.69 54.0501 81.69H53.8001C53.7001 81.69 53.6301 81.64 53.5901 81.55L51.1601 76.2H51.1201V82.81C51.1201 82.89 51.0801 82.93 50.9901 82.93H50.5201C50.4401 82.93 50.3901 82.89 50.3901 82.81V74.61H50.4001Z" fill="#88774F"/>
<path d="M62.1401 74.61C62.1601 74.53 62.2101 74.49 62.2901 74.49H62.7401C62.8101 74.49 62.8601 74.53 62.8901 74.61L65.8201 82.81C65.8401 82.89 65.8201 82.93 65.7301 82.93H65.2501C65.1601 82.93 65.1001 82.89 65.0901 82.81L64.3401 80.74H60.6601L59.9101 82.81C59.8801 82.89 59.8201 82.93 59.7501 82.93H59.2701C59.1901 82.93 59.1601 82.89 59.1801 82.81L62.1401 74.61ZM64.1001 80.04L62.5201 75.63H62.4801L60.8901 80.04H64.1001Z" fill="#88774F"/>
<path d="M67.5303 74.61C67.5303 74.53 67.5703 74.49 67.6603 74.49H68.1302C68.2102 74.49 68.2603 74.53 68.2603 74.61V79.48L72.2803 74.6C72.3503 74.53 72.4202 74.49 72.4902 74.49H73.0703C73.1103 74.49 73.1403 74.5 73.1503 74.53C73.1603 74.56 73.1503 74.59 73.1203 74.62L70.4502 77.81L73.3303 82.79C73.3503 82.83 73.3603 82.86 73.3503 82.89C73.3403 82.91 73.3102 82.93 73.2702 82.93H72.7103C72.6403 82.93 72.5702 82.89 72.5202 82.82L69.9703 78.39L68.2402 80.45V82.81C68.2402 82.89 68.2003 82.93 68.1103 82.93H67.6403C67.5603 82.93 67.5103 82.89 67.5103 82.81V74.61H67.5303Z" fill="#88774F"/>
<path d="M75.1001 74.61C75.1001 74.53 75.1401 74.49 75.2301 74.49H75.7001C75.7801 74.49 75.8301 74.53 75.8301 74.61V79.48L79.8501 74.6C79.9201 74.53 79.9901 74.49 80.0601 74.49H80.6401C80.6801 74.49 80.7101 74.5 80.7201 74.53C80.7301 74.56 80.7201 74.59 80.6901 74.62L78.0201 77.81L80.9001 82.79C80.9201 82.83 80.9301 82.86 80.9201 82.89C80.9101 82.91 80.8801 82.93 80.8401 82.93H80.2801C80.2101 82.93 80.1401 82.89 80.0901 82.82L77.5401 78.39L75.8101 80.45V82.81C75.8101 82.89 75.7701 82.93 75.6801 82.93H75.2101C75.1301 82.93 75.0801 82.89 75.0801 82.81V74.61H75.1001Z" fill="#88774F"/>
<path d="M85.2502 74.61C85.2702 74.53 85.3202 74.49 85.4002 74.49H85.8502C85.9202 74.49 85.9702 74.53 86.0002 74.61L88.9302 82.81C88.9502 82.89 88.9302 82.93 88.8402 82.93H88.3602C88.2702 82.93 88.2102 82.89 88.2002 82.81L87.4502 80.74H83.7702L83.0202 82.81C82.9902 82.89 82.9302 82.93 82.8602 82.93H82.3802C82.3002 82.93 82.2702 82.89 82.2902 82.81L85.2502 74.61ZM87.2102 80.04L85.6302 75.63H85.5902L84.0002 80.04H87.2102Z" fill="#88774F"/>
<path d="M90.6501 74.61C90.6501 74.53 90.6901 74.49 90.7801 74.49H91.2501C91.3301 74.49 91.3801 74.53 91.3801 74.61V78.24C91.3801 78.29 91.4001 78.31 91.4501 78.31H95.6101C95.6601 78.31 95.6801 78.29 95.6801 78.24V74.61C95.6801 74.53 95.7201 74.49 95.8101 74.49H96.2801C96.3601 74.49 96.4101 74.53 96.4101 74.61V82.81C96.4101 82.89 96.3701 82.93 96.2801 82.93H95.8001C95.7201 82.93 95.6701 82.89 95.6701 82.81V79.06C95.6701 79.01 95.6501 78.99 95.6001 78.99H91.4401C91.3901 78.99 91.3701 79.01 91.3701 79.06V82.81C91.3701 82.89 91.3301 82.93 91.2401 82.93H90.7701C90.6901 82.93 90.6401 82.89 90.6401 82.81V74.61H90.6501Z" fill="#88774F"/>
<path d="M102.06 81.17C102.03 81.06 102 80.94 101.97 80.82C101.94 80.69 101.92 80.53 101.9 80.34C101.88 80.15 101.87 79.92 101.86 79.66C101.85 79.4 101.84 79.08 101.84 78.71C101.84 78.34 101.85 78.02 101.86 77.76C101.87 77.5 101.89 77.27 101.9 77.08C101.92 76.89 101.94 76.73 101.97 76.6C102 76.47 102.03 76.35 102.06 76.25C102.28 75.61 102.61 75.14 103.05 74.83C103.5 74.52 104.06 74.36 104.73 74.36C105.31 74.36 105.82 74.49 106.26 74.75C106.7 75.01 107.04 75.4 107.28 75.92C107.31 75.99 107.3 76.05 107.24 76.08L106.83 76.28C106.76 76.32 106.71 76.3 106.67 76.23C106.48 75.87 106.23 75.57 105.92 75.35C105.61 75.13 105.21 75.02 104.73 75.02C104.21 75.02 103.79 75.14 103.47 75.37C103.15 75.61 102.91 75.96 102.74 76.42C102.72 76.5 102.69 76.6 102.67 76.72C102.65 76.84 102.62 76.98 102.61 77.15C102.59 77.32 102.58 77.53 102.57 77.78C102.56 78.03 102.56 78.33 102.56 78.69C102.56 79.05 102.56 79.35 102.57 79.6C102.58 79.85 102.59 80.06 102.61 80.23C102.63 80.4 102.65 80.55 102.67 80.66C102.69 80.78 102.72 80.88 102.74 80.96C102.91 81.42 103.15 81.77 103.47 82.01C103.79 82.25 104.21 82.36 104.73 82.36C105.21 82.36 105.61 82.25 105.92 82.03C106.23 81.81 106.48 81.52 106.67 81.15C106.71 81.08 106.76 81.06 106.83 81.1L107.24 81.3C107.3 81.33 107.31 81.39 107.28 81.46C107.04 81.98 106.7 82.37 106.26 82.63C105.82 82.89 105.31 83.02 104.73 83.02C104.06 83.02 103.5 82.86 103.05 82.55C102.61 82.28 102.28 81.81 102.06 81.17Z" fill="#88774F"/>
<path d="M109.14 74.61C109.14 74.53 109.18 74.49 109.27 74.49H109.74C109.82 74.49 109.87 74.53 109.87 74.61V82.81C109.87 82.89 109.83 82.93 109.74 82.93H109.27C109.19 82.93 109.14 82.89 109.14 82.81V74.61Z" fill="#88774F"/>
<path d="M114.28 82.93C114.2 82.93 114.15 82.89 114.15 82.81V75.23C114.15 75.18 114.13 75.16 114.08 75.16H111.65C111.57 75.16 111.53 75.12 111.53 75.04V74.62C111.53 74.54 111.57 74.5 111.65 74.5H117.39C117.47 74.5 117.51 74.54 117.51 74.62V75.04C117.51 75.12 117.47 75.16 117.39 75.16H114.96C114.91 75.16 114.89 75.18 114.89 75.23V82.81C114.89 82.89 114.85 82.93 114.76 82.93H114.28Z" fill="#88774F"/>
<path d="M121.41 82.93C121.33 82.93 121.28 82.89 121.28 82.81V79.47L118.75 74.63C118.73 74.6 118.74 74.57 118.76 74.54C118.78 74.51 118.81 74.5 118.85 74.5H119.33C119.41 74.5 119.47 74.54 119.52 74.62L121.65 78.66H121.69L123.78 74.62C123.82 74.54 123.88 74.5 123.97 74.5H124.44C124.49 74.5 124.52 74.51 124.54 74.54C124.56 74.57 124.56 74.6 124.54 74.63L122.01 79.47V82.81C122.01 82.89 121.97 82.93 121.88 82.93H121.41Z" fill="#88774F"/>
<path d="M131.66 74.61C131.68 74.53 131.73 74.49 131.81 74.49H132.26C132.33 74.49 132.38 74.53 132.41 74.61L135.34 82.81C135.36 82.89 135.34 82.93 135.25 82.93H134.77C134.68 82.93 134.62 82.89 134.61 82.81L133.86 80.74H130.18L129.43 82.81C129.4 82.89 129.34 82.93 129.27 82.93H128.79C128.71 82.93 128.68 82.89 128.7 82.81L131.66 74.61ZM133.62 80.04L132.04 75.63H132L130.41 80.04H133.62Z" fill="#88774F"/>
<path d="M137.06 74.61C137.06 74.53 137.1 74.49 137.19 74.49H137.66C137.76 74.49 137.83 74.53 137.87 74.61L142.07 81.55H142.11V74.61C142.11 74.53 142.15 74.49 142.24 74.49H142.71C142.79 74.49 142.84 74.53 142.84 74.61V82.81C142.84 82.89 142.8 82.93 142.72 82.93H142.24C142.15 82.93 142.08 82.89 142.03 82.81L137.86 75.85H137.81V82.81C137.81 82.89 137.77 82.93 137.68 82.93H137.21C137.13 82.93 137.08 82.89 137.08 82.81V74.61H137.06Z" fill="#88774F"/>
<path d="M145.12 74.61C145.12 74.53 145.16 74.49 145.24 74.49H147.89C149.31 74.49 150.21 75.06 150.59 76.2C150.63 76.32 150.67 76.45 150.7 76.58C150.73 76.71 150.75 76.87 150.77 77.06C150.79 77.25 150.81 77.47 150.81 77.74C150.82 78.01 150.82 78.33 150.82 78.71C150.82 79.1 150.82 79.42 150.81 79.69C150.8 79.95 150.79 80.17 150.77 80.36C150.75 80.55 150.72 80.71 150.7 80.84C150.67 80.97 150.64 81.1 150.59 81.23C150.22 82.37 149.32 82.94 147.89 82.94H145.24C145.16 82.94 145.12 82.9 145.12 82.82V74.61ZM145.84 82.19C145.84 82.24 145.86 82.26 145.91 82.26H147.79C148.34 82.26 148.78 82.16 149.14 81.96C149.49 81.76 149.75 81.43 149.9 80.98C149.93 80.88 149.96 80.77 149.99 80.66C150.01 80.54 150.04 80.4 150.05 80.23C150.07 80.06 150.08 79.85 150.09 79.61C150.1 79.37 150.1 79.07 150.1 78.71C150.1 78.35 150.1 78.05 150.09 77.81C150.08 77.57 150.07 77.36 150.05 77.19C150.03 77.02 150.01 76.88 149.99 76.76C149.97 76.64 149.94 76.54 149.9 76.44C149.75 75.99 149.5 75.67 149.14 75.47C148.79 75.27 148.34 75.17 147.79 75.17H145.91C145.86 75.17 145.84 75.19 145.84 75.24V82.19Z" fill="#88774F"/>
<path d="M156.3 74.61C156.3 74.53 156.34 74.49 156.43 74.49H156.9C156.98 74.49 157.03 74.53 157.03 74.61V78.24C157.03 78.29 157.05 78.31 157.1 78.31H161.26C161.31 78.31 161.33 78.29 161.33 78.24V74.61C161.33 74.53 161.37 74.49 161.46 74.49H161.93C162.01 74.49 162.06 74.53 162.06 74.61V82.81C162.06 82.89 162.02 82.93 161.93 82.93H161.46C161.38 82.93 161.33 82.89 161.33 82.81V79.06C161.33 79.01 161.31 78.99 161.26 78.99H157.1C157.05 78.99 157.03 79.01 157.03 79.06V82.81C157.03 82.89 156.99 82.93 156.9 82.93H156.43C156.35 82.93 156.3 82.89 156.3 82.81V74.61Z" fill="#88774F"/>
<path d="M167.06 83.06C166.36 83.06 165.79 82.9 165.33 82.58C164.87 82.26 164.54 81.79 164.33 81.16C164.29 81.05 164.25 80.93 164.22 80.79C164.19 80.65 164.17 80.49 164.15 80.31C164.13 80.12 164.11 79.9 164.1 79.65C164.09 79.39 164.08 79.08 164.08 78.72C164.08 78.36 164.09 78.05 164.1 77.79C164.11 77.53 164.13 77.31 164.15 77.13C164.17 76.94 164.2 76.78 164.22 76.65C164.25 76.52 164.28 76.39 164.33 76.28C164.54 75.66 164.87 75.19 165.33 74.86C165.79 74.53 166.37 74.38 167.06 74.38C167.75 74.38 168.32 74.54 168.78 74.86C169.24 75.18 169.57 75.65 169.78 76.28C169.81 76.4 169.85 76.52 169.88 76.65C169.91 76.78 169.94 76.94 169.96 77.13C169.98 77.32 170 77.54 170.01 77.79C170.02 78.05 170.03 78.36 170.03 78.72C170.03 79.08 170.02 79.4 170.01 79.65C170 79.91 169.98 80.13 169.96 80.31C169.94 80.5 169.91 80.66 169.88 80.79C169.85 80.93 169.81 81.05 169.78 81.16C169.57 81.78 169.24 82.25 168.78 82.58C168.32 82.9 167.75 83.06 167.06 83.06ZM169.31 78.71C169.31 78.37 169.3 78.08 169.29 77.83C169.28 77.58 169.26 77.37 169.25 77.2C169.23 77.03 169.21 76.88 169.18 76.77C169.15 76.65 169.12 76.55 169.1 76.47C168.79 75.52 168.11 75.04 167.06 75.04C166.01 75.04 165.33 75.52 165.01 76.47C164.99 76.55 164.96 76.65 164.93 76.77C164.9 76.89 164.88 77.03 164.86 77.2C164.84 77.37 164.83 77.58 164.82 77.83C164.81 78.08 164.8 78.37 164.8 78.71C164.8 79.05 164.81 79.34 164.82 79.59C164.83 79.84 164.85 80.05 164.86 80.22C164.88 80.39 164.9 80.54 164.93 80.65C164.96 80.77 164.99 80.87 165.01 80.95C165.32 81.9 166.01 82.38 167.06 82.38C168.1 82.38 168.78 81.9 169.1 80.95C169.12 80.87 169.15 80.77 169.18 80.65C169.21 80.53 169.23 80.39 169.25 80.22C169.27 80.05 169.28 79.84 169.29 79.59C169.3 79.34 169.31 79.05 169.31 78.71Z" fill="#88774F"/>
<path d="M172.07 74.61C172.07 74.53 172.11 74.49 172.2 74.49H172.67C172.75 74.49 172.8 74.53 172.8 74.61V82.19C172.8 82.24 172.82 82.26 172.87 82.26H177.04C177.12 82.26 177.16 82.3 177.16 82.38V82.8C177.16 82.88 177.12 82.92 177.04 82.92H172.2C172.12 82.92 172.07 82.88 172.07 82.8V74.61Z" fill="#88774F"/>
<path d="M179.79 82.93C179.71 82.93 179.66 82.89 179.66 82.81V79.47L177.13 74.63C177.11 74.6 177.12 74.57 177.14 74.54C177.16 74.51 177.19 74.5 177.23 74.5H177.71C177.79 74.5 177.85 74.54 177.9 74.62L180.03 78.66H180.07L182.16 74.62C182.2 74.54 182.26 74.5 182.35 74.5H182.82C182.87 74.5 182.9 74.51 182.92 74.54C182.94 74.57 182.94 74.6 182.92 74.63L180.39 79.47V82.81C180.39 82.89 180.35 82.93 180.26 82.93H179.79Z" fill="#88774F"/>
<path d="M190.3 83.06C190.03 83.06 189.75 83.03 189.48 82.98C189.21 82.93 188.95 82.85 188.7 82.76C188.46 82.67 188.23 82.56 188.03 82.44C187.83 82.32 187.65 82.2 187.5 82.07C187.43 82.01 187.43 81.95 187.49 81.9L187.79 81.53C187.85 81.46 187.91 81.46 187.96 81.52C188.24 81.74 188.59 81.93 189.01 82.12C189.43 82.3 189.89 82.39 190.38 82.39C191.06 82.39 191.59 82.23 191.98 81.92C192.37 81.61 192.56 81.19 192.56 80.67C192.56 80.46 192.53 80.27 192.46 80.09C192.39 79.91 192.28 79.75 192.13 79.61C191.98 79.47 191.77 79.35 191.51 79.25C191.25 79.15 190.92 79.08 190.54 79.03L190.16 78.98C189.33 78.87 188.72 78.63 188.32 78.25C187.92 77.87 187.72 77.37 187.72 76.75C187.72 76.01 187.96 75.43 188.44 75.01C188.92 74.59 189.57 74.38 190.38 74.38C190.85 74.38 191.3 74.44 191.72 74.57C192.14 74.7 192.5 74.87 192.79 75.09C192.86 75.13 192.87 75.19 192.81 75.26L192.56 75.64C192.51 75.7 192.45 75.71 192.39 75.66C192.05 75.45 191.72 75.3 191.39 75.19C191.06 75.09 190.71 75.03 190.35 75.03C189.75 75.03 189.28 75.18 188.94 75.48C188.61 75.78 188.44 76.18 188.44 76.68C188.44 77.11 188.59 77.46 188.89 77.74C189.19 78.01 189.7 78.2 190.42 78.29L190.8 78.34C191.66 78.46 192.29 78.71 192.68 79.09C193.07 79.48 193.27 79.98 193.27 80.61C193.27 80.97 193.21 81.29 193.08 81.59C192.95 81.89 192.76 82.15 192.51 82.37C192.26 82.59 191.95 82.76 191.58 82.88C191.21 83 190.79 83.06 190.3 83.06Z" fill="#88774F"/>
<path d="M195.21 74.61C195.21 74.53 195.25 74.49 195.34 74.49H195.81C195.89 74.49 195.94 74.53 195.94 74.61V82.81C195.94 82.89 195.9 82.93 195.81 82.93H195.34C195.26 82.93 195.21 82.89 195.21 82.81V74.61Z" fill="#88774F"/>
<path d="M200.35 82.93C200.27 82.93 200.22 82.89 200.22 82.81V75.23C200.22 75.18 200.2 75.16 200.15 75.16H197.72C197.64 75.16 197.6 75.12 197.6 75.04V74.62C197.6 74.54 197.64 74.5 197.72 74.5H203.46C203.54 74.5 203.58 74.54 203.58 74.62V75.04C203.58 75.12 203.54 75.16 203.46 75.16H201.03C200.98 75.16 200.96 75.18 200.96 75.23V82.81C200.96 82.89 200.92 82.93 200.83 82.93H200.35Z" fill="#88774F"/>
<path d="M205.23 74.61C205.23 74.53 205.27 74.49 205.36 74.49H210.2C210.28 74.49 210.32 74.53 210.32 74.61V75.03C210.32 75.11 210.28 75.15 210.2 75.15H206.03C205.98 75.15 205.96 75.17 205.96 75.22V78.23C205.96 78.28 205.98 78.3 206.03 78.3H209.62C209.7 78.3 209.74 78.34 209.74 78.42V78.84C209.74 78.92 209.7 78.96 209.62 78.96H206.03C205.98 78.96 205.96 78.98 205.96 79.03V82.16C205.96 82.21 205.98 82.23 206.03 82.23H210.2C210.28 82.23 210.32 82.27 210.32 82.35V82.77C210.32 82.85 210.28 82.89 210.2 82.89H205.36C205.28 82.89 205.23 82.85 205.23 82.77V74.61Z" fill="#88774F"/>
<path d="M214.8 83.06C214.53 83.06 214.25 83.03 213.98 82.98C213.71 82.93 213.45 82.85 213.2 82.76C212.96 82.67 212.73 82.56 212.53 82.44C212.33 82.32 212.15 82.2 212 82.07C211.93 82.01 211.93 81.95 211.99 81.9L212.29 81.53C212.35 81.46 212.41 81.46 212.46 81.52C212.74 81.74 213.09 81.93 213.51 82.12C213.93 82.3 214.39 82.39 214.88 82.39C215.56 82.39 216.09 82.23 216.48 81.92C216.87 81.61 217.06 81.19 217.06 80.67C217.06 80.46 217.03 80.27 216.96 80.09C216.89 79.91 216.78 79.75 216.63 79.61C216.48 79.47 216.27 79.35 216.01 79.25C215.75 79.15 215.42 79.08 215.04 79.03L214.66 78.98C213.83 78.87 213.22 78.63 212.82 78.25C212.42 77.87 212.22 77.37 212.22 76.75C212.22 76.01 212.46 75.43 212.94 75.01C213.42 74.59 214.07 74.38 214.88 74.38C215.35 74.38 215.8 74.44 216.22 74.57C216.64 74.7 217 74.87 217.29 75.09C217.36 75.13 217.37 75.19 217.31 75.26L217.06 75.64C217.01 75.7 216.95 75.71 216.89 75.66C216.55 75.45 216.22 75.3 215.89 75.19C215.56 75.09 215.21 75.03 214.85 75.03C214.25 75.03 213.78 75.18 213.44 75.48C213.11 75.78 212.94 76.18 212.94 76.68C212.94 77.11 213.09 77.46 213.39 77.74C213.69 78.01 214.2 78.2 214.92 78.29L215.3 78.34C216.16 78.46 216.79 78.71 217.18 79.09C217.57 79.48 217.77 79.98 217.77 80.61C217.77 80.97 217.71 81.29 217.58 81.59C217.45 81.89 217.26 82.15 217.01 82.37C216.76 82.59 216.45 82.76 216.08 82.88C215.72 83 215.29 83.06 214.8 83.06Z" fill="#88774F"/>
<path d="M23.0599 18.37C22.4399 18.37 21.9299 18.89 21.9299 19.5C21.9299 20.11 22.4199 20.63 23.0599 20.63C23.6799 20.63 24.1899 20.11 24.1899 19.5C24.1899 18.88 23.6699 18.37 23.0599 18.37ZM20.2799 18.37C19.6599 18.37 19.1599 18.89 19.1599 19.5C19.1599 20.11 19.6199 20.63 20.2799 20.63C20.9199 20.63 21.4099 20.12 21.4099 19.5C21.4099 18.86 20.9099 18.37 20.2799 18.37Z" fill="#00080C"/>
<path d="M44.4701 21.58C41.4601 21.58 39.96 23.59 39.96 25.79C39.96 27.02 40.29 27.79 40.92 28.27C40.84 28.25 40.49 28.15 39.96 28.15H37.85C37.68 24.82 36.2 23.09 34.01 22.1L38.2401 19.54V17.27L31.3701 21.58V23.26C34.1301 23.9 35.5201 25.46 35.6101 28.15H25.5201V22.18C25.5201 22.18 23.94 21.58 21.88 21.58C18.7 21.58 17.3 23.66 17.3 25.93C17.3 28.4 18.5701 29.96 21.93 29.96H48.39V25.57C48.39 23.14 47.1801 21.58 44.4701 21.58ZM23.3 28.16H22.1901C20.3701 28.16 19.59 27.31 19.59 25.73C19.59 24.38 20.35 23.39 21.65 23.39C22.64 23.39 23.3 23.7 23.3 23.7V28.16ZM46.1501 28.16H44.8301C43.0301 28.16 42.23 27.36 42.23 25.73C42.23 24.38 42.9901 23.39 44.2901 23.39C45.4501 23.39 46.1501 24.12 46.1501 25.86V28.16Z" fill="#00080C"/>
<path d="M59.93 18.37C59.31 18.37 58.8 18.89 58.8 19.5C58.8 20.11 59.28 20.63 59.93 20.63C60.55 20.63 61.06 20.11 61.06 19.5C61.05 18.88 60.54 18.37 59.93 18.37ZM57.15 18.37C56.53 18.37 56.02 18.89 56.02 19.5C56.02 20.11 56.49 20.63 57.15 20.63C57.79 20.63 58.28 20.12 58.28 19.5C58.28 18.86 57.77 18.37 57.15 18.37Z" fill="#00080C"/>
<path d="M71.2 18.36C70.56 18.36 70.01 18.91 70.01 19.55C70.01 20.19 70.54 20.75 71.2 20.75C71.84 20.75 72.4 20.22 72.4 19.55C72.4 18.89 71.84 18.36 71.2 18.36Z" fill="#00080C"/>
<path d="M78.4 31.23C77.78 31.23 77.27 31.73 77.27 32.35C77.27 32.96 77.75 33.48 78.4 33.48C79.02 33.48 79.53 32.96 79.53 32.35C79.53 31.73 79.01 31.23 78.4 31.23ZM75.62 31.23C75 31.23 74.49 31.73 74.49 32.35C74.49 32.96 74.98 33.48 75.62 33.48C76.24 33.48 76.75 32.96 76.75 32.35C76.75 31.73 76.23 31.23 75.62 31.23Z" fill="#00080C"/>
<path d="M75.9199 21.81V28.16H72.3499V21.81H70.0599V28.16H62.3899V22.19C62.3899 22.19 60.8099 21.59 58.7499 21.59C55.5699 21.59 54.1699 23.67 54.1699 25.94C54.1699 28.41 55.4399 29.97 58.7999 29.97H78.2199V21.81H75.9199ZM60.1699 28.16H59.0599C57.2399 28.16 56.4599 27.31 56.4599 25.73C56.4599 24.38 57.2199 23.39 58.5199 23.39C59.5099 23.39 60.1699 23.7 60.1699 23.7V28.16Z" fill="#00080C"/>
<path d="M101.92 17.73V28.16H98.7501V25.58C98.7501 23.15 97.5401 21.59 94.8301 21.59C91.8201 21.59 90.3201 23.6 90.3201 25.8C90.3201 27.59 89.6501 28.16 88.6001 28.16H87.7701C87.5601 24.29 85.5701 22.33 81.9901 21.39L81.4401 23.3C84.1801 23.99 85.4301 25.59 85.5301 28.15H80.4001V29.96H88.8501C90.3101 29.96 91.0001 29.42 91.3201 28.62C91.9301 29.42 92.7101 29.96 95.2001 29.96H104.22V17.73H101.92ZM96.5201 28.16H95.2001C93.4001 28.16 92.6001 27.36 92.6001 25.73C92.6001 24.38 93.3601 23.39 94.6601 23.39C95.8201 23.39 96.5201 24.12 96.5201 25.86V28.16Z" fill="#00080C"/>
<path d="M116.03 18.37C115.41 18.37 114.91 18.89 114.91 19.5C114.91 20.11 115.39 20.63 116.03 20.63C116.66 20.63 117.16 20.11 117.16 19.5C117.16 18.88 116.64 18.37 116.03 18.37ZM113.25 18.37C112.63 18.37 112.13 18.89 112.13 19.5C112.13 20.11 112.59 20.63 113.25 20.63C113.89 20.63 114.38 20.12 114.38 19.5C114.38 18.86 113.88 18.37 113.25 18.37Z" fill="#00080C"/>
<path d="M125.49 31.23C124.86 31.23 124.36 31.73 124.36 32.35C124.36 32.96 124.84 33.48 125.49 33.48C126.11 33.48 126.61 32.96 126.61 32.35C126.61 31.73 126.09 31.23 125.49 31.23ZM128.27 31.23C127.64 31.23 127.14 31.73 127.14 32.35C127.14 32.96 127.62 33.48 128.27 33.48C128.89 33.48 129.39 32.96 129.39 32.35C129.39 31.73 128.87 31.23 128.27 31.23Z" fill="#00080C"/>
<path d="M156.77 17.73V28.16H153.59V25.58C153.59 23.15 152.38 21.59 149.67 21.59C146.67 21.59 145.16 23.6 145.16 25.8C145.16 27.59 144.48 28.16 143.44 28.16H141.79V17.73H139.5V28.16H136.67C136.5 24.83 135.02 23.1 132.83 22.11L137.06 19.55V17.28L130.19 21.59V23.27C132.95 23.91 134.34 25.47 134.43 28.16H128.02V21.81H125.73V28.16H118.48V22.19C118.48 22.19 116.9 21.59 114.84 21.59C111.66 21.59 110.26 23.67 110.26 25.94C110.26 28.41 111.53 29.97 114.9 29.97H143.68C145.13 29.97 145.83 29.43 146.15 28.63C146.75 29.43 147.53 29.97 150.03 29.97H159.05V17.73H156.77ZM116.27 28.16H115.16C113.34 28.16 112.56 27.31 112.56 25.73C112.56 24.38 113.32 23.39 114.62 23.39C115.61 23.39 116.27 23.7 116.27 23.7V28.16ZM151.35 28.16H150.03C148.22 28.16 147.43 27.36 147.43 25.73C147.43 24.38 148.19 23.39 149.49 23.39C150.65 23.39 151.35 24.12 151.35 25.86V28.16Z" fill="#00080C"/>
<path d="M161.83 17.73H164.12V29.96H161.83V17.73Z" fill="#00080C"/>
<path d="M175.96 18.37C175.34 18.37 174.83 18.89 174.83 19.5C174.83 20.11 175.31 20.63 175.96 20.63C176.58 20.63 177.09 20.11 177.09 19.5C177.08 18.88 176.56 18.37 175.96 18.37ZM173.18 18.37C172.56 18.37 172.05 18.89 172.05 19.5C172.05 20.11 172.52 20.63 173.18 20.63C173.82 20.63 174.31 20.12 174.31 19.5C174.31 18.86 173.8 18.37 173.18 18.37Z" fill="#00080C"/>
<path d="M187.73 19.74C186.76 19.74 186.48 19.5 186.48 19.1C186.48 18.77 186.74 18.51 187.33 18.51C187.78 18.51 188.18 18.6001 188.27 18.6101L188.49 17.4C188.37 17.38 187.94 17.3 187.47 17.3C185.65 17.3 184.92 18.23 184.92 19.09C184.92 19.4 185.09 19.71 185.36 19.85C185.12 19.79 184.7 19.75 184.31 19.75V21H188.79V19.75H187.73V19.74Z" fill="#00080C"/>
<path d="M194.05 31.23C193.43 31.23 192.92 31.73 192.92 32.35C192.92 32.96 193.4 33.48 194.05 33.48C194.67 33.48 195.18 32.96 195.18 32.35C195.18 31.73 194.66 31.23 194.05 31.23ZM191.27 31.23C190.65 31.23 190.14 31.73 190.14 32.35C190.14 32.96 190.62 33.48 191.27 33.48C191.89 33.48 192.4 32.96 192.4 32.35C192.4 31.73 191.88 31.23 191.27 31.23Z" fill="#00080C"/>
<path d="M210.45 17.73V28.16H207.67V28.11C207.67 23.04 205.2 20.98 200.87 20.98C199.48 20.98 197.9 21.26 196.65 21.66L196.87 23.45C197.96 23.08 199.39 22.77 200.58 22.77C204.01 22.77 205.48 24.36 205.48 27.96V28.17H203.74V27.77C203.74 25.81 202.87 24.11 200.55 24.11C198.45 24.11 197.22 25.34 197.22 27.03C197.22 27.76 197.57 28.17 197.64 28.26C197.57 28.25 197.27 28.18 196.86 28.18H193.82V21.83H191.53V28.18H187.95V21.83H185.66V28.18H178.41V22.21C178.41 22.21 176.83 21.61 174.76 21.61C171.59 21.61 170.18 23.69 170.18 25.96C170.18 28.43 171.45 29.99 174.81 29.99H212.72V17.73H210.45ZM176.2 28.16H175.09C173.26 28.16 172.49 27.31 172.49 25.73C172.49 24.38 173.25 23.39 174.55 23.39C175.54 23.39 176.2 23.7 176.2 23.7V28.16ZM201.87 28.23H200.73C199.84 28.23 199.08 27.84 199.08 26.86C199.08 26.13 199.59 25.68 200.38 25.68C201.4 25.68 201.88 26.39 201.88 27.73V28.23H201.87Z" fill="#00080C"/>
<path d="M215.51 17.73H217.8V29.96H215.51V17.73Z" fill="#00080C"/>
<path d="M23.0401 37.42C22.4201 37.42 21.9101 37.94 21.9101 38.54C21.9101 39.15 22.4001 39.67 23.0401 39.67C23.6601 39.67 24.1701 39.15 24.1701 38.54C24.1701 37.92 23.6501 37.42 23.0401 37.42ZM20.2601 37.42C19.6401 37.42 19.1401 37.94 19.1401 38.54C19.1401 39.15 19.6001 39.67 20.2601 39.67C20.9001 39.67 21.3901 39.17 21.3901 38.54C21.3901 37.91 20.8901 37.42 20.2601 37.42Z" fill="#00080C"/>
<path d="M40.68 40.16L38.44 40.47C38.74 41.79 38.95 43.39 38.95 45.12C38.95 45.66 38.92 46.5 38.85 47.2H38.38C36.78 47.2 36.32 46.92 36.32 45.55V41.2H34.12V45.12C34.12 46.8 33.61 47.34 32.71 47.34C31.69 47.34 31.51 46.66 31.51 45.1V41.89H29.22V45.05C29.22 46.75 28.78 47.2 27.66 47.2H25.5V41.23C25.5 41.23 23.92 40.62 21.86 40.62C18.68 40.62 17.28 42.7 17.28 44.98C17.28 47.45 18.55 49 21.91 49H27.64C28.91 49 29.6 48.58 29.95 47.79C30.23 48.62 31.15 49.14 32.28 49.14C33.64 49.14 34.55 48.55 34.9 47.8C35.41 48.76 36.33 49 38.15 49H41.01C41.17 47.77 41.25 46.22 41.25 44.96C41.24 43.24 41.01 41.55 40.68 40.16ZM23.28 47.21H22.17C20.35 47.21 19.57 46.36 19.57 44.78C19.57 43.42 20.33 42.44 21.63 42.44C22.62 42.44 23.28 42.75 23.28 42.75V47.21Z" fill="#00080C"/>
<path d="M55.5399 37.42C54.9199 37.42 54.4099 37.94 54.4099 38.54C54.4099 39.15 54.8799 39.67 55.5399 39.67C56.1799 39.67 56.6699 39.17 56.6699 38.54C56.6599 37.91 56.1599 37.42 55.5399 37.42ZM58.3099 37.42C57.6899 37.42 57.1799 37.94 57.1799 38.54C57.1799 39.15 57.6599 39.67 58.3099 39.67C58.9299 39.67 59.4399 39.15 59.4399 38.54C59.4399 37.92 58.9199 37.42 58.3099 37.42Z" fill="#00080C"/>
<path d="M75.36 36.78V47.21H72.19V44.62C72.19 42.2 70.98 40.63 68.27 40.63C65.26 40.63 63.76 42.65 63.76 44.85C63.76 46.64 63.09 47.21 62.04 47.21H61.44C60.83 47.21 60.1 47.29 60.1 47.29C60.76 46.74 61.1 45.68 61.1 44.67C61.1 41.91 59.52 40.63 57.08 40.63C54.44 40.63 52.66 42.45 52.66 44.95C52.66 45.94 52.94 46.75 53.48 47.29C53.48 47.29 52.94 47.21 52.4 47.21H50.65C50.44 43.34 48.45 41.38 44.87 40.44L44.32 42.35C47.06 43.04 48.31 44.64 48.41 47.21H43.27V49.01H62.29C63.75 49.01 64.44 48.48 64.76 47.67C65.37 48.47 66.15 49.01 68.64 49.01H77.66V36.78H75.36ZM56.87 47.21C55.6 47.21 54.96 46.39 54.96 44.76C54.96 43.13 55.92 42.44 56.91 42.44C58.21 42.44 58.81 43.27 58.81 44.79C58.81 46.4 57.97 47.21 56.87 47.21ZM69.95 47.21H68.63C66.83 47.21 66.03 46.41 66.03 44.78C66.03 43.42 66.79 42.44 68.09 42.44C69.25 42.44 69.95 43.17 69.95 44.9V47.21Z" fill="#00080C"/>
<path d="M80.4299 36.78H82.7199V49.01H80.4299V36.78Z" fill="#00080C"/>
<path d="M104.01 47.21V49.01H93.51V49.08C93.51 51.3 92.75 53.42 89.22 53.42C88.69 53.42 88.18 53.35 87.77 53.25L87.94 51.42C88.36 51.54 88.79 51.63 89.35 51.63C90.53 51.63 91.22 51.07 91.22 49.2V40.86H93.51V47.21H97.74C96.98 46.75 96.4 45.78 96.4 44.62C96.4 42.47 97.87 40.63 100.93 40.63C102.11 40.63 103.08 40.96 103.08 40.96L102.68 42.78C102.68 42.78 101.88 42.41 100.88 42.41C99.58 42.41 98.69 43.28 98.69 44.61C98.69 46.08 99.89 47.2 102.64 47.2H104.01V47.21Z" fill="#00080C"/>
<path d="M116.41 37.5C115.79 37.5 115.28 38.02 115.28 38.63C115.28 39.25 115.79 39.76 116.41 39.76C117.02 39.76 117.54 39.24 117.54 38.63C117.54 38.01 117.02 37.5 116.41 37.5ZM117.85 35.23C117.23 35.23 116.72 35.75 116.72 36.36C116.72 36.98 117.23 37.49 117.85 37.49C118.47 37.49 118.98 36.96 118.98 36.36C118.98 35.73 118.47 35.23 117.85 35.23ZM119.28 37.5C118.67 37.5 118.15 38.02 118.15 38.63C118.15 39.25 118.67 39.76 119.28 39.76C119.9 39.76 120.4 39.24 120.4 38.63C120.4 38.01 119.9 37.5 119.28 37.5Z" fill="#00080C"/>
<path d="M138.81 36.78V47.21H135.63V44.62C135.63 42.2 134.42 40.63 131.71 40.63C128.7 40.63 127.2 42.65 127.2 44.85C127.2 46.64 126.53 47.21 125.48 47.21H123.91C123.96 46.44 123.98 45.67 123.98 44.97C123.98 43.25 123.75 41.56 123.42 40.16L121.18 40.47C121.48 41.79 121.69 43.39 121.69 45.12C121.69 45.66 121.66 46.5 121.59 47.2H121.12C119.53 47.2 119.06 46.92 119.06 45.55V41.2H116.86V45.12C116.86 46.8 116.35 47.34 115.45 47.34C114.43 47.34 114.25 46.66 114.25 45.1V41.89H111.96V45.05C111.96 46.75 111.53 47.2 110.4 47.2H108.25V36.78H105.96V49.01H110.38C111.65 49.01 112.34 48.59 112.69 47.8C112.97 48.63 113.89 49.15 115.02 49.15C116.38 49.15 117.29 48.56 117.64 47.81C118.15 48.77 119.07 49.01 120.89 49.01H125.75C127.2 49.01 127.9 48.48 128.21 47.67C128.82 48.47 129.6 49.01 132.09 49.01H141.11V36.78H138.81ZM133.4 47.21H132.08C130.28 47.21 129.48 46.41 129.48 44.78C129.48 43.42 130.24 42.44 131.54 42.44C132.7 42.44 133.4 43.17 133.4 44.9V47.21Z" fill="#00080C"/>
<path d="M143.87 36.78H146.16V49.01H143.87V36.78Z" fill="#00080C"/>
<path d="M148.61 53.15L148.75 51.28C148.75 51.28 150.1 51.57 151.46 51.57C153.26 51.57 154.46 50.89 154.46 49.26V49H153.09C149.72 49 148.46 47.44 148.46 44.98C148.46 42.71 149.87 40.63 153.04 40.63C155.1 40.63 156.68 41.24 156.68 41.24V49.05C156.68 51.44 155.12 53.39 151.25 53.39C149.95 53.38 148.61 53.15 148.61 53.15ZM154.46 42.74C154.46 42.74 153.8 42.43 152.81 42.43C151.51 42.43 150.75 43.42 150.75 44.77C150.75 46.35 151.53 47.2 153.35 47.2H154.46V42.74Z" fill="#00080C"/>
<path d="M168.49 37.42C167.87 37.42 167.36 37.94 167.36 38.54C167.36 39.15 167.85 39.67 168.49 39.67C169.12 39.67 169.62 39.15 169.62 38.54C169.62 37.92 169.1 37.42 168.49 37.42ZM165.71 37.42C165.09 37.42 164.59 37.94 164.59 38.54C164.59 39.15 165.05 39.67 165.71 39.67C166.35 39.67 166.84 39.17 166.84 38.54C166.84 37.91 166.34 37.42 165.71 37.42Z" fill="#00080C"/>
<path d="M178.33 40.63C175.32 40.63 173.82 42.65 173.82 44.85C173.82 46.08 174.15 46.84 174.78 47.32C174.7 47.3 174.35 47.21 173.82 47.21H170.96V41.24C170.96 41.24 169.38 40.63 167.32 40.63C164.14 40.63 162.74 42.71 162.74 44.99C162.74 47.46 164.01 49.01 167.37 49.01H182.26V44.62C182.25 42.19 181.04 40.63 178.33 40.63ZM168.73 47.21H167.62C165.8 47.21 165.02 46.36 165.02 44.78C165.02 43.42 165.78 42.44 167.08 42.44C168.07 42.44 168.73 42.75 168.73 42.75V47.21ZM180.01 47.21H178.69C176.89 47.21 176.09 46.41 176.09 44.78C176.09 43.42 176.85 42.44 178.15 42.44C179.31 42.44 180.01 43.17 180.01 44.9V47.21Z" fill="#00080C"/>
<path d="M210.44 36.7801V47.2101H207.27V44.6201C207.27 42.2001 206.06 40.6301 203.35 40.6301C200.34 40.6301 198.84 42.6501 198.84 44.8501C198.84 46.6401 198.17 47.2101 197.12 47.2101H196.22C196.05 43.8801 194.57 42.1401 192.38 41.1501L196.62 38.6001V36.3301L189.74 40.6301V42.3101C192.5 42.9501 193.89 44.5101 193.98 47.2101H187.99V40.8601H185.7V49.2001C185.7 51.0701 185 51.6301 183.82 51.6301C183.27 51.6301 182.83 51.5401 182.41 51.4201L182.24 53.2501C182.66 53.3501 183.16 53.4201 183.69 53.4201C187.21 53.4201 187.98 51.3001 187.98 49.0801V49.0101H197.35C198.81 49.0101 199.5 48.4801 199.82 47.6701C200.43 48.4701 201.21 49.0101 203.7 49.0101H212.72V36.7801H210.44ZM205.03 47.2101H203.71C201.91 47.2101 201.11 46.4101 201.11 44.7801C201.11 43.4201 201.88 42.4401 203.18 42.4401C204.34 42.4401 205.04 43.1701 205.04 44.9001V47.2101H205.03Z" fill="#00080C"/>
<path d="M215.51 36.78H217.8V49.01H215.51V36.78Z" fill="#00080C"/>
<path d="M286.92 72.5801H283.46V76.0401H286.92V72.5801Z" fill="#00080C"/>
<path d="M286.92 79.49H283.46V82.95H286.92V79.49Z" fill="#00080C"/>
<path d="M255.81 65.66V79.48H252.35V72.57H235.07V82.94H280V72.57H262.72V79.48H259.26V69.12H286.91V65.66H255.81ZM248.9 79.49H238.53V76.04H248.9V79.49ZM266.18 76.03H276.55V79.48H266.18V76.03Z" fill="#00080C"/>
<path d="M293.83 31.1H290.37V34.56H293.83V31.1Z" fill="#00080C"/>
<path d="M300.75 31.1H297.29V34.56H300.75V31.1Z" fill="#00080C"/>
<path d="M290.38 38.01V55.3H297.29V58.75H286.92V31.1H283.47V62.21H297.29V65.66H290.38V82.94H300.75V38.01H290.38ZM297.29 79.49H293.83V69.12H297.29V79.49ZM297.29 51.84H293.83V41.47H297.29V51.84Z" fill="#00080C"/>
<path d="M252.36 24.1901H248.9V27.6501H252.36V24.1901Z" fill="#00080C"/>
<path d="M252.36 17.28H248.9V20.74H252.36V17.28Z" fill="#00080C"/>
<path d="M255.81 17.28V27.65H273.09V20.74H276.55V31.1H248.9V34.56H280V20.74H283.46V27.65H300.74V17.28H255.81ZM269.64 24.19H259.27V20.74H269.64V24.19ZM297.29 24.19H286.92V20.74H297.29V24.19Z" fill="#00080C"/>
<path d="M245.45 65.66H241.99V69.12H245.45V65.66Z" fill="#00080C"/>
<path d="M238.54 65.66H235.08V69.12H238.54V65.66Z" fill="#00080C"/>
<path d="M238.53 38.01V34.56H245.44V17.28H235.07V62.21H245.44V44.93H238.53V41.48H248.9V69.13H252.35V38.01H238.53ZM238.53 20.74H241.99V31.1H238.53V20.74ZM241.99 48.38V58.75H238.53V48.38H241.99Z" fill="#00080C"/>
<path d="M272.33 46.0301C272.67 46.7501 272.87 47.5501 272.95 48.3001C272.11 47.2201 271.1 46.2701 270.01 45.5501C270.1 45.6701 270.19 45.8001 270.27 45.9301C271.16 47.3801 271.01 49.2901 270.49 50.8401C270.17 49.3801 269.61 47.9601 268.89 46.7401C268.72 46.4601 268.55 46.1901 268.36 45.9201L268.62 52.4501C268.62 52.6801 268.35 53.1001 267.9 53.1001C267.45 53.1001 267.18 52.6901 267.18 52.4501L267.44 45.9301C267.25 46.1901 267.07 46.4601 266.91 46.7401C266.19 47.9601 265.63 49.3801 265.31 50.8401C264.8 49.2901 264.64 47.3701 265.53 45.9301C265.61 45.8001 265.7 45.6701 265.79 45.5501C264.71 46.2701 263.69 47.2201 262.85 48.3001C263.02 46.8001 263.63 45.1001 264.97 44.2501C265.42 43.9701 265.9 43.7801 266.4 43.6801C266.4 43.6501 266.4 43.6601 266.4 43.6301C266.11 43.6501 265.83 43.6701 265.54 43.7201C264.29 43.9101 263.09 44.2701 261.94 44.8101C262.78 43.5301 264.11 42.5701 265.36 42.4001C265.56 42.3701 265.77 42.3601 265.98 42.3701C265.23 41.9901 264.41 41.6701 263.57 41.4501C264.71 41.1401 265.95 41.2101 267.02 41.6801C267.33 40.3601 267.89 39.5801 267.89 39.5801C267.89 39.5801 268.45 40.3601 268.76 41.6801C269.83 41.2001 271.07 41.1401 272.21 41.4501C271.37 41.6701 270.55 41.9901 269.8 42.3701C270.01 42.3601 270.22 42.3701 270.42 42.4001C271.05 42.4801 271.7 42.7601 272.29 43.1901C272.89 43.6101 273.43 44.1701 273.85 44.8101C272.7 44.2701 271.5 43.9101 270.25 43.7201C269.96 43.6801 269.68 43.6501 269.39 43.6301C269.39 43.6701 269.39 43.6501 269.39 43.6801C269.89 43.7801 270.37 43.9701 270.82 44.2501C271.5 44.6801 271.99 45.3101 272.33 46.0301Z" fill="#88774F"/>
<path d="M280 50.5401C278.67 50.3901 277.27 50.6701 276.04 51.4201L269.02 55.7101L271.84 57.4301L272.23 56.7901C272.22 56.7901 272.21 56.7801 272.2 56.7801C271.89 56.5901 271.79 56.1701 271.98 55.8601C272.17 55.5501 272.58 55.4501 272.9 55.6401C273.21 55.8301 273.31 56.2401 273.12 56.5601L272.38 57.7701L272.75 58.0001L273.59 58.5101C273.87 58.6901 274.21 58.7001 274.49 58.5801C274.5 58.7301 274.48 58.8801 274.42 59.0201C274.4 59.0701 274.38 59.1201 274.34 59.1701C274.06 59.6401 273.44 59.7901 272.98 59.5001L271.77 58.7601L271.38 59.4001C271.39 59.4001 271.4 59.4101 271.41 59.4101C271.72 59.6001 271.82 60.0101 271.63 60.3301C271.44 60.6401 271.02 60.7501 270.71 60.5501C270.4 60.3501 270.3 59.9401 270.49 59.6301L271.23 58.4201L267.91 56.3901L264.59 58.4201L265.33 59.6301C265.52 59.9401 265.42 60.3601 265.11 60.5501C264.8 60.7401 264.39 60.6401 264.19 60.3301C264 60.0201 264.1 59.6101 264.41 59.4101C264.42 59.4101 264.43 59.4001 264.44 59.3901L264.05 58.7501L262.84 59.4901C262.37 59.7801 261.76 59.6301 261.47 59.1601C261.44 59.1101 261.42 59.0601 261.39 59.0101C261.34 58.8701 261.31 58.7101 261.32 58.5701C261.61 58.6901 261.94 58.6801 262.23 58.5001L263.07 57.9901L263.45 57.7601L262.71 56.5501C262.52 56.2401 262.62 55.8301 262.93 55.6301C263.24 55.4401 263.65 55.5401 263.85 55.8501C264.04 56.1601 263.94 56.5801 263.63 56.7701C263.62 56.7701 263.61 56.7801 263.6 56.7801L263.99 57.4201L266.81 55.7001L259.79 51.4101C258.56 50.6601 257.16 50.3801 255.83 50.5301C257.15 49.6301 258.94 49.5201 260.4 50.4201L267.93 55.0201L275.46 50.4201C276.89 49.5401 278.68 49.6401 280 50.5401Z" fill="#88774F"/>
</g>
<defs>
<clipPath id="clip0_556_270">
<rect width="318.02" height="100.33" fill="white"/>
</clipPath>
</defs>
</svg>
