<svg width="32" height="32" viewBox="0 0 32 32" fill="none" xmlns="http://www.w3.org/2000/svg">
<path d="M16.4271 0.522461C14.3945 0.522461 12.3819 0.922799 10.5041 1.70062C8.62624 2.47844 6.92001 3.6185 5.48279 5.05572C2.58019 7.95832 0.949524 11.8951 0.949524 16C0.949524 20.1049 2.58019 24.0417 5.48279 26.9443C6.92001 28.3815 8.62624 29.5215 10.5041 30.2994C12.3819 31.0772 14.3945 31.4775 16.4271 31.4775C20.5319 31.4775 24.4687 29.8469 27.3713 26.9443C30.2739 24.0417 31.9046 20.1049 31.9046 16C31.9046 14.2046 31.5796 12.4247 30.9605 10.7531L28.484 13.2295C28.7007 14.1427 28.8091 15.0713 28.8091 16C28.8091 19.2839 27.5045 22.4333 25.1825 24.7554C22.8604 27.0775 19.711 28.382 16.4271 28.382C13.1431 28.382 9.99372 27.0775 7.67164 24.7554C5.34956 22.4333 4.04503 19.2839 4.04503 16C4.04503 12.7161 5.34956 9.56666 7.67164 7.24458C9.99372 4.9225 13.1431 3.61797 16.4271 3.61797C17.3557 3.61797 18.2844 3.72631 19.1975 3.94299L21.6894 1.45111C20.0024 0.847489 18.2224 0.522461 16.4271 0.522461ZM27.2613 0.522461L21.0703 6.71347V9.0351L17.1235 12.9819C16.8914 12.9045 16.6592 12.9045 16.4271 12.9045C15.6061 12.9045 14.8187 13.2306 14.2382 13.8111C13.6577 14.3917 13.3315 15.179 13.3315 16C13.3315 16.821 13.6577 17.6083 14.2382 18.1888C14.8187 18.7694 15.6061 19.0955 16.4271 19.0955C17.248 19.0955 18.0354 18.7694 18.6159 18.1888C19.1964 17.6083 19.5226 16.821 19.5226 16C19.5226 15.7678 19.5226 15.5357 19.4452 15.3035L23.3919 11.3567H25.7136L31.9046 5.16572H27.2613V0.522461ZM16.4271 6.71347C13.9641 6.71347 11.6021 7.69187 9.86049 9.43343C8.11893 11.175 7.14054 13.5371 7.14054 16C7.14054 18.4629 8.11893 20.825 9.86049 22.5665C11.6021 24.3081 13.9641 25.2865 16.4271 25.2865C18.89 25.2865 21.2521 24.3081 22.9936 22.5665C24.7352 20.825 25.7136 18.4629 25.7136 16H22.6181C22.6181 17.6419 21.9658 19.2167 20.8048 20.3777C19.6437 21.5387 18.069 22.191 16.4271 22.191C14.7851 22.191 13.2104 21.5387 12.0493 20.3777C10.8883 19.2167 10.236 17.6419 10.236 16C10.236 14.358 10.8883 12.7833 12.0493 11.6223C13.2104 10.4612 14.7851 9.80898 16.4271 9.80898V6.71347Z" fill="white"/>
</svg>
