<svg width="24" height="24" viewBox="0 0 24 24" fill="none" xmlns="http://www.w3.org/2000/svg">
<path d="M23.924 18.1339L21.46 4.13388C21.2578 2.97513 20.6529 1.92498 19.7521 1.16866C18.8512 0.412327 17.7122 -0.00159756 16.536 -0.000116295H7.45096C6.27379 -0.0019061 5.13384 0.41237 4.23249 1.16954C3.33113 1.92671 2.72635 2.97806 2.52496 4.13788L0.0759637 18.1379C-0.0498002 18.8565 -0.0168071 19.5938 0.172628 20.2983C0.362063 21.0028 0.703352 21.6572 1.17255 22.2158C1.64175 22.7744 2.22749 23.2235 2.88867 23.5317C3.54986 23.8399 4.27047 23.9997 4.99996 23.9999H19C19.7299 24 20.4511 23.8402 21.1127 23.5318C21.7744 23.2235 22.3605 22.774 22.8298 22.2149C23.2992 21.6559 23.6405 21.0008 23.8297 20.2958C24.0189 19.5907 24.0504 18.8528 23.924 18.1339ZM13 19.9999C13 20.2651 12.8946 20.5195 12.7071 20.707C12.5195 20.8945 12.2652 20.9999 12 20.9999C11.7347 20.9999 11.4804 20.8945 11.2929 20.707C11.1053 20.5195 11 20.2651 11 19.9999V17.9999C11 17.7347 11.1053 17.4803 11.2929 17.2928C11.4804 17.1052 11.7347 16.9999 12 16.9999C12.2652 16.9999 12.5195 17.1052 12.7071 17.2928C12.8946 17.4803 13 17.7347 13 17.9999V19.9999ZM13 12.9999C13 13.2651 12.8946 13.5195 12.7071 13.707C12.5195 13.8945 12.2652 13.9999 12 13.9999C11.7347 13.9999 11.4804 13.8945 11.2929 13.707C11.1053 13.5195 11 13.2651 11 12.9999V10.9999C11 10.7347 11.1053 10.4803 11.2929 10.2928C11.4804 10.1052 11.7347 9.99988 12 9.99988C12.2652 9.99988 12.5195 10.1052 12.7071 10.2928C12.8946 10.4803 13 10.7347 13 10.9999V12.9999ZM13 5.99988C13 6.2651 12.8946 6.51945 12.7071 6.70699C12.5195 6.89453 12.2652 6.99988 12 6.99988C11.7347 6.99988 11.4804 6.89453 11.2929 6.70699C11.1053 6.51945 11 6.2651 11 5.99988V3.99988C11 3.73467 11.1053 3.48031 11.2929 3.29278C11.4804 3.10524 11.7347 2.99988 12 2.99988C12.2652 2.99988 12.5195 3.10524 12.7071 3.29278C12.8946 3.48031 13 3.73467 13 3.99988V5.99988Z" fill="#E0E0E0"/>
</svg>
