<svg width="20" height="21" viewBox="0 0 20 21" fill="none" xmlns="http://www.w3.org/2000/svg">
<path d="M9.99984 13.5726C9.07158 13.5726 8.18134 13.2024 7.52497 12.5434C6.86859 11.8845 6.49984 10.9907 6.49984 10.0588C6.49984 9.12694 6.86859 8.23321 7.52497 7.57426C8.18134 6.91531 9.07158 6.54511 9.99984 6.54511C10.9281 6.54511 11.8183 6.91531 12.4747 7.57426C13.1311 8.23321 13.4998 9.12694 13.4998 10.0588C13.4998 10.9907 13.1311 11.8845 12.4747 12.5434C11.8183 13.2024 10.9281 13.5726 9.99984 13.5726ZM17.4298 11.0326C17.4698 10.7114 17.4998 10.3901 17.4998 10.0588C17.4998 9.72754 17.4698 9.39625 17.4298 9.05492L19.5398 7.41853C19.7298 7.26794 19.7798 6.99688 19.6598 6.77601L17.6598 3.30245C17.5398 3.08158 17.2698 2.99123 17.0498 3.08158L14.5598 4.08551C14.0398 3.69398 13.4998 3.35264 12.8698 3.10166L12.4998 0.44127C12.4598 0.200329 12.2498 0.0196228 11.9998 0.0196228H7.99984C7.74984 0.0196228 7.53984 0.200329 7.49984 0.44127L7.12984 3.10166C6.49984 3.35264 5.95984 3.69398 5.43984 4.08551L2.94984 3.08158C2.72984 2.99123 2.45984 3.08158 2.33984 3.30245L0.339839 6.77601C0.209839 6.99688 0.26984 7.26794 0.45984 7.41853L2.56984 9.05492C2.52984 9.39625 2.49984 9.72754 2.49984 10.0588C2.49984 10.3901 2.52984 10.7114 2.56984 11.0326L0.45984 12.6992C0.26984 12.8497 0.209839 13.1208 0.339839 13.3417L2.33984 16.8152C2.45984 17.0361 2.72984 17.1164 2.94984 17.0361L5.43984 16.0221C5.95984 16.4237 6.49984 16.765 7.12984 17.016L7.49984 19.6764C7.53984 19.9173 7.74984 20.0981 7.99984 20.0981H11.9998C12.2498 20.0981 12.4598 19.9173 12.4998 19.6764L12.8698 17.016C13.4998 16.755 14.0398 16.4237 14.5598 16.0221L17.0498 17.0361C17.2698 17.1164 17.5398 17.0361 17.6598 16.8152L19.6598 13.3417C19.7798 13.1208 19.7298 12.8497 19.5398 12.6992L17.4298 11.0326Z" fill="#E0E0E0"/>
</svg>
