<svg width="24" height="25" viewBox="0 0 24 25" fill="none" xmlns="http://www.w3.org/2000/svg">
<path d="M13 0.633667H5C2.243 0.633667 0 2.87667 0 5.63367V18.4877C0 19.2807 0.435 20.0067 1.134 20.3817C1.452 20.5527 1.801 20.6367 2.149 20.6367C2.565 20.6367 2.98 20.5157 3.34 20.2767L7.303 17.6337H13C15.757 17.6337 18 15.3907 18 12.6337V5.63367C18 2.87667 15.757 0.633667 13 0.633667ZM24 9.63367V22.4877C24 23.2807 23.565 24.0067 22.866 24.3817C22.548 24.5527 22.199 24.6367 21.851 24.6377C21.435 24.6377 21.02 24.5167 20.661 24.2777L16.697 21.6337H11C9.55 21.6337 8.253 21.0027 7.339 20.0137L7.908 19.6337H13C16.859 19.6337 20 16.4927 20 12.6337V5.63367C20 5.32567 19.973 5.02567 19.935 4.72767C22.246 5.16767 24 7.19667 24 9.63367Z" fill="#E0E0E0"/>
</svg>
