<svg width="24" height="25" viewBox="0 0 24 25" fill="none" xmlns="http://www.w3.org/2000/svg">
<path d="M12 17.7308C11.2089 17.7308 10.4355 17.4962 9.77772 17.0567C9.11992 16.6172 8.60723 15.9925 8.30448 15.2616C8.00173 14.5307 7.92252 13.7264 8.07686 12.9505C8.2312 12.1746 8.61216 11.4618 9.17157 10.9024C9.73098 10.343 10.4437 9.96204 11.2196 9.8077C11.9956 9.65336 12.7998 9.73257 13.5307 10.0353C14.2616 10.3381 14.8864 10.8508 15.3259 11.5086C15.7654 12.1664 16 12.9397 16 13.7308C16 14.7917 15.5786 15.8091 14.8284 16.5593C14.0783 17.3094 13.0609 17.7308 12 17.7308ZM18 21.7308C18 20.9352 17.6839 20.1721 17.1213 19.6095C16.5587 19.0469 15.7956 18.7308 15 18.7308H9C8.20435 18.7308 7.44129 19.0469 6.87868 19.6095C6.31607 20.1721 6 20.9352 6 21.7308V24.7308H18V21.7308ZM18 8.73084C17.2089 8.73084 16.4355 8.49624 15.7777 8.05672C15.1199 7.61719 14.6072 6.99248 14.3045 6.26157C14.0017 5.53067 13.9225 4.7264 14.0769 3.95048C14.2312 3.17455 14.6122 2.46182 15.1716 1.90241C15.731 1.343 16.4437 0.962037 17.2196 0.807696C17.9956 0.653355 18.7998 0.732568 19.5307 1.03532C20.2616 1.33807 20.8864 1.85076 21.3259 2.50856C21.7654 3.16635 22 3.93971 22 4.73084C22 5.7917 21.5786 6.80912 20.8284 7.55927C20.0783 8.30941 19.0609 8.73084 18 8.73084ZM6 8.73084C5.20887 8.73084 4.43552 8.49624 3.77772 8.05672C3.11992 7.61719 2.60723 6.99248 2.30448 6.26157C2.00173 5.53067 1.92252 4.7264 2.07686 3.95048C2.2312 3.17455 2.61216 2.46182 3.17157 1.90241C3.73098 1.343 4.44371 0.962037 5.21964 0.807696C5.99556 0.653355 6.79983 0.732568 7.53073 1.03532C8.26164 1.33807 8.88635 1.85076 9.32588 2.50856C9.7654 3.16635 10 3.93971 10 4.73084C10 5.7917 9.57857 6.80912 8.82843 7.55927C8.07828 8.30941 7.06087 8.73084 6 8.73084ZM6 13.7308C5.99948 12.2532 6.54715 10.8279 7.537 9.73084H3C2.20435 9.73084 1.44129 10.0469 0.87868 10.6095C0.31607 11.1721 0 11.9352 0 12.7308L0 15.7308H6.349C6.11935 15.089 6.00131 14.4125 6 13.7308ZM17.651 15.7308H24V12.7308C24 11.9352 23.6839 11.1721 23.1213 10.6095C22.5587 10.0469 21.7956 9.73084 21 9.73084H16.463C17.1854 10.5298 17.6775 11.5099 17.8867 12.5666C18.0959 13.6232 18.0144 14.7168 17.651 15.7308Z" fill="#E0E0E0"/>
</svg>
