<svg width="24" height="25" viewBox="0 0 24 25" fill="none" xmlns="http://www.w3.org/2000/svg">
<path d="M23.961 18.1601C23.629 15.1631 21.083 12.8241 18 12.8241C10.486 13.0181 9.903 23.7361 17.298 24.7791C21.065 25.2781 24.433 21.9291 23.961 18.1591V18.1601ZM20 20.8241C19.609 21.2151 18.977 21.2151 18.586 20.8241L17.293 19.5311C17.105 19.3431 17 19.0891 17 18.8241V16.8241C17.006 15.5161 18.995 15.5171 19 16.8241V18.4101L20 19.4101C20.391 19.8011 20.391 20.4331 20 20.8241ZM18 10.8241C20.393 10.8241 22.534 11.8801 24 13.5451V9.8241C24 7.0671 21.757 4.8241 19 4.8241H17.899C17.434 2.5451 15.415 0.824097 13 0.824097H11C8.586 0.824097 6.566 2.5451 6.101 4.8241H5C2.243 4.8241 0 7.0671 0 9.8241V12.8241H12.721C14.13 11.5831 15.975 10.8241 18 10.8241ZM11 2.8241H13C14.302 2.8241 15.402 3.6631 15.816 4.8241H8.185C8.599 3.6631 9.699 2.8241 11.001 2.8241H11ZM12.721 24.8241H5C2.243 24.8241 0 22.5811 0 19.8241V14.8241H11.079C9.14 17.9331 9.947 22.5491 12.721 24.8241Z" fill="#E0E0E0"/>
</svg>
