<svg width="24" height="22" viewBox="0 0 24 22" fill="none" xmlns="http://www.w3.org/2000/svg">
<path d="M23.08 15.2474L15 2.48736C14.32 1.50736 13.19 0.917358 12 0.917358C10.81 0.917358 9.67998 1.49736 8.96998 2.51736L0.929974 15.2274C-0.0900256 16.6874 -0.280026 18.4374 0.429974 19.7874C1.12997 21.1374 2.59997 21.9074 4.43997 21.9074H19.56C21.41 21.9074 22.87 21.1374 23.57 19.7874C24.27 18.4374 24.08 16.6974 23.08 15.2474ZM11 6.91736C11 6.36736 11.45 5.91736 12 5.91736C12.55 5.91736 13 6.36736 13 6.91736V12.9174C13 13.4674 12.55 13.9174 12 13.9174C11.45 13.9174 11 13.4674 11 12.9174V6.91736ZM12 18.9174C11.17 18.9174 10.5 18.2474 10.5 17.4174C10.5 16.5874 11.17 15.9174 12 15.9174C12.83 15.9174 13.5 16.5874 13.5 17.4174C13.5 18.2474 12.83 18.9174 12 18.9174Z" fill="#E0E0E0"/>
</svg>
