<svg width="24" height="25" viewBox="0 0 24 25" fill="none" xmlns="http://www.w3.org/2000/svg">
<path d="M16.5001 24.0106C16.1312 24.0102 15.7754 23.8737 15.5007 23.6275C15.226 23.3812 15.0517 23.0423 15.0111 22.6756C14.922 21.9403 14.5667 21.263 14.0123 20.7717C13.458 20.2804 12.7429 20.0091 12.0021 20.0091C11.2614 20.0091 10.5463 20.2804 9.99188 20.7717C9.43749 21.263 9.0822 21.9403 8.99311 22.6756C8.94935 23.0711 8.7503 23.4329 8.43974 23.6816C8.12918 23.9303 7.73255 24.0454 7.33711 24.0016C6.94167 23.9579 6.57982 23.7588 6.33114 23.4482C6.08247 23.1377 5.96735 22.7411 6.01111 22.3456C6.18122 20.876 6.88558 19.5202 7.99021 18.536C9.09484 17.5519 10.5227 17.0081 12.0021 17.0081C13.4816 17.0081 14.9094 17.5519 16.014 18.536C17.1186 19.5202 17.823 20.876 17.9931 22.3456C18.0148 22.5414 17.9977 22.7396 17.9428 22.9288C17.8879 23.118 17.7962 23.2945 17.6731 23.4483C17.55 23.602 17.3978 23.7301 17.2252 23.825C17.0525 23.92 16.8629 23.98 16.6671 24.0016C16.6116 24.0076 16.5559 24.0106 16.5001 24.0106ZM22.6671 15.0016C22.8629 14.98 23.0525 14.92 23.2252 14.825C23.3978 14.7301 23.55 14.602 23.6731 14.4483C23.7962 14.2945 23.8879 14.118 23.9428 13.9288C23.9977 13.7396 24.0148 13.5414 23.9931 13.3456C23.8788 11.942 23.2589 10.6275 22.2487 9.64635C21.2385 8.66518 19.9065 8.08396 18.5001 8.01062C18.1023 8.01062 17.7208 8.16866 17.4395 8.44996C17.1581 8.73127 17.0001 9.1128 17.0001 9.51062C17.0001 9.90845 17.1581 10.29 17.4395 10.5713C17.7208 10.8526 18.1023 11.0106 18.5001 11.0106C19.1658 11.0867 19.783 11.3961 20.2423 11.884C20.7016 12.3718 20.9733 13.0066 21.0091 13.6756C21.0497 14.0427 21.2243 14.3818 21.4994 14.6281C21.7745 14.8745 22.1308 15.0106 22.5001 15.0106C22.5552 15.0105 22.6103 15.0075 22.6651 15.0016H22.6671ZM2.99111 13.6756C3.02696 13.0066 3.29861 12.3718 3.7579 11.884C4.21719 11.3961 4.83442 11.0867 5.50011 11.0106C5.89794 11.0106 6.27947 10.8526 6.56077 10.5713C6.84208 10.29 7.00011 9.90845 7.00011 9.51062C7.00011 9.1128 6.84208 8.73127 6.56077 8.44996C6.27947 8.16866 5.89794 8.01062 5.50011 8.01062C4.09409 8.08442 2.76259 8.66585 1.75277 9.64698C0.742949 10.6281 0.123397 11.9423 0.00911268 13.3456C-0.0125692 13.5414 0.00453101 13.7396 0.0594367 13.9288C0.114342 14.118 0.205978 14.2945 0.329111 14.4483C0.452244 14.602 0.604462 14.7301 0.777073 14.825C0.949684 14.92 1.13931 14.98 1.33511 15.0016C1.38991 15.0075 1.44499 15.0105 1.50011 15.0106C1.86939 15.0106 2.22569 14.8745 2.5008 14.6281C2.77591 14.3818 2.95049 14.0427 2.99111 13.6756ZM12.0771 16.0106C12.7693 16.0106 13.446 15.8054 14.0216 15.4208C14.5972 15.0362 15.0458 14.4896 15.3107 13.85C15.5756 13.2105 15.6449 12.5067 15.5099 11.8278C15.3748 11.1489 15.0415 10.5252 14.552 10.0357C14.0625 9.54626 13.4389 9.21292 12.7599 9.07787C12.081 8.94283 11.3773 9.01214 10.7377 9.27704C10.0982 9.54195 9.55155 9.99055 9.16697 10.5661C8.78238 11.1417 8.57711 11.8184 8.57711 12.5106C8.57711 13.4389 8.94586 14.3291 9.60224 14.9855C10.2586 15.6419 11.1489 16.0106 12.0771 16.0106ZM18.0771 7.01062C18.7693 7.01062 19.446 6.80535 20.0216 6.42077C20.5972 6.03618 21.0458 5.48956 21.3107 4.85001C21.5756 4.21047 21.6449 3.50674 21.5099 2.82781C21.3748 2.14887 21.0415 1.52523 20.552 1.03575C20.0625 0.546264 19.4389 0.212921 18.7599 0.0778732C18.081 -0.0571751 17.3773 0.0121366 16.7377 0.277043C16.0982 0.54195 15.5516 0.990554 15.167 1.56613C14.7824 2.1417 14.5771 2.81839 14.5771 3.51062C14.5771 3.97025 14.6676 4.42537 14.8435 4.85001C15.0194 5.27465 15.2772 5.66049 15.6022 5.9855C15.9272 6.3105 16.3131 6.56831 16.7377 6.7442C17.1624 6.92009 17.6175 7.01062 18.0771 7.01062ZM6.07711 7.01062C6.76935 7.01062 7.44604 6.80535 8.02161 6.42077C8.59718 6.03618 9.04578 5.48956 9.31069 4.85001C9.5756 4.21047 9.64491 3.50674 9.50986 2.82781C9.37481 2.14887 9.04147 1.52523 8.55199 1.03575C8.0625 0.546264 7.43886 0.212921 6.75993 0.0778732C6.081 -0.0571751 5.37726 0.0121366 4.73772 0.277043C4.09818 0.54195 3.55155 0.990554 3.16697 1.56613C2.78238 2.1417 2.57711 2.81839 2.57711 3.51062C2.57711 4.43888 2.94586 5.32912 3.60224 5.9855C3.92724 6.3105 4.31308 6.56831 4.73772 6.7442C5.16236 6.92009 5.61749 7.01062 6.07711 7.01062Z" fill="#E0E0E0"/>
</svg>
