<svg width="20" height="29" viewBox="0 0 20 29" fill="none" xmlns="http://www.w3.org/2000/svg">
<g clip-path="url(#clip0_2296_15563)">
<path d="M5.50439 21.355C6.33185 22.4176 7.08499 23.5368 7.75837 24.7047C8.33326 25.803 8.57292 26.5477 8.99306 27.8711C9.25073 28.6023 9.4836 28.8205 9.98428 28.8205C10.5299 28.8205 10.7774 28.4493 10.9686 27.8751C11.3658 26.6253 11.6774 25.6716 12.169 24.7703C13.1337 23.0304 14.3325 21.4842 15.5103 19.9983C15.8292 19.5777 17.8908 17.1276 18.819 15.1943C18.819 15.1943 19.9597 13.0706 19.9597 10.1047C19.9597 7.3304 18.8347 5.40625 18.8347 5.40625L15.5958 6.28023L13.6288 11.5001L13.1421 12.2199L13.0449 12.3503L12.9154 12.5135L12.6882 12.7742L12.3636 13.1013L10.612 14.5391L6.23288 17.0867L5.50439 21.355Z" fill="#13BEED"/>
<path d="M0.985352 14.8333C2.05414 17.293 4.11516 19.4553 5.50959 21.3528L12.9161 12.513C12.9161 12.513 11.8727 13.8879 9.97989 13.8879C7.87155 13.8879 6.1683 12.1916 6.1683 10.0526C6.1683 8.5858 7.04413 7.57812 7.04413 7.57812L2.01641 8.93551L0.985352 14.8333Z" fill="#13BEED"/>
<path d="M13.001 0.457031C15.4608 1.25615 17.5663 2.93379 18.8398 5.40765L12.9205 12.5149C12.9205 12.5149 13.7963 11.489 13.7963 10.0313C13.7963 7.84255 11.9671 6.20739 9.99099 6.20739C8.1223 6.20739 7.04907 7.5801 7.04907 7.5801V3.1026L13.001 0.457031Z" fill="#13BEED"/>
<path d="M2.33887 3.59496C3.80807 1.82383 6.39331 0 9.95744 0C11.6866 0 12.9894 0.457412 12.9894 0.457412L7.03806 7.58158H2.82146L2.33887 3.59496Z" fill="#13BEED"/>
<path d="M0.983263 14.8367C0.983263 14.8367 0 12.8967 0 10.086C0 7.42963 1.0249 5.10762 2.34004 3.59375L7.04259 7.581L0.983263 14.8367Z" fill="#13BEED"/>
</g>
<defs>
<clipPath id="clip0_2296_15563">
<rect width="19.9584" height="28.8288" fill="white"/>
</clipPath>
</defs>
</svg>
