<svg width="27" height="27" viewBox="0 0 27 27" fill="none" xmlns="http://www.w3.org/2000/svg">
<path d="M11.7064 5.05407C11.7487 5.05372 11.791 5.05338 11.8346 5.05302C11.9744 5.05198 12.1143 5.05137 12.2542 5.05084C12.3021 5.05062 12.3501 5.05041 12.3995 5.05019C12.6535 5.04909 12.9076 5.04833 13.1616 5.04784C13.4228 5.04726 13.6841 5.04545 13.9453 5.04335C14.1471 5.04196 14.3489 5.04153 14.5508 5.04134C14.647 5.04108 14.7432 5.04047 14.8394 5.03949C15.6291 5.03193 16.2203 5.11976 16.8134 5.68262C17.0622 5.94446 17.4022 6.37638 17.4022 6.75091C17.4321 6.75055 17.4619 6.7502 17.4927 6.74984C17.8059 6.74632 18.119 6.74395 18.4321 6.74222C18.5488 6.74142 18.6654 6.74035 18.782 6.73897C18.9503 6.73704 19.1187 6.73615 19.287 6.73546C19.3385 6.73464 19.39 6.73382 19.4431 6.73298C20.1803 6.7328 20.7567 7.01889 21.2891 7.51823C21.8721 8.14102 21.9689 8.86667 21.9646 9.68198C21.9649 9.77455 21.9653 9.86713 21.9657 9.95971C21.9667 10.2097 21.9663 10.4596 21.9657 10.7095C21.9651 10.972 21.9656 11.2345 21.966 11.497C21.9663 11.9378 21.9658 12.3786 21.9648 12.8193C21.9637 13.3276 21.9641 13.8359 21.9652 14.3442C21.9662 14.7819 21.9663 15.2196 21.9658 15.6573C21.9654 15.9182 21.9654 16.179 21.9661 16.4399C21.9667 16.6853 21.9663 16.9307 21.965 17.1761C21.9648 17.2657 21.9648 17.3553 21.9653 17.4449C21.9694 18.3154 21.7849 18.9557 21.1826 19.6049C20.5684 20.1862 19.8233 20.3122 19.0086 20.3107C18.9596 20.3108 18.9106 20.3109 18.8601 20.3111C18.6967 20.3114 18.5334 20.3113 18.37 20.3113C18.2525 20.3115 18.135 20.3116 18.0175 20.3118C17.6989 20.3123 17.3803 20.3124 17.0617 20.3125C16.8625 20.3125 16.6633 20.3126 16.4641 20.3127C15.8044 20.3132 15.1448 20.3135 14.4851 20.3134C14.4496 20.3134 14.4141 20.3134 14.3775 20.3134C14.342 20.3134 14.3064 20.3134 14.2698 20.3134C13.6939 20.3134 13.1181 20.3139 12.5422 20.3146C11.9499 20.3154 11.3575 20.3157 10.7652 20.3157C10.4331 20.3157 10.1009 20.3158 9.76882 20.3164C9.45631 20.3169 9.1438 20.3169 8.83128 20.3165C8.71692 20.3165 8.60255 20.3166 8.48819 20.3169C7.42761 20.3197 6.537 20.282 5.73923 19.5073C5.29458 19.036 5.04991 18.4993 5.04823 17.8462C5.04799 17.8075 5.04775 17.7688 5.04751 17.729C5.04684 17.6003 5.04693 17.4716 5.04701 17.3429C5.0467 17.2503 5.04634 17.1577 5.04594 17.0651C5.04501 16.814 5.04476 16.563 5.04469 16.3119C5.04462 16.1549 5.04439 15.9978 5.04411 15.8408C5.04314 15.2924 5.04271 14.7439 5.04279 14.1955C5.04285 13.6852 5.04174 13.175 5.04007 12.6647C5.03869 12.2258 5.03813 11.787 5.0382 11.3481C5.03822 11.0863 5.03793 10.8245 5.03681 10.5628C5.03578 10.3164 5.03578 10.07 5.03655 9.82365C5.03666 9.73359 5.03641 9.64352 5.03577 9.55345C5.03042 8.74867 5.19603 8.05588 5.76106 7.44964C6.19482 7.04275 6.77598 6.7433 7.37643 6.74492C7.42603 6.74492 7.47563 6.74493 7.52674 6.74493C7.60602 6.74534 7.60602 6.74534 7.6869 6.74576C7.74154 6.74583 7.79618 6.7459 7.85247 6.74598C8.02656 6.74628 8.20063 6.74694 8.37471 6.74761C8.49292 6.74787 8.61112 6.74811 8.72933 6.74833C9.01872 6.74891 9.3081 6.74979 9.59749 6.75091C9.61356 6.70165 9.62963 6.65239 9.64618 6.60164C9.85349 5.99136 10.1968 5.54596 10.7708 5.25127C11.0952 5.09709 11.3481 5.05535 11.7064 5.05407ZM11.4237 6.92979C11.3444 7.05668 11.2742 7.18076 11.211 7.31636C11.1891 7.36214 11.1672 7.40792 11.1446 7.45509C11.0997 7.55042 11.0551 7.64587 11.0107 7.74143C10.8579 8.05914 10.7379 8.26185 10.394 8.38973C10.111 8.46696 9.82093 8.45308 9.52972 8.45283C9.40259 8.45389 9.27545 8.45499 9.14832 8.45612C8.94893 8.45731 8.74955 8.45818 8.55015 8.45849C8.357 8.45899 8.1639 8.46077 7.97076 8.46271C7.91126 8.46245 7.85176 8.46218 7.79046 8.46191C7.46289 8.46601 7.26077 8.47919 7.01351 8.70208C6.77303 9.00755 6.7434 9.25068 6.74243 9.63099C6.74227 9.66534 6.74211 9.69968 6.74195 9.73507C6.7415 9.84974 6.74142 9.96442 6.74134 10.0791C6.74109 10.1615 6.74083 10.2439 6.74054 10.3263C6.73985 10.5499 6.73951 10.7735 6.73928 10.997C6.73912 11.1369 6.73891 11.2767 6.73867 11.4165C6.73795 11.8543 6.73744 12.2921 6.73724 12.7299C6.737 13.2346 6.73607 13.7393 6.73455 14.244C6.7334 14.6346 6.73287 15.0252 6.7328 15.4158C6.73275 15.6488 6.73244 15.8819 6.73149 16.1149C6.73062 16.3343 6.73051 16.5537 6.73098 16.773C6.73102 16.8533 6.73079 16.9335 6.73027 17.0138C6.71577 17.6993 6.71577 17.6993 6.99682 18.308C7.02734 18.3314 7.05786 18.3547 7.08931 18.3788C7.1197 18.4033 7.15008 18.4278 7.18139 18.453C7.34685 18.5526 7.50949 18.57 7.69999 18.5702C7.76283 18.5704 7.76283 18.5704 7.82693 18.5707C7.87264 18.5706 7.91835 18.5705 7.96545 18.5705C8.03866 18.5706 8.03866 18.5706 8.11334 18.5708C8.27725 18.5712 8.44116 18.5711 8.60508 18.5711C8.72245 18.5712 8.83981 18.5714 8.95718 18.5716C9.27631 18.5721 9.59545 18.5722 9.91458 18.5722C10.1809 18.5723 10.4472 18.5725 10.7135 18.5727C11.3058 18.5731 11.8981 18.5732 12.4905 18.5732C12.526 18.5732 12.5616 18.5732 12.5982 18.5732C12.6516 18.5732 12.6516 18.5732 12.706 18.5732C13.2826 18.5731 13.8591 18.5737 14.4357 18.5744C15.0278 18.5752 15.62 18.5755 16.2122 18.5755C16.5445 18.5755 16.8769 18.5756 17.2093 18.5762C17.5219 18.5767 17.8346 18.5767 18.1472 18.5763C18.262 18.5762 18.3767 18.5764 18.4914 18.5767C18.6481 18.5771 18.8047 18.5768 18.9614 18.5764C19.0294 18.5768 19.0294 18.5768 19.0988 18.5773C19.4198 18.5754 19.7632 18.5609 20.0026 18.3195C20.0275 18.296 20.0523 18.2725 20.0778 18.2482C20.3231 17.8549 20.2651 17.35 20.2643 16.9048C20.2645 16.8223 20.2648 16.7399 20.2651 16.6575C20.2658 16.4346 20.2659 16.2117 20.2657 15.9887C20.2657 15.8023 20.2659 15.6158 20.2662 15.4293C20.2668 14.9892 20.2668 14.5491 20.2665 14.109C20.2662 13.6558 20.2668 13.2026 20.2679 12.7494C20.2689 12.3594 20.2692 11.9695 20.269 11.5796C20.2689 11.3471 20.269 11.1146 20.2698 10.882C20.2704 10.6633 20.2703 10.4446 20.2697 10.2259C20.2695 10.1459 20.2697 10.0659 20.2701 9.98591C20.2946 9.31099 20.2946 9.31099 20.0151 8.7228C19.8066 8.54249 19.6731 8.48471 19.4039 8.48282C19.3484 8.48228 19.293 8.48174 19.2358 8.48118C19.1756 8.4808 19.1153 8.48041 19.0532 8.48002C18.9259 8.47854 18.7987 8.47702 18.6714 8.47548C18.4705 8.47331 18.2696 8.47137 18.0688 8.46997C17.875 8.46851 17.6814 8.46609 17.4877 8.46354C17.4282 8.46337 17.3686 8.46319 17.3073 8.46302C16.9231 8.45709 16.5252 8.44274 16.229 8.17185C16.0959 7.94824 15.9819 7.71726 15.8696 7.48259C15.8242 7.38783 15.7786 7.2932 15.7326 7.19874C15.7027 7.13622 15.7027 7.13622 15.6722 7.07244C15.6041 6.95286 15.5615 6.88623 15.451 6.80364C15.2788 6.77872 15.2788 6.77872 15.0782 6.7815C15.0216 6.78083 15.0216 6.78083 14.9638 6.78014C14.839 6.77891 14.7142 6.77886 14.5893 6.77892C14.5026 6.77855 14.4158 6.77814 14.3291 6.7777C14.1472 6.77699 13.9653 6.77691 13.7834 6.77722C13.5503 6.77753 13.3173 6.77592 13.0842 6.77379C12.905 6.77242 12.7258 6.77227 12.5466 6.77246C12.4607 6.77237 12.3748 6.77186 12.2888 6.77093C12.1686 6.76976 12.0485 6.77027 11.9283 6.7712C11.8599 6.77109 11.7916 6.77098 11.7211 6.77087C11.5402 6.78838 11.5402 6.78838 11.4237 6.92979Z" fill="white"/>
<path d="M15.5465 10.7543C16.2407 11.2867 16.741 12.0461 16.875 12.9182C16.928 13.5623 16.934 14.2197 16.664 14.8167C16.639 14.8732 16.614 14.9297 16.5882 14.9879C16.1566 15.8688 15.4604 16.412 14.5547 16.7679C13.6865 17.0572 12.7377 16.9352 11.918 16.5569C11.0453 16.0643 10.4671 15.3217 10.1715 14.3616C9.96429 13.4882 10.106 12.5369 10.5467 11.767C10.9872 11.0706 11.5642 10.5707 12.3398 10.2815C12.3809 10.2647 12.4219 10.2479 12.4642 10.2307C13.501 9.8724 14.6738 10.1437 15.5465 10.7543ZM12.1816 12.4436C11.8624 12.9137 11.8084 13.3601 11.8652 13.9202C12.0147 14.4011 12.2872 14.7357 12.7174 14.9893C13.1112 15.1852 13.5323 15.2386 13.9591 15.1253C14.4499 14.943 14.8017 14.6417 15.0491 14.1839C15.2179 13.7688 15.2016 13.2612 15.0524 12.8424C14.8422 12.4 14.5284 12.1094 14.0801 11.9163C13.3871 11.6887 12.654 11.9062 12.1816 12.4436Z" fill="white"/>
<path d="M24.7851 20.2486C25.0474 20.3704 25.1717 20.5266 25.3125 20.776C25.3392 20.964 25.3392 20.964 25.3397 21.1748C25.3401 21.2134 25.3405 21.252 25.3409 21.2918C25.3418 21.4187 25.3412 21.5455 25.3405 21.6724C25.3406 21.7611 25.3408 21.8497 25.3411 21.9384C25.3414 22.1238 25.3409 22.3093 25.34 22.4948C25.3387 22.732 25.3394 22.9692 25.3407 23.2065C25.3415 23.3895 25.3412 23.5724 25.3407 23.7554C25.3405 23.8428 25.3407 23.9303 25.3412 24.0178C25.3417 24.1402 25.3409 24.2625 25.3397 24.385C25.3396 24.4545 25.3394 24.524 25.3392 24.5957C25.2979 24.8862 25.1723 25.0456 24.9433 25.2221C24.6983 25.3599 24.508 25.3707 24.2277 25.3723C24.1762 25.3727 24.1762 25.3727 24.1237 25.3731C24.0105 25.3739 23.8972 25.3743 23.784 25.3746C23.7049 25.3749 23.6258 25.3752 23.5467 25.3755C23.3809 25.376 23.2151 25.3763 23.0494 25.3765C22.8378 25.3768 22.6262 25.3781 22.4146 25.3796C22.2512 25.3806 22.0878 25.3808 21.9244 25.3809C21.8464 25.3811 21.7684 25.3815 21.6905 25.3822C20.7618 25.3899 20.7618 25.3899 20.4851 25.1291C20.2461 24.8535 20.2315 24.6634 20.2353 24.3083C20.2611 24.0313 20.3864 23.9015 20.5861 23.7221C20.84 23.5582 21.1401 23.5978 21.4311 23.603C21.4939 23.6033 21.5566 23.6036 21.6213 23.6039C21.8212 23.6051 22.021 23.6077 22.2209 23.6104C22.3566 23.6115 22.4924 23.6124 22.6281 23.6133C22.9604 23.6156 23.2927 23.6192 23.625 23.6236C23.6245 23.5886 23.624 23.5537 23.6235 23.5176C23.6189 23.1532 23.6157 22.7888 23.6134 22.4243C23.6123 22.2884 23.6109 22.1524 23.609 22.0165C23.6065 21.8209 23.6053 21.6254 23.6044 21.4298C23.6033 21.3691 23.6022 21.3085 23.6011 21.246C23.601 20.9137 23.6102 20.7108 23.8359 20.4595C24.1139 20.1955 24.4217 20.1997 24.7851 20.2486Z" fill="white"/>
<path d="M2.84739 20.2486C3.09209 20.3622 3.27116 20.524 3.37473 20.776C3.40366 20.9941 3.39927 21.21 3.39533 21.4298C3.39503 21.4925 3.39473 21.5553 3.39443 21.62C3.39325 21.8198 3.3906 22.0197 3.38791 22.2196C3.38686 22.3553 3.38589 22.4911 3.38503 22.6268C3.38271 22.9591 3.37918 23.2913 3.37473 23.6236C3.4097 23.6231 3.44468 23.6227 3.48071 23.6222C3.84514 23.6175 4.20955 23.6143 4.574 23.612C4.70996 23.611 4.84592 23.6095 4.98187 23.6077C5.17744 23.6051 5.37298 23.6039 5.56856 23.603C5.62922 23.6019 5.68988 23.6008 5.75237 23.5997C6.08467 23.5996 6.28757 23.6089 6.53879 23.8345C6.73013 24.036 6.76608 24.1975 6.7761 24.4674C6.76608 24.7372 6.73013 24.8988 6.53879 25.1002C6.23973 25.3307 6.03603 25.3702 5.66502 25.3723C5.61353 25.3727 5.61353 25.3727 5.56099 25.3731C5.44775 25.3739 5.33451 25.3743 5.22126 25.3746C5.14217 25.3749 5.06309 25.3752 4.984 25.3755C4.81821 25.376 4.65242 25.3763 4.48663 25.3765C4.27504 25.3768 4.06346 25.3781 3.85188 25.3796C3.68846 25.3806 3.52505 25.3808 3.36163 25.3809C3.28368 25.3811 3.20572 25.3815 3.12777 25.3822C2.19912 25.3899 2.19912 25.3899 1.92239 25.1291C1.70997 24.8842 1.67911 24.7215 1.6779 24.4089C1.67755 24.3703 1.6772 24.3317 1.67685 24.2919C1.67581 24.1639 1.67519 24.0359 1.67467 23.9079C1.67445 23.8642 1.67424 23.8204 1.67401 23.7754C1.67291 23.5439 1.67216 23.3124 1.67167 23.0809C1.67108 22.8419 1.66927 22.603 1.66717 22.3641C1.66579 22.1803 1.66535 21.9964 1.66516 21.8126C1.66491 21.7245 1.6643 21.6365 1.66332 21.5484C1.66203 21.425 1.66208 21.3016 1.66245 21.1781C1.66177 21.1419 1.6611 21.1058 1.6604 21.0685C1.66321 20.8071 1.73704 20.662 1.89817 20.4595C2.17615 20.1955 2.48395 20.1997 2.84739 20.2486Z" fill="white"/>
<path d="M21.1761 1.65787C21.2147 1.6575 21.2533 1.65713 21.2931 1.65675C21.42 1.65583 21.5469 1.65644 21.6738 1.65715C21.7624 1.65701 21.8511 1.65681 21.9397 1.65654C22.1252 1.65623 22.3106 1.65668 22.4961 1.65767C22.7334 1.65887 22.9706 1.65818 23.2078 1.65691C23.3908 1.65615 23.5737 1.6564 23.7567 1.65694C23.8442 1.65708 23.9316 1.65691 24.0191 1.65642C24.1415 1.65588 24.2639 1.6567 24.3863 1.65787C24.4558 1.65804 24.5254 1.65821 24.597 1.65838C24.888 1.69982 25.0383 1.82117 25.225 2.04257C25.3298 2.24635 25.3392 2.38273 25.3397 2.61132C25.3401 2.64994 25.3405 2.68857 25.3409 2.72837C25.3418 2.85527 25.3412 2.9821 25.3405 3.109C25.3406 3.19764 25.3408 3.28629 25.3411 3.37493C25.3414 3.56041 25.3409 3.74585 25.3399 3.93132C25.3387 4.16859 25.3394 4.40581 25.3407 4.64307C25.3415 4.82603 25.3412 5.00897 25.3407 5.19193C25.3405 5.27939 25.3407 5.36685 25.3412 5.45431C25.3417 5.57674 25.3409 5.69909 25.3397 5.82152C25.3396 5.89106 25.3394 5.9606 25.3392 6.03225C25.2988 6.31638 25.1727 6.47684 24.9565 6.65868C24.6764 6.80408 24.4405 6.8387 24.1424 6.74437C23.8927 6.63818 23.7462 6.46282 23.6249 6.22032C23.6202 6.13092 23.6187 6.04132 23.619 5.95179C23.619 5.89584 23.619 5.83989 23.619 5.78225C23.6192 5.72165 23.6195 5.66106 23.6198 5.59864C23.6199 5.53675 23.6199 5.47486 23.62 5.4111C23.6203 5.21282 23.621 5.01455 23.6216 4.81627C23.6219 4.6821 23.6222 4.54793 23.6224 4.41376C23.6229 4.08431 23.6238 3.75485 23.6249 3.4254C23.5928 3.42575 23.5607 3.42611 23.5277 3.42647C23.1923 3.42998 22.857 3.43236 22.5216 3.43409C22.3966 3.43489 22.2716 3.43596 22.1466 3.43734C21.9664 3.43927 21.7863 3.44016 21.6062 3.44085C21.5507 3.44167 21.4952 3.44249 21.438 3.44333C21.0982 3.4434 20.7478 3.43663 20.4843 3.19062C20.2468 2.9139 20.2315 2.72533 20.2353 2.36989C20.255 2.15766 20.3146 2.05009 20.4609 1.89611C20.7051 1.70225 20.866 1.65862 21.1761 1.65787Z" fill="white"/>
<path d="M2.61338 1.65787C2.65201 1.6575 2.69064 1.65713 2.73043 1.65675C2.85733 1.65583 2.98416 1.65644 3.11106 1.65715C3.19971 1.65701 3.28835 1.65681 3.377 1.65654C3.56247 1.65623 3.74792 1.65668 3.93339 1.65767C4.17065 1.65887 4.40787 1.65818 4.64513 1.65691C4.82809 1.65615 5.01103 1.6564 5.19399 1.65694C5.28145 1.65708 5.36891 1.65691 5.45637 1.65642C5.57881 1.65588 5.70116 1.6567 5.82358 1.65787C5.89312 1.65804 5.96267 1.65821 6.03431 1.65838C6.3135 1.69814 6.47327 1.82713 6.66404 2.02794C6.7905 2.30031 6.78948 2.55002 6.74973 2.84532C6.62891 3.10555 6.47056 3.23307 6.22239 3.37267C6.06093 3.42427 5.91445 3.43182 5.74546 3.43139C5.69269 3.43139 5.63991 3.43138 5.58554 3.43138C5.52896 3.43111 5.47237 3.43083 5.41407 3.43055C5.35584 3.43048 5.29762 3.4304 5.23762 3.43033C5.05172 3.43003 4.86581 3.42937 4.67991 3.4287C4.55384 3.42843 4.42777 3.42819 4.3017 3.42798C3.99271 3.4274 3.68372 3.42651 3.37473 3.4254C3.3752 3.45972 3.37567 3.49403 3.37615 3.52938C3.38082 3.88696 3.384 4.24454 3.38632 4.60214C3.38738 4.73554 3.38882 4.86894 3.39064 5.00234C3.39321 5.19424 3.3944 5.38612 3.39533 5.57804C3.39642 5.63754 3.39751 5.69704 3.39863 5.75835C3.39872 6.0878 3.38792 6.28799 3.16379 6.53673C2.93798 6.72662 2.72125 6.81372 2.42551 6.8004C2.09723 6.73729 1.92905 6.59509 1.73997 6.32579C1.66266 6.17117 1.67855 6.01502 1.6779 5.84547C1.67755 5.80687 1.6772 5.76827 1.67685 5.72851C1.67581 5.60048 1.67519 5.47246 1.67467 5.34444C1.67445 5.30071 1.67424 5.25699 1.67401 5.21194C1.67291 4.98044 1.67216 4.74893 1.67167 4.51743C1.67108 4.2785 1.66927 4.03961 1.66717 3.8007C1.66579 3.61684 1.66535 3.43299 1.66516 3.24912C1.66491 3.16107 1.6643 3.07302 1.66332 2.98497C1.66203 2.86152 1.66208 2.73813 1.66245 2.61466C1.66177 2.57849 1.6611 2.54232 1.6604 2.50505C1.66323 2.24249 1.72969 2.09531 1.89817 1.89611C2.13675 1.69486 2.30445 1.65862 2.61338 1.65787Z" fill="white"/>
</svg>
