<svg width="24" height="25" viewBox="0 0 24 25" fill="none" xmlns="http://www.w3.org/2000/svg">
<g clip-path="url(#clip0_99_17900)">
<path d="M18.713 12.358H14C12.8954 12.358 12 11.4625 12 10.358V5.63197C12.0027 4.69963 11.5718 3.81894 10.834 3.24899C10.1348 2.6953 9.21799 2.49796 8.35296 2.71499C2.47343 4.17449 -1.10974 10.124 0.349802 16.0036C1.3781 20.146 4.71597 23.3158 8.90599 24.129C14.6299 25.2246 20.2149 21.6658 21.64 16.015C21.8578 15.1488 21.6609 14.2306 21.107 13.53C20.5305 12.7934 19.6483 12.3615 18.713 12.358Z" fill="#E0E0E0"/>
<path d="M23.651 7.80408C23.4227 6.95555 23.0827 6.1411 22.64 5.3821C21.3083 3.0975 19.1329 1.42702 16.582 0.730081C16.414 0.684753 16.038 0.658081 16.038 0.658081C15.9036 0.658128 15.325 0.658081 14.867 1.0291C14.1938 1.55883 14.088 2.16108 14.078 2.2081C14.0431 2.35557 14.0249 2.50655 14.024 2.6581V7.35811C14.024 9.01496 15.3671 10.3581 17.024 10.3581H21.743C22.3691 10.3599 22.9583 10.0627 23.329 9.5581C23.6031 9.18849 23.7441 8.73699 23.729 8.2771C23.721 8.11697 23.6949 7.95825 23.651 7.80408Z" fill="#E0E0E0"/>
</g>
<defs>
<clipPath id="clip0_99_17900">
<rect width="24" height="24" fill="white" transform="translate(0 0.358032)"/>
</clipPath>
</defs>
</svg>
