<svg width="20" height="20" viewBox="0 0 20 20" fill="none" xmlns="http://www.w3.org/2000/svg">
<path fill-rule="evenodd" clip-rule="evenodd" d="M16.0539 5.78016L19.9001 1.95626L18.0438 0.100006L14.2237 3.93623L12.8513 2.55643C12.5549 2.25324 12.2536 1.93768 11.8947 1.93768C11.5346 1.93768 11.2444 2.22852 11.245 2.59359L11.2518 8.05093C11.2525 8.24274 11.3391 8.41601 11.4709 8.53357C11.5903 8.66351 11.7586 8.75631 11.9498 8.75631L17.3762 8.76251C17.7351 8.76251 18.0265 8.47166 18.0259 8.10659C18.0253 7.74772 17.6058 7.3394 17.4263 7.15996L16.0539 5.78016ZM8.53304 11.4602C8.41548 11.3303 8.2509 11.2437 8.06218 11.2437L2.72607 11.2375C2.37338 11.2375 2.08753 11.5221 2.08753 11.8748C2.08814 12.2275 2.50023 12.6297 2.6772 12.803L4.02669 14.1518L0.100098 18.0438L1.95635 19.9L5.82601 15.9524L7.1755 17.3013C7.46693 17.5921 7.76393 17.9076 8.11662 17.9076C8.46992 17.9076 8.7558 17.623 8.75518 17.2703L8.74836 11.9305C8.74836 11.7449 8.66298 11.5778 8.53304 11.4602Z" fill="#88774F"/>
</svg>
