<svg width="25" height="25" viewBox="0 0 25 25" fill="none" xmlns="http://www.w3.org/2000/svg">
<g clip-path="url(#clip0_249_17504)">
<path d="M12.4988 12.5C13.3229 12.5 14.1285 12.2556 14.8137 11.7978C15.4989 11.34 16.033 10.6892 16.3483 9.92785C16.6637 9.16649 16.7462 8.32871 16.5854 7.52046C16.4247 6.7122 16.0278 5.96977 15.4451 5.38705C14.8624 4.80434 14.12 4.4075 13.3117 4.24673C12.5035 4.08596 11.6657 4.16847 10.9043 4.48384C10.143 4.7992 9.49222 5.33325 9.03438 6.01846C8.57654 6.70366 8.33217 7.50924 8.33217 8.33333C8.33217 9.4384 8.77116 10.4982 9.55256 11.2796C10.334 12.061 11.3938 12.5 12.4988 12.5ZM12.4988 6.25C12.9109 6.25 13.3137 6.37219 13.6563 6.6011C13.9989 6.83002 14.2659 7.1554 14.4236 7.53608C14.5813 7.91676 14.6225 8.33564 14.5421 8.73977C14.4618 9.1439 14.2633 9.51511 13.972 9.80647C13.6806 10.0978 13.3094 10.2963 12.9053 10.3766C12.5011 10.457 12.0823 10.4158 11.7016 10.2581C11.3209 10.1004 10.9955 9.83337 10.7666 9.49077C10.5377 9.14817 10.4155 8.74538 10.4155 8.33333C10.4155 7.7808 10.635 7.25089 11.0257 6.86019C11.4164 6.46949 11.9463 6.25 12.4988 6.25ZM21.5197 9.53854L20.7707 9.28958C20.9055 8.12284 20.7921 6.94078 20.438 5.82092C20.0839 4.70107 19.4971 3.66871 18.716 2.79155C17.935 1.9144 16.9773 1.21225 15.9058 0.73116C14.8344 0.25007 13.6733 0.000903626 12.4988 0C11.309 0.000459343 10.1331 0.255931 9.05031 0.749203C7.96754 1.24247 7.00307 1.96209 6.22188 2.85956C5.44069 3.75703 4.86093 4.81151 4.52166 5.95195C4.18239 7.09239 4.09149 8.2923 4.25509 9.47083C3.25825 9.6567 2.33647 10.127 1.60092 10.825C1.09173 11.3091 0.686931 11.8923 0.411419 12.5386C0.135907 13.1849 -0.00449714 13.8807 -0.00116267 14.5833V18.8281C0.00102649 19.9545 0.367371 21.05 1.0432 21.9511C1.71903 22.8522 2.66812 23.5106 3.74884 23.8281L6.73842 24.7656C7.24057 24.9219 7.76356 25.0009 8.28946 25C8.76654 24.9994 9.24133 24.9342 9.70092 24.8062L15.7218 23.025C16.2581 22.8786 16.8239 22.8786 17.3603 23.025L19.8468 23.8583C20.4596 24.0075 21.0982 24.0156 21.7146 23.882C22.331 23.7484 22.9091 23.4767 23.4051 23.0872C23.9012 22.6977 24.3024 22.2007 24.5785 21.6337C24.8546 21.0666 24.9983 20.4442 24.9988 19.8135V14.45C24.9965 13.3723 24.6609 12.3217 24.038 11.4422C23.4151 10.5628 22.5355 9.89745 21.5197 9.5375V9.53854ZM8.08009 3.91875C8.65952 3.33697 9.34814 2.87534 10.1064 2.56035C10.8647 2.24536 11.6777 2.08321 12.4988 2.08321C13.3199 2.08321 14.133 2.24536 14.8913 2.56035C15.6495 2.87534 16.3382 3.33697 16.9176 3.91875C18.0865 5.09494 18.7435 6.68523 18.7457 8.34347C18.7478 10.0017 18.0949 11.5937 16.929 12.7729L13.228 16.3719C13.0348 16.5613 12.7751 16.6674 12.5046 16.6674C12.234 16.6674 11.9743 16.5613 11.7811 16.3719L8.08009 12.7885C6.9087 11.6098 6.25124 10.0155 6.25124 8.35365C6.25124 6.69183 6.9087 5.09751 8.08009 3.91875ZM22.9155 19.8135C22.9161 20.129 22.8448 20.4405 22.7069 20.7243C22.569 21.008 22.3681 21.2566 22.1197 21.451C21.8849 21.6398 21.6114 21.7745 21.3187 21.8456C21.0259 21.9168 20.7211 21.9225 20.4259 21.8625L17.9832 21.0417C17.0593 20.7762 16.08 20.7705 15.153 21.025L9.128 22.8042C8.54912 22.9638 7.9365 22.9534 7.36342 22.774L4.34884 21.8365C3.69639 21.6478 3.12275 21.2526 2.71404 20.7101C2.30534 20.1677 2.08362 19.5073 2.08217 18.8281V14.5833C2.07983 14.1623 2.16364 13.7452 2.32844 13.3577C2.49325 12.9702 2.73557 12.6206 3.0405 12.3302C3.51785 11.8753 4.12594 11.5816 4.77905 11.4906C5.19895 12.5314 5.82423 13.477 6.61759 14.2708L10.3332 17.8677C10.914 18.4364 11.6944 18.7548 12.5072 18.7548C13.32 18.7548 14.1004 18.4364 14.6811 17.8677L18.3926 14.2604C19.2236 13.4261 19.8674 12.4244 20.2811 11.3219L20.8405 11.5073C21.4471 11.7247 21.9719 12.1239 22.3433 12.6506C22.7146 13.1772 22.9145 13.8056 22.9155 14.45V19.8135Z" fill="white"/>
</g>
<defs>
<clipPath id="clip0_249_17504">
<rect width="25" height="25" fill="white"/>
</clipPath>
</defs>
</svg>
