<svg width="21" height="21" viewBox="0 0 21 21" fill="none" xmlns="http://www.w3.org/2000/svg">
<path d="M18.293 5.12527L20.4045 3.01379C20.8879 2.53039 20.8879 1.74535 20.4045 1.26195C19.9211 0.778555 19.1361 0.778555 18.6527 1.26195L16.5412 3.37344H7.15552V5.84844H14.0662L5.91802 13.9966V2.13594C5.91802 1.45145 5.36501 0.898438 4.68052 0.898438C3.99603 0.898438 3.44302 1.45145 3.44302 2.13594V3.37344H2.20552C1.52103 3.37344 0.968018 3.92645 0.968018 4.61094C0.968018 5.29543 1.52103 5.84844 2.20552 5.84844H3.44302V15.7484C3.44302 17.1136 4.5529 18.2234 5.91802 18.2234H14.5805V15.7484H7.66985L15.818 7.60027V19.4609C15.818 20.1454 16.371 20.6984 17.0555 20.6984C17.74 20.6984 18.293 20.1454 18.293 19.4609V18.2234H19.5305C20.215 18.2234 20.768 17.6704 20.768 16.9859C20.768 16.3014 20.215 15.7484 19.5305 15.7484H18.293V5.12527Z" fill="black"/>
</svg>
