<svg width="23" height="23" viewBox="0 0 23 23" fill="none" xmlns="http://www.w3.org/2000/svg">
<path d="M22.4346 3.3824C22.4346 1.63635 21.015 0.216766 19.2689 0.216766H3.44078C1.69473 0.216766 0.275146 1.63635 0.275146 3.3824V19.2106C0.275146 20.9566 1.69473 22.3762 3.44078 22.3762H19.2689C21.015 22.3762 22.4346 20.9566 22.4346 19.2106V3.3824ZM12.9377 6.54803C12.9377 7.42352 12.2304 8.13085 11.3549 8.13085H6.60641C5.73092 8.13085 5.02359 7.42352 5.02359 6.54803C5.02359 5.67253 5.73092 4.96521 6.60641 4.96521H11.3549C12.2304 4.96521 12.9377 5.67253 12.9377 6.54803ZM16.1033 9.71366C16.9788 9.71366 17.6861 10.421 17.6861 11.2965C17.6861 12.172 16.9788 12.8793 16.1033 12.8793H6.60641C5.73092 12.8793 5.02359 12.172 5.02359 11.2965C5.02359 10.421 5.73092 9.71366 6.60641 9.71366H16.1033ZM9.77204 16.0449C9.77204 16.9204 9.06472 17.6277 8.18923 17.6277H6.60641C5.73092 17.6277 5.02359 16.9204 5.02359 16.0449C5.02359 15.1694 5.73092 14.4621 6.60641 14.4621H8.18923C9.06472 14.4621 9.77204 15.1694 9.77204 16.0449Z" fill="#34C759"/>
</svg>
