<svg width="18" height="24" viewBox="0 0 18 24" fill="none" xmlns="http://www.w3.org/2000/svg">
<path d="M3 0C1.34531 0 0 1.34531 0 3V21C0 22.6547 1.34531 24 3 24H15C16.6547 24 18 22.6547 18 21V12.5C18 9.73858 15.7614 7.5 13 7.5H12C11.1703 7.5 10.5 6.82969 10.5 6V5C10.5 2.23858 8.26142 0 5.5 0H3ZM15 3C13.8929 1.89293 12 2.677 12 4.24264C12 5.2132 12.7868 6 13.7574 6C15.323 6 16.1071 4.10707 15 3ZM7.2961 11.7305C7.29732 11.7292 7.29935 11.7294 7.30034 11.7308L8.07224 12.8345C8.52292 13.4788 9.47708 13.4788 9.92776 12.8345L10.7016 11.7281C11.0578 11.2172 11.7609 11.0953 12.2672 11.4516C12.7734 11.8078 12.9 12.5109 12.5438 13.0172L12.3763 13.257C11.1736 14.9792 11.1756 17.2694 12.3812 18.9895L12.5484 19.2281C12.9047 19.7391 12.7828 20.4375 12.2719 20.7938C11.7609 21.15 11.0625 21.0281 10.7062 20.5172C9.87766 19.3358 8.1255 19.3347 7.29844 20.5172C6.94219 21.0281 6.23906 21.15 5.73281 20.7938C5.22656 20.4375 5.1 19.7344 5.45625 19.2281L5.62018 18.9937C6.82481 17.2713 6.82365 14.9795 5.61727 13.2583L5.45156 13.0219C5.09531 12.5109 5.21719 11.8125 5.72812 11.4562C6.23815 11.1006 6.93501 11.2214 7.29184 11.7301C7.29283 11.7315 7.29487 11.7317 7.2961 11.7305Z" fill="#107C41"/>
</svg>
