<svg width="18" height="18" viewBox="0 0 18 18" fill="none" xmlns="http://www.w3.org/2000/svg">
<g clip-path="url(#clip0_4_1339)">
<path d="M6.63456 9.78849L3.0862 13.3367L1.90353 12.154C1.58462 11.835 1.10498 11.7397 0.688308 11.9122C0.271636 12.0848 0 12.4915 0 12.9425V16.8848C0 17.5007 0.499263 17.9999 1.11509 17.9999L5.05753 18C5.05805 17.9999 5.05842 17.9999 5.05894 18C5.67484 18 6.17403 17.5007 6.17403 16.8849C6.17403 16.5595 6.03464 16.2667 5.81237 16.0628L4.66323 14.9137L8.21145 11.3655C8.64692 10.93 8.64692 10.224 8.21145 9.78856C7.77611 9.35301 7.06997 9.35308 6.63456 9.78849Z" fill="#88774F"/>
<path d="M16.8857 0H12.9433C12.4923 0 12.0857 0.27171 11.9131 0.688382C11.7405 1.10505 11.8359 1.58469 12.1548 1.90361L13.3376 3.08642L9.7895 6.63463C9.35402 7.07011 9.35402 7.77611 9.7895 8.21159C10.0072 8.42933 10.2926 8.53817 10.5779 8.53817C10.8633 8.53817 11.1487 8.42933 11.3664 8.21152L14.9146 4.6633L16.0973 5.84604C16.3105 6.0594 16.5958 6.17269 16.8859 6.17269C17.0296 6.17269 17.1745 6.14496 17.3124 6.08779C17.7291 5.91518 18.0008 5.50854 18.0008 5.0576V1.11509C18.0008 0.499263 17.5015 0 16.8857 0Z" fill="#88774F"/>
</g>
<defs>
<clipPath id="clip0_4_1339">
<rect width="18" height="18" fill="white"/>
</clipPath>
</defs>
</svg>
