<svg width="30" height="30" viewBox="0 0 30 30" fill="none" xmlns="http://www.w3.org/2000/svg">
<g clip-path="url(#clip0_387_5582)">
<path d="M28.0737 10.1254L19.4188 1.83039C18.2458 0.66976 16.6633 0.0171945 15.0132 0.0136861C13.3631 0.0101777 11.7779 0.656008 10.6 1.81164L1.925 10.1254C1.31827 10.7098 0.835203 11.4101 0.504511 12.1849C0.173819 12.9597 0.00225028 13.793 0 14.6354L0 23.7504C0.00198482 25.4074 0.661102 26.9959 1.83277 28.1676C3.00445 29.3393 4.59301 29.9984 6.25 30.0004H23.75C25.407 29.9984 26.9956 29.3393 28.1672 28.1676C29.3389 26.9959 29.998 25.4074 30 23.7504V14.6354C29.9978 13.7929 29.8261 12.9594 29.4952 12.1846C29.1643 11.4098 28.6809 10.7095 28.0737 10.1254ZM12.3487 3.59789C13.0576 2.89538 14.0162 2.50291 15.0141 2.50666C16.0121 2.51041 16.9677 2.91008 17.6712 3.61789L26.105 11.6979L17.6513 20.1529C16.9366 20.8341 15.9873 21.2141 15 21.2141C14.0127 21.2141 13.0634 20.8341 12.3487 20.1529L3.89375 11.6979L12.3487 3.59789ZM27.5 23.7504C27.5 24.745 27.1049 25.6988 26.4017 26.402C25.6984 27.1053 24.7446 27.5004 23.75 27.5004H6.25C5.25544 27.5004 4.30161 27.1053 3.59835 26.402C2.89509 25.6988 2.5 24.745 2.5 23.7504V14.6354C2.50126 14.3927 2.52596 14.1508 2.57375 13.9129L10.5813 21.9204C11.7572 23.0848 13.3451 23.738 15 23.738C16.6549 23.738 18.2428 23.0848 19.4188 21.9204L27.4263 13.9129C27.474 14.1508 27.4987 14.3927 27.5 14.6354V23.7504Z" fill="#D53E4F"/>
</g>
<defs>
<clipPath id="clip0_387_5582">
<rect width="30" height="30" rx="5" fill="white"/>
</clipPath>
</defs>
</svg>
