<svg width="23" height="24" viewBox="0 0 23 24" fill="none" xmlns="http://www.w3.org/2000/svg">
<g clip-path="url(#clip0_188_8799)">
<path d="M6.70833 0H3.83333C2.81667 0 1.84165 0.421427 1.12276 1.17157C0.403868 1.92172 0 2.93913 0 4L0 7C0 8.06087 0.403868 9.07828 1.12276 9.82843C1.84165 10.5786 2.81667 11 3.83333 11H6.70833C7.725 11 8.70002 10.5786 9.41891 9.82843C10.1378 9.07828 10.5417 8.06087 10.5417 7V4C10.5417 2.93913 10.1378 1.92172 9.41891 1.17157C8.70002 0.421427 7.725 0 6.70833 0V0ZM8.625 7C8.625 7.53043 8.42307 8.03914 8.06362 8.41421C7.70418 8.78929 7.21667 9 6.70833 9H3.83333C3.325 9 2.83749 8.78929 2.47805 8.41421C2.1186 8.03914 1.91667 7.53043 1.91667 7V4C1.91667 3.46957 2.1186 2.96086 2.47805 2.58579C2.83749 2.21071 3.325 2 3.83333 2H6.70833C7.21667 2 7.70418 2.21071 8.06362 2.58579C8.42307 2.96086 8.625 3.46957 8.625 4V7Z" fill="white"/>
<path d="M19.1666 0H16.2916C15.2749 0 14.2999 0.421428 13.581 1.17157C12.8621 1.92172 12.4583 2.93914 12.4583 4V7C12.4583 8.06087 12.8621 9.07829 13.581 9.82843C14.2999 10.5786 15.2749 11 16.2916 11H19.1666C20.1832 11 21.1583 10.5786 21.8771 9.82843C22.596 9.07829 22.9999 8.06087 22.9999 7V4C22.9999 2.93914 22.596 1.92172 21.8771 1.17157C21.1583 0.421428 20.1832 0 19.1666 0V0ZM21.0832 7C21.0832 7.53044 20.8813 8.03915 20.5219 8.41422C20.1624 8.78929 19.6749 9.00001 19.1666 9.00001H16.2916C15.7832 9.00001 15.2957 8.78929 14.9363 8.41422C14.5769 8.03915 14.3749 7.53044 14.3749 7V4C14.3749 3.46957 14.5769 2.96086 14.9363 2.58579C15.2957 2.21072 15.7832 2 16.2916 2H19.1666C19.6749 2 20.1624 2.21072 20.5219 2.58579C20.8813 2.96086 21.0832 3.46957 21.0832 4V7Z" fill="white"/>
<path d="M6.70833 13H3.83333C2.81667 13 1.84165 13.4214 1.12276 14.1716C0.403868 14.9217 0 15.9391 0 17L0 20C0 21.0609 0.403868 22.0783 1.12276 22.8284C1.84165 23.5786 2.81667 24 3.83333 24H6.70833C7.725 24 8.70002 23.5786 9.41891 22.8284C10.1378 22.0783 10.5417 21.0609 10.5417 20V17C10.5417 15.9391 10.1378 14.9217 9.41891 14.1716C8.70002 13.4214 7.725 13 6.70833 13ZM8.625 20C8.625 20.5304 8.42307 21.0392 8.06362 21.4142C7.70418 21.7893 7.21667 22 6.70833 22H3.83333C3.325 22 2.83749 21.7893 2.47805 21.4142C2.1186 21.0392 1.91667 20.5304 1.91667 20V17C1.91667 16.4696 2.1186 15.9609 2.47805 15.5858C2.83749 15.2107 3.325 15 3.83333 15H6.70833C7.21667 15 7.70418 15.2107 8.06362 15.5858C8.42307 15.9609 8.625 16.4696 8.625 17V20Z" fill="white"/>
<path d="M19.1666 13H16.2916C15.2749 13 14.2999 13.4214 13.581 14.1716C12.8621 14.9217 12.4583 15.9391 12.4583 17V20C12.4583 21.0609 12.8621 22.0783 13.581 22.8284C14.2999 23.5786 15.2749 24 16.2916 24H19.1666C20.1832 24 21.1583 23.5786 21.8771 22.8284C22.596 22.0783 22.9999 21.0609 22.9999 20V17C22.9999 15.9391 22.596 14.9217 21.8771 14.1716C21.1583 13.4214 20.1832 13 19.1666 13ZM21.0832 20C21.0832 20.5304 20.8813 21.0392 20.5219 21.4142C20.1624 21.7893 19.6749 22 19.1666 22H16.2916C15.7832 22 15.2957 21.7893 14.9363 21.4142C14.5769 21.0392 14.3749 20.5304 14.3749 20V17C14.3749 16.4696 14.5769 15.9609 14.9363 15.5858C15.2957 15.2107 15.7832 15 16.2916 15H19.1666C19.6749 15 20.1624 15.2107 20.5219 15.5858C20.8813 15.9609 21.0832 16.4696 21.0832 17V20Z" fill="white"/>
</g>
<defs>
<clipPath id="clip0_188_8799">
<rect width="23" height="24" fill="white"/>
</clipPath>
</defs>
</svg>
