<svg width="30" height="30" viewBox="0 0 30 30" fill="none" xmlns="http://www.w3.org/2000/svg">
<g clip-path="url(#clip0_387_5591)">
<path d="M19.0087 17.7593L16.7675 20.0005L19.0087 22.2418C19.1281 22.3571 19.2234 22.495 19.2889 22.6475C19.3544 22.8 19.3889 22.964 19.3903 23.13C19.3918 23.296 19.3601 23.4606 19.2973 23.6142C19.2344 23.7678 19.1416 23.9074 19.0242 24.0248C18.9069 24.1421 18.7673 24.2349 18.6137 24.2978C18.4601 24.3606 18.2955 24.3923 18.1295 24.3908C17.9635 24.3894 17.7995 24.3549 17.647 24.2894C17.4945 24.2239 17.3566 24.1287 17.2413 24.0093L15 21.768L12.7587 24.0093C12.523 24.237 12.2072 24.363 11.8795 24.3601C11.5518 24.3573 11.2382 24.2258 11.0065 23.994C10.7747 23.7623 10.6433 23.4488 10.6404 23.121C10.6376 22.7933 10.7636 22.4775 10.9913 22.2418L13.2325 20.0005L10.9913 17.7593C10.7636 17.5235 10.6376 17.2078 10.6404 16.88C10.6433 16.5523 10.7747 16.2388 11.0065 16.007C11.2382 15.7752 11.5518 15.6438 11.8795 15.6409C12.2072 15.6381 12.523 15.7641 12.7587 15.9918L15 18.233L17.2413 15.9918C17.477 15.7641 17.7928 15.6381 18.1205 15.6409C18.4482 15.6438 18.7618 15.7752 18.9935 16.007C19.2253 16.2388 19.3567 16.5523 19.3596 16.88C19.3624 17.2078 19.2364 17.5235 19.0087 17.7593ZM27.5 13.1068V23.7505C27.498 25.4075 26.8389 26.9961 25.6672 28.1677C24.4956 29.3394 22.907 29.9985 21.25 30.0005H8.75C7.09301 29.9985 5.50445 29.3394 4.33277 28.1677C3.1611 26.9961 2.50198 25.4075 2.5 23.7505V6.25052C2.50198 4.59352 3.1611 3.00496 4.33277 1.83329C5.50445 0.661619 7.09301 0.00250191 8.75 0.000517092H14.3938C15.5433 -0.00244156 16.682 0.222502 17.744 0.662341C18.8061 1.10218 19.7704 1.74819 20.5812 2.56302L24.9362 6.92052C25.7515 7.73082 26.398 8.69484 26.838 9.75673C27.2781 10.8186 27.5031 11.9573 27.5 13.1068ZM18.8137 4.33052C18.4204 3.94947 17.9787 3.62167 17.5 3.35552V8.75052C17.5 9.08204 17.6317 9.39998 17.8661 9.6344C18.1005 9.86882 18.4185 10.0005 18.75 10.0005H24.145C23.8787 9.522 23.5504 9.0807 23.1688 8.68802L18.8137 4.33052ZM25 13.1068C25 12.9005 24.96 12.703 24.9412 12.5005H18.75C17.7554 12.5005 16.8016 12.1054 16.0983 11.4022C15.3951 10.6989 15 9.74508 15 8.75052V2.55927C14.7975 2.54052 14.5988 2.50052 14.3938 2.50052H8.75C7.75544 2.50052 6.80161 2.89561 6.09835 3.59887C5.39509 4.30213 5 5.25596 5 6.25052V23.7505C5 24.7451 5.39509 25.6989 6.09835 26.4022C6.80161 27.1054 7.75544 27.5005 8.75 27.5005H21.25C22.2446 27.5005 23.1984 27.1054 23.9017 26.4022C24.6049 25.6989 25 24.7451 25 23.7505V13.1068Z" fill="#88774F"/>
</g>
<defs>
<clipPath id="clip0_387_5591">
<rect width="30" height="30" rx="5" fill="white"/>
</clipPath>
</defs>
</svg>
