<svg width="30" height="30" viewBox="0 0 30 30" fill="none" xmlns="http://www.w3.org/2000/svg">
<g clip-path="url(#clip0_387_5554)">
<path d="M23.75 25.0005H6.25C4.59301 24.9985 3.00445 24.3394 1.83277 23.1677C0.661102 21.996 0.00198482 20.4075 0 18.7505L0 11.2505C0.00198482 9.59349 0.661102 8.00494 1.83277 6.83326C3.00445 5.66159 4.59301 5.00247 6.25 5.00049H23.75C25.407 5.00247 26.9956 5.66159 28.1672 6.83326C29.3389 8.00494 29.998 9.59349 30 11.2505V18.7505C29.998 20.4075 29.3389 21.996 28.1672 23.1677C26.9956 24.3394 25.407 24.9985 23.75 25.0005ZM6.25 7.50049C5.25544 7.50049 4.30161 7.89558 3.59835 8.59884C2.89509 9.3021 2.5 10.2559 2.5 11.2505V18.7505C2.5 19.7451 2.89509 20.6989 3.59835 21.4021C4.30161 22.1054 5.25544 22.5005 6.25 22.5005H23.75C24.7446 22.5005 25.6984 22.1054 26.4017 21.4021C27.1049 20.6989 27.5 19.7451 27.5 18.7505V11.2505C27.5 10.2559 27.1049 9.3021 26.4017 8.59884C25.6984 7.89558 24.7446 7.50049 23.75 7.50049H6.25ZM15 20.0005C14.0111 20.0005 13.0444 19.7072 12.2221 19.1578C11.3999 18.6084 10.759 17.8275 10.3806 16.9139C10.0022 16.0003 9.90315 14.9949 10.0961 14.025C10.289 13.0551 10.7652 12.1642 11.4645 11.465C12.1637 10.7657 13.0546 10.2895 14.0245 10.0966C14.9945 9.90364 15.9998 10.0027 16.9134 10.3811C17.827 10.7595 18.6079 11.4004 19.1573 12.2226C19.7068 13.0449 20 14.0116 20 15.0005C20 16.3266 19.4732 17.5983 18.5355 18.536C17.5979 19.4737 16.3261 20.0005 15 20.0005ZM15 12.5005C14.5055 12.5005 14.0222 12.6471 13.6111 12.9218C13.2 13.1965 12.8795 13.587 12.6903 14.0438C12.5011 14.5006 12.4516 15.0033 12.548 15.4882C12.6445 15.9732 12.8826 16.4186 13.2322 16.7683C13.5819 17.1179 14.0273 17.356 14.5123 17.4525C14.9972 17.5489 15.4999 17.4994 15.9567 17.3102C16.4135 17.121 16.804 16.8005 17.0787 16.3894C17.3534 15.9783 17.5 15.4949 17.5 15.0005C17.5 14.3374 17.2366 13.7016 16.7678 13.2327C16.2989 12.7639 15.663 12.5005 15 12.5005ZM6.25 10.0005C6.00277 10.0005 5.7611 10.0738 5.55554 10.2112C5.34998 10.3485 5.18976 10.5437 5.09515 10.7721C5.00054 11.0005 4.97579 11.2519 5.02402 11.4944C5.07225 11.7368 5.1913 11.9596 5.36612 12.1344C5.54093 12.3092 5.76366 12.4282 6.00614 12.4765C6.24861 12.5247 6.49995 12.4999 6.72835 12.4053C6.95676 12.3107 7.15199 12.1505 7.28934 11.945C7.42669 11.7394 7.5 11.4977 7.5 11.2505C7.5 10.919 7.3683 10.601 7.13388 10.3666C6.89946 10.1322 6.58152 10.0005 6.25 10.0005ZM22.5 11.2505C22.5 11.4977 22.5733 11.7394 22.7107 11.945C22.848 12.1505 23.0432 12.3107 23.2716 12.4053C23.5001 12.4999 23.7514 12.5247 23.9939 12.4765C24.2363 12.4282 24.4591 12.3092 24.6339 12.1344C24.8087 11.9596 24.9277 11.7368 24.976 11.4944C25.0242 11.2519 24.9995 11.0005 24.9049 10.7721C24.8102 10.5437 24.65 10.3485 24.4445 10.2112C24.2389 10.0738 23.9972 10.0005 23.75 10.0005C23.4185 10.0005 23.1005 10.1322 22.8661 10.3666C22.6317 10.601 22.5 10.919 22.5 11.2505ZM6.25 17.5005C6.00277 17.5005 5.7611 17.5738 5.55554 17.7112C5.34998 17.8485 5.18976 18.0437 5.09515 18.2721C5.00054 18.5005 4.97579 18.7519 5.02402 18.9944C5.07225 19.2368 5.1913 19.4596 5.36612 19.6344C5.54093 19.8092 5.76366 19.9282 6.00614 19.9765C6.24861 20.0247 6.49995 19.9999 6.72835 19.9053C6.95676 19.8107 7.15199 19.6505 7.28934 19.445C7.42669 19.2394 7.5 18.9977 7.5 18.7505C7.5 18.419 7.3683 18.101 7.13388 17.8666C6.89946 17.6322 6.58152 17.5005 6.25 17.5005ZM22.5 18.7505C22.5 18.9977 22.5733 19.2394 22.7107 19.445C22.848 19.6505 23.0432 19.8107 23.2716 19.9053C23.5001 19.9999 23.7514 20.0247 23.9939 19.9765C24.2363 19.9282 24.4591 19.8092 24.6339 19.6344C24.8087 19.4596 24.9277 19.2368 24.976 18.9944C25.0242 18.7519 24.9995 18.5005 24.9049 18.2721C24.8102 18.0437 24.65 17.8485 24.4445 17.7112C24.2389 17.5738 23.9972 17.5005 23.75 17.5005C23.4185 17.5005 23.1005 17.6322 22.8661 17.8666C22.6317 18.101 22.5 18.419 22.5 18.7505Z" fill="#919C56"/>
</g>
<defs>
<clipPath id="clip0_387_5554">
<rect width="30" height="30" rx="5" fill="white"/>
</clipPath>
</defs>
</svg>
