<svg width="30" height="30" viewBox="0 0 30 30" fill="none" xmlns="http://www.w3.org/2000/svg">
<g clip-path="url(#clip0_387_5573)">
<path d="M23.75 0H6.25C4.59301 0.00198482 3.00445 0.661102 1.83277 1.83277C0.661102 3.00445 0.00198482 4.59301 0 6.25L0 23.75C0.00198482 25.407 0.661102 26.9956 1.83277 28.1672C3.00445 29.3389 4.59301 29.998 6.25 30H23.75C25.407 29.998 26.9956 29.3389 28.1672 28.1672C29.3389 26.9956 29.998 25.407 30 23.75V6.25C29.998 4.59301 29.3389 3.00445 28.1672 1.83277C26.9956 0.661102 25.407 0.00198482 23.75 0V0ZM27.5 23.75C27.5 24.7446 27.1049 25.6984 26.4017 26.4017C25.6984 27.1049 24.7446 27.5 23.75 27.5H6.25C5.25544 27.5 4.30161 27.1049 3.59835 26.4017C2.89509 25.6984 2.5 24.7446 2.5 23.75V6.25C2.5 5.25544 2.89509 4.30161 3.59835 3.59835C4.30161 2.89509 5.25544 2.5 6.25 2.5H23.75C24.7446 2.5 25.6984 2.89509 26.4017 3.59835C27.1049 4.30161 27.5 5.25544 27.5 6.25V23.75Z" fill="#F46D43"/>
<path d="M11.666 19.8987L6.76727 15C6.53286 14.7657 6.21498 14.634 5.88352 14.634C5.55207 14.634 5.23418 14.7657 4.99977 15C4.76543 15.2344 4.63379 15.5523 4.63379 15.8837C4.63379 16.2152 4.76543 16.5331 4.99977 16.7675L9.89852 21.6662C10.1307 21.8985 10.4063 22.0827 10.7097 22.2084C11.0131 22.3341 11.3383 22.3988 11.6666 22.3988C11.995 22.3988 12.3202 22.3341 12.6236 22.2084C12.927 22.0827 13.2026 21.8985 13.4348 21.6662L24.9998 10.1013C25.2341 9.86684 25.3658 9.54896 25.3658 9.2175C25.3658 8.88605 25.2341 8.56816 24.9998 8.33376C24.7654 8.09942 24.4475 7.96777 24.116 7.96777C23.7846 7.96777 23.4667 8.09942 23.2323 8.33376L11.666 19.8987Z" fill="#F46D43"/>
</g>
<defs>
<clipPath id="clip0_387_5573">
<rect width="30" height="30" rx="5" fill="white"/>
</clipPath>
</defs>
</svg>
