<svg width="23" height="24" viewBox="0 0 23 24" fill="none" xmlns="http://www.w3.org/2000/svg">
<g clip-path="url(#clip0_188_8805)">
<path d="M19.1667 4H14.375C14.375 2.93913 13.9711 1.92172 13.2522 1.17157C12.5334 0.421427 11.5583 0 10.5417 0L3.83333 0C2.81667 0 1.84165 0.421427 1.12276 1.17157C0.403868 1.92172 0 2.93913 0 4L0 23C0 23.2652 0.100967 23.5196 0.280689 23.7071C0.460412 23.8946 0.704167 24 0.958333 24C1.2125 24 1.45625 23.8946 1.63598 23.7071C1.8157 23.5196 1.91667 23.2652 1.91667 23V13H9.58333C9.58333 14.0609 9.9872 15.0783 10.7061 15.8284C11.425 16.5786 12.4 17 13.4167 17H19.1667C20.1833 17 21.1584 16.5786 21.8772 15.8284C22.5961 15.0783 23 14.0609 23 13V8C23 6.93913 22.5961 5.92172 21.8772 5.17157C21.1584 4.42143 20.1833 4 19.1667 4ZM1.91667 11V4C1.91667 3.46957 2.1186 2.96086 2.47805 2.58579C2.83749 2.21071 3.325 2 3.83333 2H10.5417C11.05 2 11.5375 2.21071 11.897 2.58579C12.2564 2.96086 12.4583 3.46957 12.4583 4V9C12.4583 9.53043 12.2564 10.0391 11.897 10.4142C11.5375 10.7893 11.05 11 10.5417 11H1.91667ZM21.0833 13C21.0833 13.5304 20.8814 14.0391 20.522 14.4142C20.1625 14.7893 19.675 15 19.1667 15H13.4167C12.9083 15 12.4208 14.7893 12.0614 14.4142C11.7019 14.0391 11.5 13.5304 11.5 13V12.858C12.3205 12.637 13.0476 12.1385 13.5678 11.4404C14.088 10.7424 14.3718 9.88421 14.375 9V6H19.1667C19.675 6 20.1625 6.21071 20.522 6.58579C20.8814 6.96086 21.0833 7.46957 21.0833 8V13Z" fill="white"/>
</g>
<defs>
<clipPath id="clip0_188_8805">
<rect width="23" height="24" fill="white"/>
</clipPath>
</defs>
</svg>
