<svg width="23" height="24" viewBox="0 0 23 24" fill="none" xmlns="http://www.w3.org/2000/svg">
<g clip-path="url(#clip0_188_8808)">
<path d="M18.2083 3.00049H11.9523C11.8041 3.00151 11.6576 2.96731 11.524 2.90049L8.49946 1.31649C8.10021 1.10903 7.66034 1.00087 7.21433 1.00049H4.79167C3.5213 1.00208 2.30341 1.52937 1.40513 2.46671C0.506845 3.40405 0.0015217 4.67489 0 6.00049L0 18.0005C0.0015217 19.3261 0.506845 20.5969 1.40513 21.5343C2.30341 22.4716 3.5213 22.9989 4.79167 23.0005H18.2083C19.4787 22.9989 20.6966 22.4716 21.5949 21.5343C22.4932 20.5969 22.9985 19.3261 23 18.0005V8.00049C22.9985 6.67489 22.4932 5.40405 21.5949 4.46671C20.6966 3.52937 19.4787 3.00208 18.2083 3.00049ZM4.79167 3.00049H7.21433C7.36255 2.99947 7.50904 3.03366 7.64271 3.10049L10.6672 4.67949C11.0661 4.88867 11.5059 4.99855 11.9523 5.00049H18.2083C18.7815 5.00146 19.3412 5.18116 19.8158 5.5165C20.2903 5.85184 20.658 6.32753 20.8715 6.88249L1.91667 6.99449V6.00049C1.91667 5.20484 2.21957 4.44178 2.75873 3.87917C3.2979 3.31656 4.02917 3.00049 4.79167 3.00049ZM18.2083 21.0005H4.79167C4.02917 21.0005 3.2979 20.6844 2.75873 20.1218C2.21957 19.5592 1.91667 18.7961 1.91667 18.0005V8.99449L21.0833 8.88149V18.0005C21.0833 18.7961 20.7804 19.5592 20.2413 20.1218C19.7021 20.6844 18.9708 21.0005 18.2083 21.0005Z" fill="white"/>
</g>
<defs>
<clipPath id="clip0_188_8808">
<rect width="23" height="24" fill="white"/>
</clipPath>
</defs>
</svg>
