<svg width="12" height="12" viewBox="0 0 12 12" fill="none" xmlns="http://www.w3.org/2000/svg">
<g clip-path="url(#clip0_85_4164)">
<path d="M7.46662 3.73344C7.37911 3.64595 7.26043 3.5968 7.13669 3.5968C7.01294 3.5968 6.89427 3.64595 6.80676 3.73344L5.59996 4.94024L4.39316 3.73344C4.30514 3.64843 4.18726 3.60139 4.06491 3.60245C3.94255 3.60352 3.8255 3.6526 3.73898 3.73912C3.65245 3.82564 3.60338 3.94269 3.60231 4.06505C3.60125 4.18741 3.64829 4.30529 3.73329 4.3933L4.94009 5.6001L3.73329 6.8069C3.64829 6.89492 3.60125 7.0128 3.60231 7.13516C3.60338 7.25751 3.65245 7.37456 3.73898 7.46108C3.8255 7.54761 3.94255 7.59669 4.06491 7.59775C4.18726 7.59881 4.30514 7.55178 4.39316 7.46677L5.59996 6.25997L6.80676 7.46677C6.89477 7.55178 7.01265 7.59881 7.13501 7.59775C7.25737 7.59669 7.37441 7.54761 7.46094 7.46108C7.54746 7.37456 7.59654 7.25751 7.5976 7.13516C7.59867 7.0128 7.55163 6.89492 7.46662 6.8069L6.25982 5.6001L7.46662 4.3933C7.55411 4.30579 7.60325 4.18711 7.60325 4.06337C7.60325 3.93963 7.55411 3.82095 7.46662 3.73344Z" fill="#00080C" fill-opacity="0.6"/>
<path d="M5.6 0C4.49243 0 3.40972 0.328434 2.48881 0.94377C1.56789 1.55911 0.850128 2.43371 0.426277 3.45697C0.0024264 4.48024 -0.108472 5.60621 0.107605 6.69251C0.323682 7.7788 0.85703 8.77663 1.6402 9.5598C2.42338 10.343 3.4212 10.8763 4.5075 11.0924C5.59379 11.3085 6.71976 11.1976 7.74303 10.7737C8.7663 10.3499 9.6409 9.63211 10.2562 8.7112C10.8716 7.79028 11.2 6.70758 11.2 5.6C11.1984 4.11528 10.6079 2.69183 9.55803 1.64198C8.50817 0.59212 7.08472 0.00160584 5.6 0V0ZM5.6 10.2667C4.67702 10.2667 3.77477 9.99297 3.00734 9.48019C2.23991 8.96741 1.64177 8.23858 1.28856 7.38586C0.935356 6.53314 0.84294 5.59482 1.023 4.68958C1.20307 3.78433 1.64753 2.95281 2.30017 2.30017C2.95282 1.64752 3.78434 1.20307 4.68958 1.023C5.59483 0.842938 6.53314 0.935353 7.38586 1.28856C8.23858 1.64177 8.96741 2.23991 9.48019 3.00734C9.99297 3.77477 10.2667 4.67702 10.2667 5.6C10.2653 6.83726 9.77321 8.02346 8.89833 8.89833C8.02346 9.77321 6.83726 10.2653 5.6 10.2667V10.2667Z" fill="#00080C" fill-opacity="0.6"/>
</g>
<defs>
<clipPath id="clip0_85_4164">
<rect width="11.2" height="11.2" rx="5" fill="white"/>
</clipPath>
</defs>
</svg>
