<svg width="30" height="30" viewBox="0 0 30 30" fill="none" xmlns="http://www.w3.org/2000/svg">
<g clip-path="url(#clip0_387_5536)">
<path d="M29.0887 11.7734C27.1499 8.61586 22.7399 3.31836 14.9999 3.31836C7.25994 3.31836 2.84994 8.61586 0.911192 11.7734C0.311852 12.7427 -0.00561523 13.8599 -0.00561523 14.9996C-0.00561523 16.1393 0.311852 17.2565 0.911192 18.2259C2.84994 21.3834 7.25994 26.6809 14.9999 26.6809C22.7399 26.6809 27.1499 21.3834 29.0887 18.2259C29.688 17.2565 30.0055 16.1393 30.0055 14.9996C30.0055 13.8599 29.688 12.7427 29.0887 11.7734ZM26.9574 16.9171C25.2924 19.6246 21.5237 24.1809 14.9999 24.1809C8.47619 24.1809 4.70744 19.6246 3.04244 16.9171C2.68636 16.3409 2.49776 15.677 2.49776 14.9996C2.49776 14.3223 2.68636 13.6583 3.04244 13.0821C4.70744 10.3746 8.47619 5.81836 14.9999 5.81836C21.5237 5.81836 25.2924 10.3696 26.9574 13.0821C27.3135 13.6583 27.5021 14.3223 27.5021 14.9996C27.5021 15.677 27.3135 16.3409 26.9574 16.9171Z" fill="#3288BD"/>
<path d="M14.9998 8.75C13.7636 8.75 12.5553 9.11656 11.5274 9.80332C10.4996 10.4901 9.69856 11.4662 9.22551 12.6082C8.75246 13.7503 8.62869 15.0069 8.86985 16.2193C9.11101 17.4317 9.70626 18.5453 10.5803 19.4194C11.4544 20.2935 12.5681 20.8888 13.7804 21.1299C14.9928 21.3711 16.2495 21.2473 17.3915 20.7743C18.5336 20.3012 19.5097 19.5001 20.1964 18.4723C20.8832 17.4445 21.2498 16.2361 21.2498 15C21.2478 13.343 20.5887 11.7544 19.417 10.5828C18.2453 9.4111 16.6568 8.75198 14.9998 8.75ZM14.9998 18.75C14.2581 18.75 13.5331 18.5301 12.9164 18.118C12.2997 17.706 11.819 17.1203 11.5352 16.4351C11.2514 15.7498 11.1771 14.9958 11.3218 14.2684C11.4665 13.541 11.8237 12.8728 12.3481 12.3483C12.8726 11.8239 13.5407 11.4667 14.2682 11.3221C14.9956 11.1774 15.7496 11.2516 16.4348 11.5355C17.12 11.8193 17.7057 12.2999 18.1178 12.9166C18.5298 13.5333 18.7498 14.2583 18.7498 15C18.7498 15.9946 18.3547 16.9484 17.6514 17.6517C16.9481 18.3549 15.9943 18.75 14.9998 18.75Z" fill="#3288BD"/>
</g>
<defs>
<clipPath id="clip0_387_5536">
<rect width="30" height="30" rx="5" fill="white"/>
</clipPath>
</defs>
</svg>
