<svg width="25" height="26" viewBox="0 0 25 26" fill="none" xmlns="http://www.w3.org/2000/svg">
<g clip-path="url(#clip0_188_8823)">
<path d="M19.3554 2.31908L12.8293 0.0559992C12.6157 -0.0180153 12.3847 -0.0180153 12.171 0.0559992L5.64496 2.31908C4.60736 2.67754 3.70476 3.36694 3.06542 4.28935C2.42607 5.21176 2.08249 6.32025 2.0835 7.45733V13.0008C2.0835 21.194 11.6668 25.7191 12.0772 25.9076C12.2104 25.9691 12.3545 26.0009 12.5002 26.0009C12.6459 26.0009 12.7899 25.9691 12.9231 25.9076C13.3335 25.7191 22.9168 21.194 22.9168 13.0008V7.45733C22.9178 6.32025 22.5743 5.21176 21.9349 4.28935C21.2956 3.36694 20.393 2.67754 19.3554 2.31908ZM20.8335 13.0008C20.8335 18.9103 14.2512 22.7865 12.5002 23.7138C10.747 22.7897 4.16683 18.9255 4.16683 13.0008V7.45733C4.16689 6.77513 4.37337 6.11025 4.757 5.55689C5.14064 5.00352 5.68198 4.58974 6.30433 4.37417L12.5002 2.22592L18.696 4.37417C19.3183 4.58974 19.8597 5.00352 20.2433 5.55689C20.627 6.11025 20.8334 6.77513 20.8335 7.45733V13.0008Z" fill="white"/>
<path d="M15.9373 8.99199L11.5748 13.542L9.23733 11.007C9.14352 10.9003 9.03013 10.8143 8.90385 10.7539C8.77756 10.6935 8.64093 10.66 8.50201 10.6554C8.36308 10.6507 8.22467 10.6751 8.09493 10.7269C7.96519 10.7788 7.84674 10.8571 7.74657 10.9573C7.64639 11.0576 7.56651 11.1776 7.51163 11.3104C7.45675 11.4432 7.42798 11.5861 7.42703 11.7307C7.42607 11.8752 7.45294 12.0185 7.50605 12.1521C7.55916 12.2857 7.63744 12.4069 7.73628 12.5085L10.1384 15.1085C10.3175 15.3097 10.534 15.4711 10.7748 15.5828C11.0157 15.6945 11.2758 15.7543 11.5394 15.7585H11.5738C11.8322 15.7594 12.0882 15.7069 12.3269 15.6041C12.5656 15.5012 12.7823 15.3501 12.9644 15.1594L17.4144 10.5314C17.5116 10.4305 17.5887 10.3108 17.6414 10.1789C17.6941 10.047 17.7213 9.90565 17.7214 9.76285C17.7216 9.62005 17.6947 9.47863 17.6423 9.34664C17.5899 9.21465 17.513 9.0947 17.416 8.99362C17.319 8.89254 17.2038 8.81231 17.077 8.75753C16.9502 8.70274 16.8143 8.67447 16.677 8.67432C16.5397 8.67417 16.4037 8.70214 16.2768 8.75665C16.1499 8.81116 16.0345 8.89113 15.9373 8.99199Z" fill="white"/>
</g>
<defs>
<clipPath id="clip0_188_8823">
<rect width="25" height="26" fill="white"/>
</clipPath>
</defs>
</svg>
