<svg width="25" height="26" viewBox="0 0 25 26" fill="none" xmlns="http://www.w3.org/2000/svg">
<g clip-path="url(#clip0_188_8820)">
<path d="M12.5002 8.66748C11.6761 8.66748 10.8705 8.92163 10.1853 9.39778C9.50008 9.87393 8.96603 10.5507 8.65067 11.3425C8.3353 12.1343 8.25279 13.0056 8.41356 13.8462C8.57433 14.6868 8.97117 15.4589 9.55389 16.0649C10.1366 16.671 10.879 17.0837 11.6873 17.2509C12.4955 17.4181 13.3333 17.3323 14.0947 17.0043C14.856 16.6763 15.5068 16.1209 15.9646 15.4083C16.4225 14.6957 16.6668 13.8579 16.6668 13.0008C16.6668 11.8515 16.2278 10.7493 15.4464 9.93668C14.665 9.12403 13.6052 8.66748 12.5002 8.66748ZM12.5002 15.1675C12.0881 15.1675 11.6853 15.0404 11.3427 14.8023C11.0001 14.5643 10.7331 14.2259 10.5754 13.83C10.4177 13.4341 10.3765 12.9984 10.4569 12.5781C10.5372 12.1578 10.7357 11.7718 11.027 11.4687C11.3184 11.1657 11.6896 10.9594 12.0937 10.8758C12.4979 10.7922 12.9167 10.8351 13.2974 10.9991C13.6781 11.1631 14.0035 11.4408 14.2324 11.7971C14.4613 12.1534 14.5835 12.5723 14.5835 13.0008C14.5835 13.5754 14.364 14.1265 13.9733 14.5329C13.5826 14.9392 13.0527 15.1675 12.5002 15.1675Z" fill="white"/>
<path d="M22.1812 15.0583L21.7187 14.781C21.9269 13.6028 21.9269 12.395 21.7187 11.2168L22.1812 10.9395C22.5369 10.7261 22.8486 10.4419 23.0987 10.1032C23.3488 9.76453 23.5322 9.37792 23.6386 8.96547C23.745 8.55302 23.7723 8.12282 23.7188 7.69942C23.6654 7.27602 23.5322 6.86772 23.327 6.49783C23.1218 6.12794 22.8486 5.80371 22.5229 5.54364C22.1973 5.28357 21.8255 5.09276 21.4289 4.9821C21.0323 4.87144 20.6187 4.84311 20.2116 4.89871C19.8045 4.95432 19.4119 5.09277 19.0562 5.30617L18.5927 5.58458C17.7172 4.80666 16.7111 4.2036 15.625 3.80575V3.25C15.625 2.38805 15.2957 1.5614 14.7097 0.951903C14.1236 0.34241 13.3288 0 12.5 0C11.6712 0 10.8763 0.34241 10.2902 0.951903C9.70419 1.5614 9.37495 2.38805 9.37495 3.25V3.80575C8.2889 4.20503 7.28313 4.80957 6.40829 5.58892L5.94266 5.30833C5.22437 4.87736 4.37087 4.76079 3.56993 4.98427C2.769 5.20775 2.08623 5.75297 1.67183 6.5C1.25743 7.24703 1.14534 8.13466 1.36023 8.96764C1.57511 9.80061 2.09937 10.5107 2.81766 10.9417L3.28016 11.219C3.07194 12.3972 3.07194 13.605 3.28016 14.7832L2.81766 15.0605C2.09937 15.4915 1.57511 16.2016 1.36023 17.0345C1.14534 17.8675 1.25743 18.7551 1.67183 19.5022C2.08623 20.2492 2.769 20.7944 3.56993 21.0179C4.37087 21.2414 5.22437 21.1248 5.94266 20.6938L6.4062 20.4154C7.282 21.1935 8.28847 21.7965 9.37495 22.1943V22.75C9.37495 23.612 9.70419 24.4386 10.2902 25.0481C10.8763 25.6576 11.6712 26 12.5 26C13.3288 26 14.1236 25.6576 14.7097 25.0481C15.2957 24.4386 15.625 23.612 15.625 22.75V22.1943C16.711 21.795 17.7168 21.1904 18.5916 20.4111L19.0572 20.6906C19.7755 21.1216 20.629 21.2381 21.43 21.0147C22.2309 20.7912 22.9137 20.2459 23.3281 19.4989C23.7425 18.7519 23.8546 17.8643 23.6397 17.0313C23.4248 16.1983 22.9005 15.4882 22.1822 15.0573L22.1812 15.0583ZM19.527 10.9677C19.8798 12.297 19.8798 13.7008 19.527 15.0302C19.4654 15.2615 19.4795 15.5076 19.567 15.7298C19.6545 15.952 19.8104 16.1376 20.0104 16.2576L21.1395 16.9358C21.3789 17.0794 21.5536 17.3161 21.6252 17.5937C21.6968 17.8713 21.6594 18.1672 21.5213 18.4161C21.3832 18.6651 21.1556 18.8468 20.8887 18.9212C20.6217 18.9957 20.3373 18.9568 20.0979 18.8132L18.9666 18.1328C18.7665 18.0123 18.5335 17.9644 18.3044 17.9968C18.0752 18.0292 17.8629 18.1399 17.701 18.3116C16.7738 19.296 15.6058 19.9983 14.3229 20.3428C14.0989 20.4027 13.9005 20.5384 13.7589 20.7284C13.6173 20.9185 13.5405 21.1521 13.5406 21.3926V22.75C13.5406 23.0373 13.4308 23.3129 13.2355 23.516C13.0401 23.7192 12.7752 23.8333 12.4989 23.8333C12.2226 23.8333 11.9577 23.7192 11.7623 23.516C11.567 23.3129 11.4572 23.0373 11.4572 22.75V21.3937C11.4574 21.1532 11.3805 20.9196 11.2389 20.7295C11.0973 20.5394 10.8989 20.4038 10.675 20.3439C9.39198 19.998 8.22425 19.2941 7.29787 18.3083C7.13592 18.1367 6.92364 18.0259 6.69449 17.9936C6.46534 17.9612 6.23235 18.009 6.03224 18.1296L4.90308 18.8088C4.78457 18.8811 4.65348 18.9283 4.51738 18.9476C4.38127 18.967 4.24282 18.9581 4.11001 18.9216C3.9772 18.8851 3.85264 18.8216 3.74352 18.7348C3.63439 18.648 3.54285 18.5397 3.47416 18.4159C3.40547 18.2922 3.36099 18.1556 3.34328 18.0139C3.32558 17.8722 3.33499 17.7283 3.37098 17.5904C3.40698 17.4525 3.46884 17.3234 3.55301 17.2105C3.63718 17.0976 3.74199 17.0031 3.86141 16.9325L4.99058 16.2543C5.19052 16.1344 5.34649 15.9487 5.43397 15.7265C5.52146 15.5044 5.53551 15.2583 5.47391 15.0269C5.12116 13.6976 5.12116 12.2937 5.47391 10.9644C5.5344 10.7335 5.51968 10.4883 5.43205 10.2671C5.34443 10.0458 5.18882 9.86094 4.98954 9.74133L3.86037 9.06317C3.62098 8.91951 3.44628 8.68283 3.37468 8.40521C3.30308 8.12759 3.34047 7.83175 3.4786 7.58279C3.61673 7.33383 3.8443 7.15213 4.11125 7.07768C4.3782 7.00322 4.66265 7.04209 4.90204 7.18575L6.03329 7.86608C6.23285 7.98689 6.46535 8.03531 6.69425 8.00374C6.92316 7.97217 7.13548 7.86239 7.29787 7.69167C8.22504 6.70729 9.3931 6.00494 10.676 5.66042C10.9006 5.60036 11.0995 5.46407 11.2412 5.27313C11.3829 5.08219 11.4593 4.84753 11.4583 4.60633V3.25C11.4583 2.96268 11.568 2.68713 11.7634 2.48397C11.9587 2.2808 12.2237 2.16667 12.5 2.16667C12.7762 2.16667 13.0412 2.2808 13.2365 2.48397C13.4319 2.68713 13.5416 2.96268 13.5416 3.25V4.60633C13.5415 4.84679 13.6183 5.08045 13.7599 5.2705C13.9016 5.46056 14.1 5.59621 14.3239 5.65608C15.6073 6.00183 16.7754 6.70571 17.702 7.69167C17.864 7.86334 18.0763 7.97408 18.3054 8.00645C18.5346 8.03881 18.7676 7.99095 18.9677 7.87042L20.0968 7.19117C20.2153 7.11891 20.3464 7.07175 20.4825 7.05239C20.6186 7.03304 20.7571 7.04188 20.8899 7.07839C21.0227 7.11491 21.1473 7.17839 21.2564 7.26517C21.3655 7.35196 21.4571 7.46033 21.5257 7.58406C21.5944 7.70779 21.6389 7.84443 21.6566 7.9861C21.6743 8.12778 21.6649 8.2717 21.6289 8.40958C21.5929 8.54746 21.5311 8.67657 21.4469 8.78949C21.3627 8.9024 21.2579 8.99689 21.1385 9.0675L20.0093 9.74567C19.8104 9.8656 19.6553 10.0506 19.568 10.2718C19.4808 10.4931 19.4664 10.7381 19.527 10.9688V10.9677Z" fill="white"/>
</g>
<defs>
<clipPath id="clip0_188_8820">
<rect width="25" height="26" fill="white"/>
</clipPath>
</defs>
</svg>
