<svg width="25" height="24" viewBox="0 0 25 24" fill="none" xmlns="http://www.w3.org/2000/svg">
<g clip-path="url(#clip0_1_7480)">
<path d="M10.8281 6.00024H23.8281C24.0933 6.00024 24.3477 5.89488 24.5352 5.70735C24.7228 5.51981 24.8281 5.26546 24.8281 5.00024C24.8281 4.73503 24.7228 4.48067 24.5352 4.29314C24.3477 4.1056 24.0933 4.00024 23.8281 4.00024H10.8281C10.5629 4.00024 10.3086 4.1056 10.121 4.29314C9.93348 4.48067 9.82812 4.73503 9.82812 5.00024C9.82812 5.26546 9.93348 5.51981 10.121 5.70735C10.3086 5.89488 10.5629 6.00024 10.8281 6.00024Z" fill="#374957"/>
<path d="M23.8281 10.9998H10.8281C10.5629 10.9998 10.3086 11.1051 10.121 11.2927C9.93348 11.4802 9.82812 11.7345 9.82812 11.9998C9.82812 12.265 9.93348 12.5193 10.121 12.7069C10.3086 12.8944 10.5629 12.9998 10.8281 12.9998H23.8281C24.0933 12.9998 24.3477 12.8944 24.5352 12.7069C24.7228 12.5193 24.8281 12.265 24.8281 11.9998C24.8281 11.7345 24.7228 11.4802 24.5352 11.2927C24.3477 11.1051 24.0933 10.9998 23.8281 10.9998Z" fill="#374957"/>
<path d="M23.8281 18H10.8281C10.5629 18 10.3086 18.1054 10.121 18.2929C9.93348 18.4804 9.82812 18.7348 9.82812 19C9.82812 19.2652 9.93348 19.5196 10.121 19.7071C10.3086 19.8947 10.5629 20 10.8281 20H23.8281C24.0933 20 24.3477 19.8947 24.5352 19.7071C24.7228 19.5196 24.8281 19.2652 24.8281 19C24.8281 18.7348 24.7228 18.4804 24.5352 18.2929C24.3477 18.1054 24.0933 18 23.8281 18Z" fill="#374957"/>
<path d="M6.91504 6.00034C7.01398 6.00032 7.11068 5.97094 7.19292 5.91594C7.27516 5.86094 7.33922 5.78277 7.37702 5.69134C7.41481 5.59991 7.42463 5.49932 7.40523 5.4023C7.38583 5.30529 7.33809 5.21621 7.26804 5.14634L4.82804 2.70734C4.64052 2.51987 4.38621 2.41455 4.12104 2.41455C3.85588 2.41455 3.60157 2.51987 3.41404 2.70734L0.975043 5.14634C0.904997 5.21621 0.857253 5.30529 0.837855 5.4023C0.818456 5.49932 0.828275 5.59991 0.866069 5.69134C0.903862 5.78277 0.967931 5.86094 1.05017 5.91594C1.1324 5.97094 1.22911 6.00032 1.32804 6.00034H3.12204V18.0003H1.32804C1.22902 18.0002 1.13218 18.0294 1.04979 18.0843C0.967401 18.1392 0.903176 18.2174 0.865259 18.3089C0.827341 18.4003 0.817438 18.501 0.836805 18.5981C0.856172 18.6952 0.903936 18.7844 0.974043 18.8543L3.41404 21.2933C3.60157 21.4808 3.85588 21.5861 4.12104 21.5861C4.38621 21.5861 4.64052 21.4808 4.82804 21.2933L7.26804 18.8543C7.33809 18.7845 7.38583 18.6954 7.40523 18.5984C7.42463 18.5014 7.41481 18.4008 7.37702 18.3093C7.33922 18.2179 7.27516 18.1397 7.19292 18.0847C7.11068 18.0297 7.01398 18.0004 6.91504 18.0003H5.12204V6.00034H6.91504Z" fill="#374957"/>
</g>
<defs>
<clipPath id="clip0_1_7480">
<rect width="24" height="24" fill="white" transform="translate(0.828125)"/>
</clipPath>
</defs>
</svg>
