<svg width="30" height="30" viewBox="0 0 30 30" fill="none" xmlns="http://www.w3.org/2000/svg">
<g clip-path="url(#clip0_387_5526)">
<path d="M26.4438 4.09L23.5888 1.14125C23.2381 0.781207 22.8191 0.4948 22.3563 0.298827C21.8936 0.102853 21.3963 0.00125804 20.8938 0L15 0C13.5597 0.00181816 12.1642 0.500113 11.0484 1.4109C9.93273 2.32168 9.16512 3.58927 8.875 5H8.75C7.09301 5.00198 5.50445 5.6611 4.33277 6.83278C3.1611 8.00445 2.50198 9.59301 2.5 11.25V23.75C2.50198 25.407 3.1611 26.9956 4.33277 28.1672C5.50445 29.3389 7.09301 29.998 8.75 30H16.25C17.907 29.998 19.4956 29.3389 20.6672 28.1672C21.8389 26.9956 22.498 25.407 22.5 23.75V23.625C23.9107 23.3349 25.1783 22.5673 26.0891 21.4516C26.9999 20.3359 27.4982 18.9403 27.5 17.5V6.7C27.5019 5.72552 27.1228 4.7889 26.4438 4.09ZM16.25 27.5H8.75C7.75544 27.5 6.80161 27.1049 6.09835 26.4017C5.39509 25.6984 5 24.7446 5 23.75V11.25C5 10.2554 5.39509 9.30161 6.09835 8.59835C6.80161 7.89509 7.75544 7.5 8.75 7.5V17.5C8.75199 19.157 9.4111 20.7456 10.5828 21.9172C11.7544 23.0889 13.343 23.748 15 23.75H20C20 24.7446 19.6049 25.6984 18.9017 26.4017C18.1984 27.1049 17.2446 27.5 16.25 27.5ZM21.25 21.25H15C14.0054 21.25 13.0516 20.8549 12.3483 20.1517C11.6451 19.4484 11.25 18.4946 11.25 17.5V6.25C11.25 5.25544 11.6451 4.30161 12.3483 3.59835C13.0516 2.89509 14.0054 2.5 15 2.5H20V5C20 5.66304 20.2634 6.29893 20.7322 6.76777C21.2011 7.23661 21.837 7.5 22.5 7.5H25V17.5C25 18.4946 24.6049 19.4484 23.9017 20.1517C23.1984 20.8549 22.2446 21.25 21.25 21.25Z" fill="#4C6461"/>
</g>
<defs>
<clipPath id="clip0_387_5526">
<rect width="30" height="30" rx="5" fill="white"/>
</clipPath>
</defs>
</svg>
