<svg width="21" height="22" viewBox="0 0 21 22" fill="none" xmlns="http://www.w3.org/2000/svg">
<g clip-path="url(#clip0_188_8811)">
<path d="M20.9999 21.0833C20.9999 21.3264 20.9078 21.5595 20.7437 21.7314C20.5796 21.9034 20.357 21.9999 20.1249 21.9999H0.874945C0.642881 21.9999 0.420321 21.9034 0.256227 21.7314C0.0921325 21.5595 -5.47481e-05 21.3264 -5.47483e-05 21.0833C-5.47481e-05 20.8401 0.0921325 20.607 0.256227 20.4351C0.420321 20.2632 0.642881 20.1666 0.874945 20.1666H20.1249C20.357 20.1666 20.5796 20.2632 20.7437 20.4351C20.9078 20.607 20.9999 20.8401 20.9999 21.0833ZM0.25457 7.83926C0.0660273 7.47289 -0.0213219 7.05873 0.00232563 6.64324C0.0259732 6.22776 0.159682 5.8274 0.388445 5.4871C0.762296 4.91245 1.26296 4.44078 1.84795 4.1121L8.41132 0.533428C9.05643 0.182007 9.77284 -0.00146484 10.4999 -0.00146484C11.2271 -0.00146484 11.9435 0.182007 12.5886 0.533428L19.1511 4.11485C19.7361 4.44353 20.2367 4.9152 20.6106 5.48985C20.8393 5.83015 20.973 6.23051 20.9967 6.64599C21.0203 7.06148 20.933 7.47564 20.7444 7.84201C20.5415 8.24427 20.237 8.58048 19.8643 8.81403C19.4915 9.04759 19.0648 9.16953 18.6304 9.1666H18.3749V16.4999H19.2499C19.482 16.4999 19.7046 16.5965 19.8687 16.7684C20.0328 16.9403 20.1249 17.1735 20.1249 17.4166C20.1249 17.6597 20.0328 17.8929 19.8687 18.0648C19.7046 18.2367 19.482 18.3333 19.2499 18.3333H1.74995C1.51788 18.3333 1.29532 18.2367 1.13123 18.0648C0.967133 17.8929 0.874945 17.6597 0.874945 17.4166C0.874945 17.1735 0.967133 16.9403 1.13123 16.7684C1.29532 16.5965 1.51788 16.4999 1.74995 16.4999H2.62495V9.1666H2.36945C1.93471 9.16944 1.50758 9.04716 1.13464 8.8131C0.761696 8.57903 0.457272 8.24217 0.25457 7.83926ZM4.37495 16.4999H6.99995V9.1666H4.37495V16.4999ZM8.74995 9.1666V16.4999H12.2499V9.1666H8.74995ZM16.6249 9.1666H13.9999V16.4999H16.6249V9.1666ZM1.80507 6.98951C1.85997 7.09555 1.94167 7.18372 2.04122 7.24435C2.14076 7.30498 2.25432 7.33574 2.36945 7.33326H18.6304C18.7456 7.33574 18.8591 7.30498 18.9587 7.24435C19.0582 7.18372 19.1399 7.09555 19.1948 6.98951C19.2348 6.91945 19.2542 6.83856 19.2504 6.75702C19.2467 6.67548 19.22 6.59691 19.1738 6.53118C18.9618 6.2011 18.677 5.92942 18.3434 5.73918L11.7809 2.15776C11.3855 1.94273 10.9464 1.83049 10.5008 1.83049C10.0552 1.83049 9.61619 1.94273 9.2207 2.15776L2.6582 5.73918C2.32481 5.93004 2.04003 6.20196 1.82782 6.5321C1.78152 6.59755 1.75467 6.67585 1.75063 6.75721C1.74658 6.83857 1.76552 6.91937 1.80507 6.98951Z" fill="white"/>
</g>
<defs>
<clipPath id="clip0_188_8811">
<rect width="21" height="22" fill="white"/>
</clipPath>
</defs>
</svg>
