<svg width="23" height="23" viewBox="0 0 23 23" fill="none" xmlns="http://www.w3.org/2000/svg">
<g clip-path="url(#clip0_240_17051)">
<path d="M10.0085 17.3228C10.2638 17.5783 10.5671 17.781 10.9008 17.9194C11.2346 18.0577 11.5923 18.1289 11.9536 18.1289C12.3149 18.1289 12.6726 18.0577 13.0064 17.9194C13.3402 17.781 13.6434 17.5783 13.8988 17.3228L16.8422 14.3794C17 14.2048 17.0847 13.9763 17.0786 13.741C17.0726 13.5058 16.9763 13.2819 16.8098 13.1157C16.6432 12.9495 16.4191 12.8537 16.1838 12.8482C15.9486 12.8426 15.7202 12.9278 15.546 13.0859L12.8639 15.769L12.8703 1.6276C12.8703 1.38449 12.7737 1.15133 12.6018 0.979423C12.4299 0.807515 12.1967 0.710938 11.9536 0.710938V0.710938C11.7105 0.710938 11.4773 0.807515 11.3054 0.979423C11.1335 1.15133 11.0369 1.38449 11.0369 1.6276L11.0287 15.7516L8.3612 13.0859C8.1892 12.9141 7.95596 12.8175 7.71279 12.8176C7.46963 12.8177 7.23646 12.9144 7.06458 13.0864C6.89269 13.2584 6.79618 13.4916 6.79626 13.7348C6.79635 13.978 6.89303 14.2111 7.06503 14.383L10.0085 17.3228Z" fill="#EAECF0"/>
<path d="M22.0368 15.3789C21.7936 15.3789 21.5605 15.4755 21.3886 15.6474C21.2167 15.8193 21.1201 16.0525 21.1201 16.2956V19.9622C21.1201 20.2053 21.0235 20.4385 20.8516 20.6104C20.6797 20.7823 20.4465 20.8789 20.2034 20.8789H3.70343C3.46032 20.8789 3.22716 20.7823 3.05525 20.6104C2.88334 20.4385 2.78676 20.2053 2.78676 19.9622V16.2956C2.78676 16.0525 2.69019 15.8193 2.51828 15.6474C2.34637 15.4755 2.11321 15.3789 1.8701 15.3789V15.3789C1.62698 15.3789 1.39382 15.4755 1.22192 15.6474C1.05001 15.8193 0.95343 16.0525 0.95343 16.2956L0.95343 19.9622C0.95343 20.6916 1.24316 21.391 1.75889 21.9068C2.27461 22.4225 2.97408 22.7122 3.70343 22.7122H20.2034C20.9328 22.7122 21.6322 22.4225 22.148 21.9068C22.6637 21.391 22.9534 20.6916 22.9534 19.9622V16.2956C22.9534 16.0525 22.8569 15.8193 22.6849 15.6474C22.513 15.4755 22.2799 15.3789 22.0368 15.3789Z" fill="#EAECF0"/>
</g>
<defs>
<clipPath id="clip0_240_17051">
<rect width="22" height="22" fill="white" transform="translate(0.95343 0.710938)"/>
</clipPath>
</defs>
</svg>
