<svg width="20" height="20" viewBox="0 0 20 20" fill="none" xmlns="http://www.w3.org/2000/svg">
<g clip-path="url(#clip0_1008_5467)">
<path d="M9.71071 2.12496C10.7553 2.12839 11.7889 2.33896 12.7516 2.74448C13.7143 3.15 14.587 3.74242 15.3193 4.48746H12.8607C12.6518 4.48746 12.4515 4.57043 12.3039 4.71811C12.1562 4.8658 12.0732 5.0661 12.0732 5.27496C12.0732 5.48382 12.1562 5.68412 12.3039 5.83181C12.4515 5.97949 12.6518 6.06246 12.8607 6.06246H16.1233C16.5111 6.06225 16.8829 5.90811 17.1572 5.63391C17.4314 5.3597 17.5855 4.98786 17.5857 4.60007V1.33746C17.5857 1.1286 17.5027 0.928299 17.3551 0.780614C17.2074 0.63293 17.0071 0.549961 16.7982 0.549961V0.549961C16.5893 0.549961 16.389 0.63293 16.2414 0.780614C16.0937 0.928299 16.0107 1.1286 16.0107 1.33746V2.97389C14.7091 1.80166 13.1069 1.01491 11.3834 0.701751C9.66 0.388593 7.88341 0.561389 6.25262 1.20079C4.62184 1.84019 3.20124 2.92094 2.14993 4.32203C1.09861 5.72311 0.458087 7.3892 0.300081 9.13371C0.28991 9.24338 0.302693 9.35396 0.337616 9.45841C0.372539 9.56286 0.428837 9.6589 0.502923 9.74039C0.577008 9.82188 0.667257 9.88705 0.767918 9.93174C0.868579 9.97643 0.977446 9.99967 1.08758 9.99996V9.99996C1.28019 10.0024 1.46679 9.9329 1.61084 9.80501C1.7549 9.67713 1.84603 9.50008 1.86642 9.30854C2.04173 7.34825 2.9437 5.52436 4.39514 4.19517C5.84659 2.86598 7.7426 2.12755 9.71071 2.12496Z" fill="#101828"/>
<path d="M18.3345 10.0002C18.1419 9.99773 17.9553 10.0672 17.8113 10.1951C17.6672 10.323 17.5761 10.5001 17.5557 10.6916C17.4255 12.1904 16.8682 13.6204 15.9497 14.812C15.0313 16.0035 13.7903 16.9067 12.3741 17.4142C10.9578 17.9217 9.42571 18.0123 7.95951 17.6753C6.49331 17.3382 5.15455 16.5877 4.10206 15.5127H6.56063C6.76949 15.5127 6.96979 15.4297 7.11748 15.282C7.26516 15.1344 7.34813 14.9341 7.34813 14.7252C7.34813 14.5163 7.26516 14.316 7.11748 14.1683C6.96979 14.0207 6.76949 13.9377 6.56063 13.9377H3.29802C3.10595 13.9376 2.91574 13.9753 2.73827 14.0488C2.56079 14.1223 2.39954 14.23 2.26373 14.3658C2.12791 14.5016 2.02019 14.6629 1.94674 14.8403C1.87328 15.0178 1.83553 15.208 1.83563 15.4001V18.6627C1.83563 18.8716 1.9186 19.0719 2.06629 19.2196C2.21397 19.3672 2.41427 19.4502 2.62313 19.4502C2.83199 19.4502 3.03229 19.3672 3.17998 19.2196C3.32766 19.0719 3.41063 18.8716 3.41063 18.6627V17.0263C4.71224 18.1985 6.31447 18.9853 8.0379 19.2984C9.76134 19.6116 11.5379 19.4388 13.1687 18.7994C14.7995 18.16 16.2201 17.0792 17.2714 15.6781C18.3227 14.277 18.9633 12.611 19.1213 10.8664C19.1314 10.7568 19.1186 10.6462 19.0837 10.5417C19.0488 10.4373 18.9925 10.3413 18.9184 10.2598C18.8443 10.1783 18.7541 10.1131 18.6534 10.0684C18.5528 10.0237 18.4439 10.0005 18.3338 10.0002H18.3345Z" fill="#101828"/>
</g>
<defs>
<clipPath id="clip0_1008_5467">
<rect width="18.9" height="18.9" fill="white" transform="translate(0.260498 0.549988)"/>
</clipPath>
</defs>
</svg>
