<svg width="25" height="18" viewBox="0 0 25 18" fill="none" xmlns="http://www.w3.org/2000/svg">
<g clip-path="url(#clip0_1_3607)">
<path d="M22.9604 11.8414H1.84037C1.31018 11.8414 0.880371 12.2712 0.880371 12.8014C0.880371 13.3316 1.31018 13.7614 1.84037 13.7614H22.9604C23.4906 13.7614 23.9204 13.3316 23.9204 12.8014C23.9204 12.2712 23.4906 11.8414 22.9604 11.8414Z" fill="#374957"/>
<path d="M22.9604 5.11963H1.84037C1.31018 5.11963 0.880371 5.54943 0.880371 6.07963C0.880371 6.60982 1.31018 7.03963 1.84037 7.03963H22.9604C23.4906 7.03963 23.9204 6.60982 23.9204 6.07963C23.9204 5.54943 23.4906 5.11963 22.9604 5.11963Z" fill="#374957"/>
</g>
<defs>
<clipPath id="clip0_1_3607">
<rect width="24" height="16.8" fill="white" transform="translate(0.39917 0.800049)"/>
</clipPath>
</defs>
</svg>
