<svg width="30" height="30" viewBox="0 0 30 30" fill="none" xmlns="http://www.w3.org/2000/svg">
<g clip-path="url(#clip0_387_5564)">
<path d="M21.2502 30H8.75647C8.03362 29.9996 7.31938 29.843 6.66265 29.541C6.00592 29.2389 5.42221 28.7986 4.95147 28.25C4.48736 27.7134 4.14466 27.0829 3.94682 26.4016C3.74899 25.7202 3.70069 25.0042 3.80522 24.3025C4.47636 20.6469 6.42643 17.3493 9.30647 15C6.42639 12.6498 4.47673 9.35136 3.80647 5.695C3.70214 4.99377 3.75043 4.27828 3.94804 3.59743C4.14565 2.91657 4.48793 2.28641 4.95147 1.75C5.42221 1.20143 6.00592 0.761055 6.66265 0.459012C7.31938 0.156969 8.03362 0.000392302 8.75647 0L21.2502 0C21.973 0.000640179 22.6872 0.157328 23.3439 0.459354C24.0006 0.76138 24.5843 1.20162 25.0552 1.75C25.5188 2.28619 25.8613 2.91606 26.0593 3.59665C26.2574 4.27724 26.3063 4.99254 26.2027 5.69375C25.5256 9.35119 23.5716 12.6493 20.689 15C23.5699 17.3527 25.5217 20.6521 26.1965 24.31C26.3001 25.0114 26.2513 25.7269 26.0533 26.4077C25.8552 27.0885 25.5127 27.7186 25.049 28.255C24.5783 28.8017 23.9953 29.2405 23.3398 29.5416C22.6843 29.8427 21.9716 29.9991 21.2502 30ZM21.2502 2.5H8.75647C8.39389 2.49978 8.03553 2.57784 7.70589 2.72885C7.37625 2.87987 7.0831 3.10027 6.84647 3.375C6.61541 3.63804 6.44467 3.94843 6.34621 4.28441C6.24774 4.6204 6.22394 4.97385 6.27647 5.32C6.74647 8.445 8.68147 11.37 12.0265 14.0163C12.1743 14.1333 12.2937 14.2822 12.3758 14.4519C12.4579 14.6216 12.5005 14.8077 12.5005 14.9963C12.5005 15.1848 12.4579 15.3709 12.3758 15.5406C12.2937 15.7103 12.1743 15.8592 12.0265 15.9762C8.68147 18.625 6.75022 21.5525 6.27647 24.6762C6.22338 25.023 6.24689 25.3772 6.34537 25.7138C6.44385 26.0505 6.61489 26.3615 6.84647 26.625C7.0831 26.8997 7.37625 27.1201 7.70589 27.2711C8.03553 27.4222 8.39389 27.5002 8.75647 27.5H21.2502C21.6128 27.5003 21.9712 27.4223 22.3009 27.2713C22.6305 27.1202 22.9237 26.8998 23.1602 26.625C23.3912 26.3624 23.562 26.0525 23.6604 25.7169C23.7589 25.3813 23.7827 25.0283 23.7302 24.6825C23.264 21.5737 21.3302 18.6462 17.9802 15.98C17.8333 15.8629 17.7147 15.7142 17.6332 15.545C17.5517 15.3758 17.5093 15.1903 17.5093 15.0025C17.5093 14.8147 17.5517 14.6292 17.6332 14.46C17.7147 14.2908 17.8333 14.1421 17.9802 14.025C21.3315 11.3588 23.2652 8.43125 23.7302 5.32125C23.7825 4.97444 23.758 4.62037 23.6585 4.28406C23.5589 3.94775 23.3867 3.63742 23.154 3.375C22.9181 3.101 22.626 2.88103 22.2975 2.73004C21.9689 2.57905 21.6118 2.50059 21.2502 2.5ZM19.6015 25H10.3977C10.1932 24.9999 9.99182 24.9496 9.81125 24.8536C9.63067 24.7575 9.47643 24.6187 9.36204 24.4491C9.24765 24.2796 9.17661 24.0845 9.15516 23.8811C9.1337 23.6777 9.16248 23.4722 9.23897 23.2825C10.2178 21.1689 11.7092 19.3333 13.5777 17.9425L14.2252 17.4275C14.4464 17.2516 14.7207 17.1558 15.0033 17.1558C15.286 17.1558 15.5603 17.2516 15.7815 17.4275L16.4177 17.935C18.2836 19.3313 19.775 21.1675 20.759 23.28C20.836 23.4697 20.8652 23.6754 20.844 23.8791C20.8229 24.0827 20.752 24.278 20.6377 24.4479C20.5234 24.6177 20.3692 24.7569 20.1885 24.8532C20.0078 24.9495 19.8062 24.9999 19.6015 25ZM12.5427 22.5H17.4527C16.7395 21.5704 15.916 20.7309 15.0002 20C14.0804 20.7281 13.2549 21.5679 12.5427 22.5Z" fill="#FEE08B"/>
</g>
<defs>
<clipPath id="clip0_387_5564">
<rect width="30" height="30" rx="5" fill="white"/>
</clipPath>
</defs>
</svg>
