<svg width="13" height="12" viewBox="0 0 13 12" fill="none" xmlns="http://www.w3.org/2000/svg">
<path d="M1.03141 5.4091L1.04237 5.41988C0.75595 5.805 0.78937 6.34999 1.14263 6.6978L5.37289 10.8628C5.76176 11.2457 6.39218 11.2457 6.78106 10.8628C7.17123 10.4787 7.17123 9.854 6.78106 9.46984L3.25684 5.99996L6.77842 2.53016C7.16859 2.146 7.16859 1.52131 6.77842 1.13716C6.38954 0.754281 5.75912 0.754281 5.37024 1.13716L1.13998 5.3022L1.03141 5.4091ZM10.338 1.24406L10.3406 1.24666L6.21894 5.3048C5.82877 5.68896 5.82877 6.31365 6.21894 6.6978L10.4492 10.8628C10.8381 11.2457 11.4685 11.2457 11.8574 10.8628C12.2475 10.4787 12.2475 9.854 11.8574 9.46984L8.33316 5.99996L11.8547 2.53016C11.8547 2.53015 11.8548 2.53013 11.8548 2.53012C12.2449 2.14596 12.2449 1.5213 11.8547 1.13716C11.4659 0.754281 10.8354 0.754281 10.4466 1.13716L10.338 1.24406Z" fill="white" stroke="white" stroke-width="0.3"/>
</svg>
