<svg width="18" height="18" viewBox="0 0 18 18" fill="none" xmlns="http://www.w3.org/2000/svg">
<path d="M6.60156 5C6.61125 3.25998 6.68841 2.31765 7.30311 1.70294C8.00608 1 9.13744 1 11.4002 1H12.2002C14.4629 1 15.5943 1 16.2972 1.70294C17.0002 2.40589 17.0002 3.53726 17.0002 5.8V12.2C17.0002 14.4627 17.0002 15.5941 16.2972 16.297C15.5943 17 14.4629 17 12.2002 17H11.4002C9.13744 17 8.00608 17 7.30311 16.297C6.68841 15.6823 6.61125 14.74 6.60156 13" stroke="#88774F" stroke-width="1.5" stroke-linecap="round"/>
<path d="M11.4 8.99961H1M1 8.99961L3.8 6.59961M1 8.99961L3.8 11.3996" stroke="#88774F" stroke-width="1.5" stroke-linecap="round" stroke-linejoin="round"/>
</svg>
