<svg width="19" height="22" viewBox="0 0 19 22" fill="none" xmlns="http://www.w3.org/2000/svg">
<g clip-path="url(#clip0_847_5099)">
<path d="M2.71429 1.375C2.71429 0.614453 2.10781 0 1.35714 0C0.606473 0 0 0.614453 0 1.375V2.75V15.8125V20.625C0 21.3855 0.606473 22 1.35714 22C2.10781 22 2.71429 21.3855 2.71429 20.625V15.125L5.44129 14.4332C7.18437 13.9906 9.02924 14.1969 10.6366 15.009C12.5112 15.9586 14.6868 16.0746 16.6462 15.327L18.1179 14.7684C18.648 14.5664 19 14.0551 19 13.4793V2.84023C19 1.85195 17.9737 1.20742 17.1 1.65L16.6929 1.85625C14.7292 2.85313 12.4179 2.85313 10.4542 1.85625C8.96562 1.1 7.25647 0.910938 5.64062 1.31914L2.71429 2.0625V1.375Z" fill="#4399F7"/>
</g>
<defs>
<clipPath id="clip0_847_5099">
<rect width="19" height="22" fill="white"/>
</clipPath>
</defs>
</svg>
