<svg width="24" height="22" viewBox="0 0 24 22" fill="none" xmlns="http://www.w3.org/2000/svg">
<path d="M0 2.75C0 1.2332 1.19583 0 2.66667 0H9.33333V5.5C9.33333 6.26055 9.92917 6.875 10.6667 6.875H16V12.2762L12.3833 16.0059C11.9542 16.4484 11.6542 16.9984 11.5083 17.6043L10.7292 20.8227C10.6333 21.218 10.6542 21.6305 10.7833 22.0043H2.66667C1.19583 22.0043 0 20.7711 0 19.2543V2.75ZM16 5.5H10.6667V0L16 5.5ZM22.9083 10.1277L23.5083 10.7465C24.1583 11.4168 24.1583 12.5039 23.5083 13.1785L22.2833 14.4418L19.325 11.391L20.55 10.1277C21.2 9.45742 22.2542 9.45742 22.9083 10.1277ZM12.9958 17.918L18.3792 12.3664L21.3375 15.4172L15.9542 20.9645C15.7833 21.1406 15.5708 21.2652 15.3333 21.3254L12.8292 21.9699C12.6 22.0301 12.3625 21.9613 12.1958 21.7895C12.0292 21.6176 11.9625 21.3727 12.0208 21.1363L12.6458 18.5539C12.7042 18.3133 12.825 18.0898 12.9958 17.9137V17.918Z" fill="#EC4899"/>
</svg>
