<svg width="22" height="23" viewBox="0 0 22 23" fill="none" xmlns="http://www.w3.org/2000/svg">
<path d="M0 2.875C0 1.28926 1.27298 0 2.83871 0H4.93548C7.69691 0 9.93548 2.23858 9.93548 5V5.75C9.93548 6.54512 10.5698 7.1875 11.3548 7.1875H13.7979C15.5842 7.1875 17.0323 8.63558 17.0323 10.4219C17.0323 12.2082 15.5842 13.6562 13.7979 13.6562H7.80645C6.24073 13.6562 4.96774 14.9455 4.96774 16.5312V20.871C4.96774 22.0468 4.01454 23 2.83871 23C1.27298 23 0 21.7107 0 20.125V2.875ZM14.219 2.90082C15.2629 3.95805 14.514 5.75 13.0283 5.75C12.1041 5.75 11.3548 5.00078 11.3548 4.07657C11.3548 2.58058 13.168 1.8363 14.219 2.90082ZM7.80645 15.8125H9.22581C10.5964 15.8125 11.7097 16.94 11.7097 18.3281C11.7097 19.7162 10.5964 20.8438 9.22581 20.8438C8.83386 20.8438 8.51613 21.1615 8.51613 21.5534V22.2812C8.51613 22.6766 8.19677 23 7.80645 23C7.41613 23 7.09677 22.6766 7.09677 22.2812V20.125V16.5312C7.09677 16.1359 7.41613 15.8125 7.80645 15.8125ZM9.22581 19.4062C9.81573 19.4062 10.2903 18.9256 10.2903 18.3281C10.2903 17.7307 9.81573 17.25 9.22581 17.25C8.83386 17.25 8.51613 17.5677 8.51613 17.9597V18.6966C8.51613 19.0885 8.83386 19.4062 9.22581 19.4062ZM13.4839 15.8125H14.9032C16.0786 15.8125 17.0323 16.7783 17.0323 17.9688V20.8438C17.0323 22.0342 16.0786 23 14.9032 23H13.4839C13.0935 23 12.7742 22.6766 12.7742 22.2812V16.5312C12.7742 16.1359 13.0935 15.8125 13.4839 15.8125ZM14.9032 21.5625C15.2935 21.5625 15.6129 21.2391 15.6129 20.8438V17.9688C15.6129 17.5734 15.2935 17.25 14.9032 17.25C14.5113 17.25 14.1935 17.5677 14.1935 17.9597V20.8528C14.1935 21.2448 14.5113 21.5625 14.9032 21.5625ZM18.4516 16.5312C18.4516 16.1359 18.771 15.8125 19.1613 15.8125H21.2903C21.6806 15.8125 22 16.1359 22 16.5312C22 16.9266 21.6806 17.25 21.2903 17.25H20.5897C20.1928 17.25 19.871 17.5718 19.871 17.9688C19.871 18.3657 20.1928 18.6875 20.5897 18.6875H21.2903C21.6806 18.6875 22 19.0109 22 19.4062C22 19.8016 21.6806 20.125 21.2903 20.125C20.5064 20.125 19.871 20.7605 19.871 21.5444V22.2812C19.871 22.6766 19.5516 23 19.1613 23C18.771 23 18.4516 22.6766 18.4516 22.2812V19.4062V16.5312Z" fill="#F72015"/>
</svg>
