<svg width="42" height="42" viewBox="0 0 42 42" fill="none" xmlns="http://www.w3.org/2000/svg">
<g filter="url(#filter0_d_173_5996)">
<path d="M14.2878 28.1193C13.804 27.4973 13.1992 26.2358 12.1451 24.6633C11.5403 23.7993 10.0542 22.1577 9.60491 21.311C9.28103 20.7965 9.18705 20.1699 9.34571 19.583C9.61694 18.4671 10.6755 17.7268 11.8168 17.855C12.6994 18.0323 13.5106 18.4649 14.1496 19.0992C14.5957 19.5194 15.0061 19.976 15.3764 20.4643C15.6529 20.8099 15.722 20.9481 16.0331 21.3456C16.3441 21.743 16.5515 22.1405 16.3959 21.5529C16.275 20.6889 16.0676 19.2374 15.7739 17.9414C15.5492 16.9565 15.4974 16.8009 15.29 16.0579C15.0827 15.3149 14.9617 14.6928 14.7371 13.8461C14.5317 13.0141 14.3702 12.172 14.2532 11.3232C14.0354 10.2375 14.1939 9.10998 14.7025 8.12638C15.3063 7.5585 16.1919 7.40862 16.9489 7.74622C17.7103 8.3084 18.2779 9.09345 18.5732 9.99262C19.0261 11.0992 19.3283 12.2616 19.4718 13.4486C19.7483 15.1766 20.2839 17.6995 20.3012 18.2179C20.3012 17.5785 20.1803 16.2307 20.3012 15.6259C20.4211 14.9954 20.8593 14.4721 21.459 14.2435C21.9736 14.0856 22.518 14.0501 23.0487 14.1398C23.5845 14.2518 24.059 14.56 24.3793 15.0038C24.7797 16.0119 25.0018 17.0819 25.0359 18.1661C25.0822 17.2167 25.2447 16.2765 25.5198 15.3667C25.8085 14.9598 26.2302 14.6665 26.7121 14.5373C27.2834 14.4328 27.8688 14.4328 28.4401 14.5373C28.9086 14.6939 29.3183 14.9892 29.6152 15.384C29.9811 16.3004 30.2026 17.2681 30.2718 18.2525C30.2718 18.4944 30.3927 17.5785 30.7729 16.9737C30.9705 16.3872 31.4659 15.9507 32.0726 15.8285C32.6793 15.7064 33.305 15.9172 33.7142 16.3815C34.1233 16.8458 34.2537 17.4932 34.0561 18.0797C34.0561 19.2029 34.0561 19.151 34.0561 19.9113C34.0561 20.6717 34.0561 21.3456 34.0561 21.9849C33.9931 22.9961 33.8545 24.0012 33.6414 24.9917C33.3407 25.868 32.9221 26.6993 32.3972 27.4627C31.5582 28.3958 30.8649 29.4502 30.3409 30.5904C30.2109 31.1568 30.1528 31.7374 30.1681 32.3184C30.1664 32.8551 30.2361 33.3898 30.3755 33.9081C29.669 33.9828 28.9565 33.9828 28.25 33.9081C27.5761 33.8045 26.7467 32.4566 26.522 32.0419C26.4109 31.8192 26.1834 31.6785 25.9345 31.6785C25.6856 31.6785 25.4581 31.8192 25.347 32.0419C24.9668 32.6985 24.1201 33.8909 23.5326 33.96C22.3748 34.0982 19.9902 33.96 18.1067 33.96C18.1067 33.96 18.4177 32.232 17.7092 31.6099C17.0008 30.9878 16.275 30.2621 15.7393 29.7782L14.2878 28.1193Z" fill="white"/>
<path fill-rule="evenodd" clip-rule="evenodd" d="M14.2878 28.1193C13.804 27.4973 13.1992 26.2358 12.1451 24.6633C11.5403 23.7993 10.0542 22.1577 9.60491 21.311C9.28103 20.7965 9.18705 20.1699 9.34571 19.583C9.61694 18.4671 10.6755 17.7268 11.8168 17.855C12.6994 18.0323 13.5106 18.4649 14.1496 19.0992C14.5957 19.5194 15.0061 19.976 15.3764 20.4643C15.6529 20.8099 15.722 20.9481 16.0331 21.3456C16.3441 21.743 16.5515 22.1405 16.3959 21.5529C16.275 20.6889 16.0676 19.2374 15.7739 17.9414C15.5492 16.9565 15.4974 16.8009 15.29 16.0579C15.0827 15.3149 14.9617 14.6928 14.7371 13.8461C14.5317 13.0141 14.3702 12.172 14.2532 11.3232C14.0354 10.2375 14.1939 9.10998 14.7025 8.12638C15.3063 7.5585 16.1919 7.40862 16.9489 7.74622C17.7103 8.3084 18.2779 9.09345 18.5732 9.99262C19.0261 11.0992 19.3283 12.2616 19.4718 13.4486C19.7483 15.1766 20.2839 17.6995 20.3012 18.2179C20.3012 17.5785 20.1803 16.2307 20.3012 15.6259C20.4211 14.9954 20.8593 14.4721 21.459 14.2435C21.9736 14.0856 22.518 14.0501 23.0488 14.1398C23.5845 14.2518 24.059 14.56 24.3793 15.0038C24.7797 16.0119 25.0018 17.0819 25.0359 18.1661C25.0822 17.2167 25.2447 16.2765 25.5198 15.3667C25.8085 14.9598 26.2302 14.6665 26.7121 14.5373C27.2834 14.4328 27.8688 14.4328 28.4401 14.5373C28.9086 14.6939 29.3184 14.9892 29.6152 15.384C29.9811 16.3004 30.2026 17.2681 30.2718 18.2525C30.2718 18.4944 30.3928 17.5785 30.7729 16.9737C30.9705 16.3872 31.4659 15.9507 32.0726 15.8285C32.6793 15.7064 33.3051 15.9172 33.7142 16.3815C34.1233 16.8458 34.2537 17.4932 34.0561 18.0797C34.0561 19.2029 34.0561 19.151 34.0561 19.9113C34.0561 20.6717 34.0561 21.3456 34.0561 21.9849C33.9931 22.9961 33.8545 24.0012 33.6414 24.9917C33.3407 25.868 32.9221 26.6993 32.3972 27.4627C31.5582 28.3958 30.8649 29.4502 30.3409 30.5904C30.2109 31.1568 30.1528 31.7374 30.1681 32.3184C30.1664 32.8551 30.2361 33.3898 30.3755 33.9081C29.669 33.9828 28.9565 33.9828 28.25 33.9081C27.5761 33.8045 26.7467 32.4566 26.522 32.0419C26.4109 31.8192 26.1834 31.6785 25.9345 31.6785C25.6856 31.6785 25.4581 31.8192 25.347 32.0419C24.9668 32.6985 24.1201 33.8909 23.5326 33.96C22.3748 34.0982 19.9902 33.96 18.1067 33.96C18.1067 33.96 18.4177 32.232 17.7092 31.6099C17.0008 30.9878 16.275 30.2621 15.7393 29.7782L14.2878 28.1193Z" stroke="black" stroke-width="1.296" stroke-linecap="round" stroke-linejoin="round"/>
<path d="M28.9376 29.0628V23.0981C28.9376 22.7411 28.6475 22.4517 28.2896 22.4517C27.9317 22.4517 27.6416 22.7411 27.6416 23.0981V29.0628C27.6416 29.4198 27.9317 29.7093 28.2896 29.7093C28.6475 29.7093 28.9376 29.4198 28.9376 29.0628Z" fill="black"/>
<path d="M25.5176 29.0606L25.483 23.0929C25.4809 22.7367 25.1892 22.4496 24.8313 22.4517C24.4734 22.4537 24.185 22.7441 24.187 23.1003L24.2216 29.068C24.2236 29.4242 24.5154 29.7113 24.8733 29.7092C25.2312 29.7072 25.5196 29.4168 25.5176 29.0606Z" fill="black"/>
<path d="M20.7341 23.1066L20.7687 29.062C20.7708 29.4215 21.0626 29.7113 21.4205 29.7092C21.7783 29.7072 22.0668 29.4139 22.0647 29.0544L22.0301 23.099C22.028 22.7394 21.7362 22.4496 21.3784 22.4517C21.0205 22.4538 20.7321 22.747 20.7341 23.1066Z" fill="black"/>
</g>
<defs>
<filter id="filter0_d_173_5996" x="7.23991" y="6.9198" width="28.9372" height="30.86" filterUnits="userSpaceOnUse" color-interpolation-filters="sRGB">
<feFlood flood-opacity="0" result="BackgroundImageFix"/>
<feColorMatrix in="SourceAlpha" type="matrix" values="0 0 0 0 0 0 0 0 0 0 0 0 0 0 0 0 0 0 127 0" result="hardAlpha"/>
<feOffset dy="1.728"/>
<feGaussianBlur stdDeviation="0.6912"/>
<feColorMatrix type="matrix" values="0 0 0 0 0 0 0 0 0 0 0 0 0 0 0 0 0 0 0.5 0"/>
<feBlend mode="normal" in2="BackgroundImageFix" result="effect1_dropShadow_173_5996"/>
<feBlend mode="normal" in="SourceGraphic" in2="effect1_dropShadow_173_5996" result="shape"/>
</filter>
</defs>
</svg>
