<svg width="20" height="20" viewBox="0 0 20 20" fill="none" xmlns="http://www.w3.org/2000/svg">
<path d="M17.7071 17.4529L16.0986 15.8745M9.26258 16.6637C10.2659 16.6637 11.2594 16.4698 12.1864 16.093C13.1133 15.7163 13.9556 15.164 14.6651 14.4679C15.3745 13.7717 15.9373 12.9453 16.3213 12.0357C16.7052 11.1261 16.9028 10.1512 16.9028 9.16669C16.9028 8.18217 16.7052 7.20729 16.3213 6.29771C15.9373 5.38813 15.3745 4.56166 14.6651 3.8655C13.9556 3.16934 13.1133 2.61711 12.1864 2.24035C11.2594 1.86359 10.2659 1.66968 9.26258 1.66968C7.23626 1.66968 5.29292 2.45954 3.8601 3.8655C2.42727 5.27146 1.62231 7.17836 1.62231 9.16669C1.62231 11.155 2.42727 13.0619 3.8601 14.4679C5.29292 15.8738 7.23626 16.6637 9.26258 16.6637V16.6637Z" stroke="black" stroke-opacity="0.57" stroke-width="0.973721" stroke-linecap="round" stroke-linejoin="round"/>
</svg>
