<svg width="26" height="26" viewBox="0 0 26 26" fill="none" xmlns="http://www.w3.org/2000/svg">
<path d="M7.75089 2.33846C7.88546 2.3383 8.02004 2.33785 8.15462 2.33742C8.48073 2.33655 8.80682 2.33674 9.13293 2.3373C9.39821 2.33775 9.66348 2.3378 9.92876 2.33759C9.96666 2.33756 10.0046 2.33753 10.0436 2.3375C10.1206 2.33744 10.1977 2.33738 10.2747 2.33731C10.9952 2.33676 11.7158 2.33739 12.4363 2.33844C13.0532 2.33932 13.67 2.33917 14.2869 2.33826C15.005 2.33722 15.7232 2.33681 16.4413 2.33741C16.518 2.33747 16.5948 2.33753 16.6715 2.33759C16.7092 2.33762 16.747 2.33765 16.7859 2.33768C17.0505 2.33785 17.3151 2.33757 17.5798 2.33711C17.9027 2.33656 18.2257 2.33671 18.5487 2.33775C18.7131 2.33826 18.8776 2.33836 19.042 2.33782C19.8585 2.33536 20.5901 2.35295 21.3262 2.7452C21.3587 2.76192 21.3911 2.77865 21.4245 2.79589C21.6855 2.93423 21.9147 3.09811 22.138 3.29146C22.1961 3.33518 22.1961 3.33518 22.2553 3.37977C22.721 3.77266 23.0619 4.33143 23.2611 4.90279C23.2773 4.94686 23.2935 4.99093 23.3102 5.03634C23.5119 5.67028 23.4838 6.31156 23.4816 6.97074C23.4818 7.10532 23.4823 7.23989 23.4827 7.37447C23.4835 7.70058 23.4834 8.02667 23.4828 8.35278C23.4824 8.61806 23.4823 8.88333 23.4825 9.14861C23.4825 9.18652 23.4826 9.22442 23.4826 9.26347C23.4827 9.3405 23.4827 9.41753 23.4828 9.49456C23.4833 10.2151 23.4827 10.9356 23.4817 11.6562C23.4808 12.273 23.4809 12.8899 23.4818 13.5067C23.4829 14.2249 23.4833 14.943 23.4827 15.6612C23.4826 15.7379 23.4826 15.8146 23.4825 15.8913C23.4825 15.948 23.4825 15.948 23.4824 16.0057C23.4823 16.2704 23.4825 16.535 23.483 16.7996C23.4835 17.1226 23.4834 17.4456 23.4824 17.7685C23.4818 17.933 23.4817 18.0974 23.4823 18.2619C23.4847 19.0782 23.4674 19.8103 23.0749 20.5461C23.0494 20.5951 23.0494 20.5951 23.0235 20.645C22.8841 20.9063 22.7289 21.1388 22.5286 21.3579C22.4896 21.4014 22.4505 21.445 22.4102 21.4899C21.7472 22.1922 20.8229 22.6641 19.8461 22.6945C19.5971 22.6859 19.4158 22.6419 19.236 22.4582C19.0304 22.22 18.9986 22.0809 19.0025 21.7748C19.0222 21.542 19.1087 21.406 19.2755 21.248C19.4978 21.0998 19.7133 21.0485 19.9743 21.0008C20.6331 20.8614 21.1211 20.5324 21.5002 19.9693C21.8049 19.4552 21.852 18.9175 21.8528 18.3316C21.8531 18.2689 21.8531 18.2689 21.8535 18.205C21.8542 18.066 21.8547 17.9269 21.8551 17.7878C21.8555 17.686 21.856 17.5843 21.8566 17.4826C21.8579 17.2108 21.8589 16.9391 21.8599 16.6674C21.8608 16.4122 21.8621 16.157 21.8633 15.9017C21.8666 15.1559 21.8695 14.4102 21.8725 13.6644C21.8796 11.9977 21.8866 10.331 21.8939 8.61373C16.222 8.61373 10.5501 8.61373 4.70638 8.61373C4.71242 10.2764 4.71846 11.9391 4.72469 13.6522C4.72635 14.1766 4.72801 14.7011 4.72972 15.2414C4.73167 15.7127 4.73167 15.7127 4.73374 16.184C4.73466 16.3934 4.73531 16.6029 4.7358 16.8123C4.73644 17.08 4.73753 17.3477 4.73896 17.6153C4.7394 17.7132 4.73968 17.8112 4.73979 17.9091C4.74093 18.8353 4.78206 19.5945 5.38997 20.3325C5.5848 20.5996 5.67668 20.8262 5.63411 21.1626C5.56567 21.3788 5.47448 21.5216 5.30452 21.6722C5.0513 21.7939 4.85446 21.8144 4.5782 21.7668C4.26256 21.6382 4.06712 21.4107 3.8763 21.1381C3.8553 21.1082 3.8343 21.0783 3.81266 21.0475C3.16584 20.1019 3.11493 19.1777 3.1186 18.0692C3.11845 17.9346 3.118 17.8001 3.11757 17.6655C3.1167 17.3394 3.11688 17.0133 3.11745 16.6872C3.11789 16.4219 3.11795 16.1566 3.11774 15.8913C3.11771 15.8534 3.11768 15.8155 3.11765 15.7765C3.11759 15.6995 3.11752 15.6224 3.11746 15.5454C3.1169 14.8249 3.11754 14.1043 3.11859 13.3838C3.11946 12.7669 3.11931 12.1501 3.11841 11.5332C3.11736 10.8151 3.11696 10.0969 3.11756 9.37879C3.11762 9.30207 3.11768 9.22534 3.11774 9.14861C3.11778 9.092 3.11778 9.092 3.11783 9.03424C3.118 8.7696 3.11772 8.50497 3.11726 8.24033C3.1167 7.91736 3.11686 7.5944 3.1179 7.27144C3.11841 7.10698 3.11851 6.94255 3.11796 6.77809C3.11551 5.96155 3.1331 5.22996 3.52535 4.49385C3.55044 4.4452 3.55044 4.4452 3.57603 4.39557C3.71437 4.1346 3.87826 3.90536 4.07161 3.68209C4.10075 3.64338 4.12989 3.60467 4.15992 3.56479C4.55281 3.09906 5.11158 2.75816 5.68294 2.55904C5.72701 2.54282 5.77108 2.5266 5.81649 2.50988C6.45043 2.30816 7.09171 2.33627 7.75089 2.33846ZM15.772 5.07979C15.6644 5.30331 15.6538 5.489 15.6927 5.73287C15.8065 5.96913 15.9447 6.1074 16.181 6.22115C16.4249 6.26007 16.6105 6.24942 16.8341 6.1418C17.0091 5.98347 17.1378 5.85666 17.1762 5.61576C17.1887 5.33823 17.1544 5.16405 16.9622 4.95162C16.7498 4.75942 16.5756 4.72511 16.2981 4.73761C16.0572 4.77606 15.9304 4.90479 15.772 5.07979ZM18.897 5.07979C18.7894 5.30331 18.7788 5.489 18.8177 5.73287C18.9315 5.96913 19.0697 6.1074 19.306 6.22115C19.5499 6.26007 19.7355 6.24942 19.9591 6.1418C20.1341 5.98347 20.2628 5.85666 20.3012 5.61576C20.3137 5.33823 20.2794 5.16405 20.0872 4.95162C19.8748 4.75942 19.7006 4.72511 19.4231 4.73761C19.1822 4.77606 19.0554 4.90479 18.897 5.07979Z" fill="white"/>
<path d="M13.6664 11.7188C13.6986 11.7188 13.7307 11.7188 13.7639 11.7189C15.4876 11.7264 17.1326 12.4933 18.3455 13.7062C19.27 14.681 19.5783 15.8571 19.5636 17.1635C19.5277 18.4653 18.8355 19.5369 17.9877 20.4773C17.9558 20.5127 17.9239 20.5482 17.891 20.5847C17.192 21.3195 16.314 21.8268 15.3987 22.2395C15.191 22.3352 15.0744 22.405 14.936 22.5922C14.9083 22.6292 14.8806 22.6663 14.852 22.7045C14.8233 22.743 14.7946 22.7814 14.7651 22.8211C14.1839 23.5873 13.1669 24.1033 12.226 24.2371C10.9411 24.3324 9.76707 24.0753 8.75844 23.2433C8.71035 23.2007 8.66226 23.158 8.61272 23.114C8.58776 23.0919 8.5628 23.0699 8.53709 23.0471C7.7581 22.3466 7.11115 21.3147 7.04157 20.247C7.01652 19.0482 7.18978 18.0194 8.02678 17.1082C8.07059 17.0602 8.07059 17.0602 8.11528 17.0113C8.33022 16.7867 8.33022 16.7867 8.45064 16.7228C8.60486 16.635 8.69248 16.5692 8.75688 16.4C8.7906 16.248 8.81586 16.0965 8.83855 15.9424C8.85787 15.8317 8.87751 15.7211 8.89748 15.6105C8.90697 15.5572 8.91645 15.5038 8.92621 15.4489C9.07106 14.6947 9.42837 13.9762 9.93108 13.3972C9.96355 13.3578 9.99603 13.3183 10.0295 13.2776C10.9447 12.2028 12.2829 11.7167 13.6664 11.7188ZM11.6401 13.9832C11.6056 14.0081 11.5711 14.033 11.5355 14.0587C10.751 14.6826 10.4512 15.699 10.3419 16.6569C10.3301 16.7654 10.3191 16.8738 10.3105 16.9827C10.2915 17.1921 10.2431 17.3251 10.1264 17.4988C10.1264 17.531 10.1264 17.5632 10.1264 17.5964C10.0994 17.6095 10.0725 17.6225 10.0448 17.6359C9.38053 17.9758 8.94699 18.4115 8.70503 19.1229C8.57426 19.6718 8.62181 20.2584 8.85686 20.7703C8.87757 20.8158 8.89827 20.8613 8.91961 20.9082C9.09221 21.2529 9.31845 21.5234 9.58928 21.7957C9.61817 21.8263 9.64706 21.8568 9.67683 21.8884C9.88293 22.0895 10.1158 22.2188 10.3705 22.348C10.4192 22.3728 10.4192 22.3728 10.4689 22.398C11.0997 22.7043 11.7625 22.7387 12.4301 22.5279C13.0717 22.2805 13.5491 21.8124 13.9478 21.2624C14.1897 20.9731 14.5034 20.8566 14.8414 20.7092C16.138 20.127 17.2535 19.1802 17.7937 17.8364C18.0488 17.0721 18.0214 16.2713 17.6717 15.5422C17.1063 14.4971 16.0204 13.8566 14.918 13.4913C14.7049 13.4283 14.497 13.3783 14.2768 13.3484C14.2294 13.3418 14.182 13.3353 14.1332 13.3286C13.2293 13.231 12.3765 13.4437 11.6401 13.9832Z" fill="white"/>
<path d="M15.8561 15.6216C16.1284 15.8324 16.317 16.149 16.425 16.4731C16.4936 17.0879 16.3613 17.5323 15.9747 18.0283C15.8682 18.1492 15.7578 18.2636 15.6438 18.3774C15.6174 18.4072 15.591 18.437 15.5639 18.4678C15.1121 18.9662 14.4792 19.2373 13.8715 19.4927C13.3778 19.7066 12.9954 19.995 12.6836 20.4343C12.4704 20.7202 12.2565 20.9499 11.9328 21.1117C11.4621 21.1673 11.1021 21.0906 10.7121 20.8188C10.3807 20.5237 10.1635 20.1956 10.1235 19.7469C10.1285 19.5623 10.1757 19.4131 10.2727 19.2563C10.4706 19.0752 10.6578 18.9936 10.9075 18.8992C11.2448 18.7626 11.4477 18.5922 11.5958 18.2556C11.75 17.8113 11.7991 17.3693 11.8454 16.9048C11.9161 16.2119 12.0408 15.5977 12.6019 15.1358C13.6227 14.4189 14.9475 15.0169 15.8561 15.6216Z" fill="white"/>
</svg>
