<svg width="28" height="28" viewBox="0 0 28 28" fill="none" xmlns="http://www.w3.org/2000/svg">
<g clip-path="url(#clip0_188_8969)">
<path d="M7.01904 4.64648C7.37117 4.93577 7.68965 5.25729 8.01099 5.57971C8.07338 5.64212 8.13578 5.70451 8.19819 5.76689C8.36673 5.93541 8.5351 6.10409 8.70344 6.2728C8.87972 6.44941 9.05615 6.62587 9.23256 6.80234C9.56622 7.13616 9.89973 7.47011 10.2332 7.80411C10.613 8.18452 10.993 8.56477 11.373 8.94501C12.1542 9.72685 12.9353 10.5089 13.7163 11.291C13.999 11.1564 14.1959 10.9447 14.4183 10.7274C14.4631 10.6857 14.5079 10.644 14.554 10.601C14.812 10.3626 14.812 10.3626 14.882 10.0342C14.8628 9.97912 14.8436 9.92399 14.8237 9.86719C14.6628 9.29985 14.7223 8.59889 14.9819 8.07422C15.3379 7.44973 15.8062 7.12431 16.4552 6.84814C17.1008 6.69005 17.7676 6.75586 18.3569 7.07227C18.9396 7.44796 19.345 7.98076 19.5171 8.6543C19.6659 9.34766 19.473 9.99717 19.1084 10.5857C18.7459 11.1059 18.2321 11.4111 17.6187 11.5547C17.4601 11.5687 17.3031 11.5695 17.144 11.5679C17.1035 11.5683 17.063 11.5687 17.0213 11.5691C16.8214 11.5684 16.6659 11.5537 16.4717 11.4978C16.2866 11.4453 16.2169 11.4446 16.0366 11.502C15.91 11.5996 15.91 11.5996 15.7917 11.7263C15.7473 11.7713 15.703 11.8164 15.6573 11.8628C15.6117 11.9101 15.5661 11.9574 15.5192 12.0062C15.4726 12.0538 15.426 12.1013 15.378 12.1503C15.263 12.2677 15.1486 12.3856 15.0347 12.5039C15.118 12.7057 15.2455 12.8332 15.3991 12.9865C15.4256 13.0131 15.4522 13.0398 15.4796 13.0673C15.5687 13.1565 15.6581 13.2454 15.7475 13.3342C15.8115 13.3981 15.8754 13.4621 15.9393 13.526C16.1128 13.6996 16.2867 13.8728 16.4606 14.046C16.6423 14.2271 16.8237 14.4084 17.0051 14.5897C17.3488 14.933 17.6926 15.276 18.0366 15.6189C18.4282 16.0094 18.8195 16.4001 19.2108 16.7908C20.0157 17.5946 20.821 18.398 21.6265 19.2012C21.5442 19.3772 21.4733 19.4631 21.3134 19.5757C21.271 19.6056 21.2286 19.6355 21.185 19.6664C21.1392 19.6978 21.0935 19.7291 21.0464 19.7615C20.9755 19.8104 20.9755 19.8104 20.9033 19.8604C19.5755 20.7645 18.1004 21.3755 16.5112 21.627C16.4726 21.6331 16.434 21.6393 16.3942 21.6457C15.127 21.8388 13.7983 21.7828 12.5562 21.4687C12.5634 21.5227 12.5707 21.5766 12.5782 21.6322C12.6465 22.1397 12.7148 22.6472 12.7831 23.1547C12.8181 23.4156 12.8532 23.6766 12.8884 23.9375C12.9223 24.1892 12.9561 24.4408 12.9899 24.6925C13.0029 24.7886 13.0158 24.8848 13.0288 24.981C13.0469 25.1153 13.065 25.2497 13.083 25.384C13.0884 25.4241 13.0938 25.4642 13.0994 25.5054C13.1362 25.7809 13.1362 25.7809 13.1362 25.8984C14.2152 25.8984 15.2941 25.8984 16.4058 25.8984C16.4058 26.4205 16.4058 26.9426 16.4058 27.4805C11.6897 27.4805 6.97369 27.4805 2.11475 27.4805C2.11475 26.9584 2.11475 26.4363 2.11475 25.8984C3.19369 25.8984 4.27264 25.8984 5.38428 25.8984C5.47129 25.4286 5.5583 24.9587 5.64795 24.4746C5.69612 24.2283 5.74461 23.9822 5.7949 23.7362C5.80737 23.6747 5.81983 23.6132 5.83268 23.5499C5.85902 23.42 5.8854 23.2901 5.91183 23.1602C5.95365 22.9545 5.99525 22.7487 6.03678 22.5429C6.05118 22.4716 6.06557 22.4003 6.07997 22.329C6.08715 22.2934 6.09434 22.2578 6.10174 22.2211C6.19794 21.7446 6.29435 21.2682 6.3913 20.7918C6.4575 20.4666 6.52334 20.1413 6.58876 19.8159C6.62318 19.6448 6.65783 19.4738 6.69282 19.3028C6.73153 19.1135 6.76962 18.9241 6.80756 18.7347C6.81917 18.6787 6.83078 18.6227 6.84275 18.5651C6.85294 18.5135 6.86314 18.462 6.87364 18.4088C6.88268 18.3643 6.89172 18.3197 6.90103 18.2738C6.92294 18.0514 6.88508 17.9173 6.75702 17.7349C6.71297 17.6815 6.66892 17.628 6.62353 17.573C5.03632 15.5846 4.37576 12.8651 4.63281 10.3583C4.65196 10.1941 4.67437 10.0307 4.69873 9.86719C4.70767 9.80645 4.70767 9.80645 4.71678 9.74449C4.89005 8.62854 5.25777 7.53177 5.80615 6.54492C5.83314 6.49299 5.86013 6.44105 5.88793 6.38754C6.08145 6.01824 6.30816 5.67516 6.54443 5.33203C6.56594 5.30078 6.58745 5.26953 6.6096 5.23733C6.74552 5.03998 6.88206 4.84308 7.01904 4.64648ZM7.28271 7.23047C6.69356 8.39806 6.26857 9.65603 6.22803 10.9746C6.22487 11.0688 6.22487 11.0688 6.22164 11.1649C6.19836 12.551 6.47891 13.8866 7.07178 15.1406C7.09774 15.1982 7.12371 15.2558 7.15047 15.3151C7.46523 15.9846 7.90653 16.5878 8.39014 17.1445C8.43187 17.1933 8.47361 17.2421 8.51662 17.2924C8.81696 17.6345 9.13648 17.9229 9.49756 18.1992C9.53961 18.2326 9.53961 18.2326 9.5825 18.2667C11.3739 19.6905 13.6773 20.2787 15.9379 20.0476C17.0507 19.9173 18.1026 19.5564 19.0952 19.043C18.8469 18.7445 18.5815 18.4691 18.3067 18.195C18.2597 18.148 18.2128 18.1009 18.1644 18.0524C18.0348 17.9227 17.9051 17.7931 17.7754 17.6635C17.6352 17.5235 17.4952 17.3833 17.3552 17.2431C17.0812 16.9689 16.8071 16.6948 16.5329 16.4208C16.3103 16.1983 16.0876 15.9756 15.865 15.753C15.8333 15.7213 15.8016 15.6896 15.769 15.6569C15.7046 15.5925 15.6402 15.5281 15.5758 15.4637C14.9725 14.8602 14.3691 14.257 13.7656 13.6538C13.2473 13.1358 12.7292 12.6176 12.2112 12.0993C11.6096 11.4975 11.008 10.8957 10.4062 10.2941C10.3421 10.23 10.278 10.166 10.2139 10.1019C10.1824 10.0704 10.1509 10.0389 10.1184 10.0064C9.89575 9.78379 9.67317 9.56113 9.45062 9.33845C9.1798 9.06748 8.90889 8.79661 8.63786 8.52587C8.49948 8.38762 8.36114 8.24934 8.22291 8.11094C8.07345 7.96129 7.92378 7.81184 7.7741 7.66242C7.72994 7.61814 7.68578 7.57387 7.64029 7.52826C7.60052 7.48862 7.56075 7.44899 7.51977 7.40815C7.4852 7.37359 7.45063 7.33903 7.41501 7.30342C7.34696 7.22453 7.34696 7.22453 7.28271 7.23047ZM16.4651 8.76636C16.376 8.99409 16.371 9.20414 16.4058 9.44531C16.5198 9.67766 16.6376 9.82493 16.8804 9.91992C17.1555 9.96204 17.3833 9.96077 17.6187 9.80127C17.7882 9.66919 17.8697 9.53436 17.9 9.32048C17.9047 9.01845 17.8825 8.83547 17.6714 8.60156C17.469 8.42302 17.2688 8.41631 17.0089 8.42482C16.763 8.46028 16.6245 8.58568 16.4651 8.76636ZM8.3374 19.4121C8.1722 20.2344 8.00717 21.0568 7.84235 21.8792C7.76582 22.261 7.68923 22.6428 7.61251 23.0246C7.54565 23.3574 7.4789 23.6901 7.41227 24.0229C7.37698 24.1991 7.34164 24.3754 7.30617 24.5516C7.26662 24.7481 7.22727 24.9447 7.18796 25.1414C7.17021 25.2293 7.17021 25.2293 7.1521 25.319C7.14145 25.3724 7.1308 25.4259 7.11982 25.481C7.11049 25.5275 7.10116 25.574 7.09154 25.6219C7.06743 25.7463 7.06743 25.7463 7.07178 25.8984C8.51617 25.8984 9.96057 25.8984 11.4487 25.8984C11.4075 25.3035 11.4075 25.3035 11.3433 24.7135C11.3383 24.6748 11.3333 24.6361 11.3282 24.5962C11.3121 24.4716 11.2957 24.347 11.2792 24.2225C11.2677 24.1344 11.2562 24.0464 11.2447 23.9583C11.2208 23.7754 11.1967 23.5924 11.1725 23.4095C11.1416 23.1756 11.1112 22.9417 11.0809 22.7077C11.0573 22.5266 11.0335 22.3454 11.0096 22.1643C10.9982 22.078 10.987 21.9918 10.9759 21.9055C10.9603 21.7851 10.9443 21.6648 10.9282 21.5445C10.9192 21.4762 10.9102 21.4079 10.901 21.3376C10.8699 21.1595 10.8337 21.0024 10.7632 20.8359C10.6344 20.7539 10.5225 20.6945 10.3842 20.6349C10.3071 20.599 10.2302 20.5628 10.1534 20.5263C10.1144 20.5079 10.0753 20.4895 10.035 20.4705C9.53914 20.2282 9.08373 19.9223 8.65562 19.5755C8.51453 19.4497 8.51453 19.4497 8.3374 19.4121Z" fill="white"/>
<path d="M17.144 0.479084C18.4975 0.446859 19.7748 0.723232 20.9937 1.32283C21.0269 1.339 21.0602 1.35517 21.0945 1.37184C21.7735 1.70563 22.379 2.12043 22.9327 2.63707C23.0407 2.73771 23.1516 2.83295 23.2645 2.92794C23.989 3.56389 24.5063 4.37793 24.9487 5.22518C24.9657 5.25731 24.9826 5.28943 25 5.32254C25.4119 6.11593 25.6461 6.98284 25.7925 7.8619C25.8024 7.91981 25.8123 7.97773 25.8226 8.0374C25.8497 8.26924 25.8509 8.49564 25.8485 8.72872C25.8474 8.87773 25.8463 9.02673 25.8452 9.18026C25.3057 9.18026 24.7663 9.18026 24.2104 9.18026C24.2061 9.06279 24.2017 8.94532 24.1973 8.8243C24.0949 6.97502 23.2751 5.18881 21.9066 3.93319C21.6008 3.67498 21.2712 3.44671 20.9409 3.22127C20.8969 3.19123 20.853 3.16118 20.8076 3.13022C19.7197 2.4347 18.4144 2.17056 17.144 2.11385C17.144 1.57438 17.144 1.0349 17.144 0.479084Z" fill="white"/>
<path d="M17.1439 3.58984C18.6144 3.67547 19.822 4.09705 20.9408 5.06641C20.9807 5.10094 21.0206 5.13547 21.0617 5.17105C22.1962 6.23076 22.6323 7.6784 22.7338 9.17969C22.1769 9.17969 21.62 9.17969 21.0463 9.17969C21.0332 9.04482 21.0202 8.90995 21.0067 8.771C20.8939 7.76599 20.4427 6.8806 19.6867 6.19999C18.9927 5.6487 18.1911 5.34162 17.3065 5.28847C17.1967 5.27734 17.1967 5.27734 17.1439 5.22461C17.1393 5.10377 17.1383 4.98278 17.1388 4.86185C17.1389 4.82564 17.1389 4.78943 17.139 4.75213C17.1393 4.63606 17.14 4.52 17.1406 4.40393C17.1409 4.32541 17.1411 4.24689 17.1414 4.16838C17.1419 3.97553 17.1429 3.78269 17.1439 3.58984Z" fill="white"/>
</g>
<defs>
<clipPath id="clip0_188_8969">
<rect width="27" height="27" fill="white" transform="translate(0.47998 0.478516)"/>
</clipPath>
</defs>
</svg>
