<svg width="22" height="22" viewBox="0 0 22 22" fill="none" xmlns="http://www.w3.org/2000/svg">
<g clip-path="url(#clip0_2651_31257)">
<path d="M20.6249 3.64453H17.796C17.6148 3.64457 17.4376 3.69835 17.2869 3.79908C17.1361 3.89981 17.0187 4.04296 16.9493 4.21043C16.88 4.37791 16.8618 4.56219 16.8972 4.73998C16.9325 4.91777 17.0198 5.08108 17.1479 5.20928L18.1434 6.20478L14.8563 9.49103C14.6816 9.65795 14.4493 9.7511 14.2077 9.7511C13.9661 9.7511 13.7338 9.65795 13.5592 9.49103L13.4034 9.33428C12.8796 8.83385 12.1831 8.55459 11.4587 8.55459C10.7342 8.55459 10.0377 8.83385 9.51394 9.33428L4.83894 14.0093C4.6667 14.182 4.57012 14.4161 4.57047 14.66C4.57081 14.904 4.66804 15.1378 4.84078 15.31C5.01351 15.4823 5.24759 15.5789 5.49153 15.5785C5.73547 15.5782 5.96928 15.4809 6.14153 15.3082L10.8165 10.6332C10.9911 10.4661 11.2234 10.3728 11.4651 10.3728C11.7067 10.3728 11.9391 10.4661 12.1136 10.6332L12.2694 10.7899C12.7934 11.29 13.4899 11.5689 14.2142 11.5689C14.9384 11.5689 15.6349 11.29 16.1589 10.7899L19.446 7.50278L20.4415 8.49828C20.5702 8.62437 20.7331 8.70976 20.91 8.74381C21.0868 8.77785 21.2698 8.75903 21.4361 8.6897C21.6023 8.62037 21.7444 8.50359 21.8447 8.35396C21.945 8.20434 21.9989 8.02848 21.9999 7.84837V5.01953C21.9999 4.65486 21.855 4.30512 21.5971 4.04726C21.3393 3.7894 20.9895 3.64453 20.6249 3.64453Z" fill="white"/>
<path d="M21.0833 20.1447H4.58333C3.85399 20.1447 3.15451 19.8549 2.63879 19.3392C2.12306 18.8235 1.83333 18.124 1.83333 17.3947V0.916667C1.83333 0.673552 1.73676 0.440394 1.56485 0.268485C1.39294 0.0965771 1.15978 0 0.916667 0C0.673552 0 0.440394 0.0965771 0.268485 0.268485C0.0965771 0.440394 0 0.673552 0 0.916667L0 17.3947C0.00145554 18.6098 0.484808 19.7747 1.34403 20.634C2.20326 21.4932 3.3682 21.9765 4.58333 21.978H21.0833C21.3264 21.978 21.5596 21.8814 21.7315 21.7095C21.9034 21.5376 22 21.3044 22 21.0613C22 20.8182 21.9034 20.5851 21.7315 20.4132C21.5596 20.2412 21.3264 20.1447 21.0833 20.1447Z" fill="white"/>
</g>
<defs>
<clipPath id="clip0_2651_31257">
<rect width="22" height="22" fill="white"/>
</clipPath>
</defs>
</svg>
