<svg width="22" height="22" viewBox="0 0 22 22" fill="none" xmlns="http://www.w3.org/2000/svg">
<g clip-path="url(#clip0_847_5096)">
<path d="M17.4167 0H4.58333C2.05333 0 0 2.05333 0 4.58333V17.4167C0 19.9467 2.05333 22 4.58333 22H17.4167C19.9467 22 22 19.9467 22 17.4167V4.58333C22 2.05333 19.9467 0 17.4167 0ZM5.5 4.58333H11C11.5042 4.58333 11.9167 4.99583 11.9167 5.5C11.9167 6.00417 11.5042 6.41667 11 6.41667H5.5C4.99583 6.41667 4.58333 6.00417 4.58333 5.5C4.58333 4.99583 4.99583 4.58333 5.5 4.58333ZM5.5 8.25H13.75C14.2542 8.25 14.6667 8.6625 14.6667 9.16667C14.6667 9.67083 14.2542 10.0833 13.75 10.0833H5.5C4.99583 10.0833 4.58333 9.67083 4.58333 9.16667C4.58333 8.6625 4.99583 8.25 5.5 8.25ZM8.25 17.4167H5.5C4.99583 17.4167 4.58333 17.0042 4.58333 16.5C4.58333 15.9958 4.99583 15.5833 5.5 15.5833H8.25C8.75417 15.5833 9.16667 15.9958 9.16667 16.5C9.16667 17.0042 8.75417 17.4167 8.25 17.4167ZM16.5 13.75H5.5C4.99583 13.75 4.58333 13.3375 4.58333 12.8333C4.58333 12.3292 4.99583 11.9167 5.5 11.9167H16.5C17.0042 11.9167 17.4167 12.3292 17.4167 12.8333C17.4167 13.3375 17.0042 13.75 16.5 13.75Z" fill="#8950FC"/>
</g>
<defs>
<clipPath id="clip0_847_5096">
<rect width="22" height="22" fill="white"/>
</clipPath>
</defs>
</svg>
