<svg width="21" height="26" viewBox="0 0 21 26" fill="none" xmlns="http://www.w3.org/2000/svg">
<path d="M20.0364 3.54467L17.6572 0.989083C17.365 0.677046 17.0159 0.428827 16.6302 0.258983C16.2446 0.0891393 15.8302 0.0010903 15.4114 0L10.4999 0C9.29971 0.00157573 8.13671 0.433431 7.20695 1.22278C6.27719 2.01213 5.63752 3.1107 5.39575 4.33333H5.29159C3.91076 4.33505 2.58696 4.90629 1.61056 5.92174C0.634171 6.93719 0.084906 8.31394 0.083252 9.75V20.5833C0.084906 22.0194 0.634171 23.3961 1.61056 24.4116C2.58696 25.427 3.91076 25.9983 5.29159 26H11.5416C12.9224 25.9983 14.2462 25.427 15.2226 24.4116C16.199 23.3961 16.7483 22.0194 16.7499 20.5833V20.475C17.9255 20.2236 18.9819 19.5583 19.7408 18.5914C20.4998 17.6244 20.9151 16.4149 20.9166 15.1667V5.80667C20.9182 4.96212 20.6023 4.15038 20.0364 3.54467ZM11.5416 23.8333H5.29159C4.46278 23.8333 3.66793 23.4909 3.08188 22.8814C2.49583 22.2719 2.16659 21.4453 2.16659 20.5833V9.75C2.16659 8.88805 2.49583 8.0614 3.08188 7.4519C3.66793 6.84241 4.46278 6.5 5.29159 6.5V15.1667C5.29324 16.6027 5.8425 17.9795 6.8189 18.9949C7.79529 20.0104 9.11909 20.5816 10.4999 20.5833H14.6666C14.6666 21.4453 14.3373 22.2719 13.7513 22.8814C13.1652 23.4909 12.3704 23.8333 11.5416 23.8333ZM15.7083 18.4167H10.4999C9.67112 18.4167 8.87626 18.0743 8.29021 17.4648C7.70416 16.8553 7.37492 16.0286 7.37492 15.1667V5.41667C7.37492 4.55471 7.70416 3.72806 8.29021 3.11857C8.87626 2.50908 9.67112 2.16667 10.4999 2.16667H14.6666V4.33333C14.6666 4.90797 14.8861 5.45907 15.2768 5.8654C15.6675 6.27173 16.1974 6.5 16.7499 6.5H18.8333V15.1667C18.8333 16.0286 18.504 16.8553 17.918 17.4648C17.3319 18.0743 16.5371 18.4167 15.7083 18.4167Z" fill="white"/>
</svg>
