<svg width="24" height="30" viewBox="0 0 24 30" fill="none" xmlns="http://www.w3.org/2000/svg">
<path d="M18.2502 30H5.75647C5.03362 29.9996 4.31938 29.843 3.66265 29.541C3.00592 29.2389 2.42221 28.7986 1.95147 28.25C1.48736 27.7134 1.14466 27.0829 0.946825 26.4016C0.748988 25.7202 0.700685 25.0042 0.805223 24.3025C1.47636 20.6469 3.42643 17.3493 6.30647 15C3.42639 12.6498 1.47673 9.35136 0.806473 5.695C0.70214 4.99377 0.750429 4.27828 0.94804 3.59743C1.14565 2.91657 1.48793 2.28641 1.95147 1.75C2.42221 1.20143 3.00592 0.761055 3.66265 0.459012C4.31938 0.156969 5.03362 0.000392302 5.75647 0L18.2502 0C18.973 0.000640179 19.6872 0.157328 20.3439 0.459354C21.0006 0.76138 21.5843 1.20162 22.0552 1.75C22.5188 2.28619 22.8613 2.91606 23.0593 3.59665C23.2574 4.27724 23.3063 4.99254 23.2027 5.69375C22.5256 9.35119 20.5716 12.6493 17.689 15C20.5699 17.3527 22.5217 20.6521 23.1965 24.31C23.3001 25.0114 23.2513 25.7269 23.0533 26.4077C22.8552 27.0885 22.5127 27.7186 22.049 28.255C21.5783 28.8017 20.9953 29.2405 20.3398 29.5416C19.6843 29.8427 18.9716 29.9991 18.2502 30ZM18.2502 2.5H5.75647C5.39389 2.49978 5.03553 2.57784 4.70589 2.72885C4.37625 2.87987 4.0831 3.10027 3.84647 3.375C3.61541 3.63804 3.44467 3.94843 3.34621 4.28441C3.24774 4.6204 3.22394 4.97385 3.27647 5.32C3.74647 8.445 5.68147 11.37 9.02647 14.0163C9.17428 14.1333 9.29369 14.2822 9.37579 14.4519C9.45788 14.6216 9.50052 14.8077 9.50052 14.9963C9.50052 15.1848 9.45788 15.3709 9.37579 15.5406C9.29369 15.7103 9.17428 15.8592 9.02647 15.9762C5.68147 18.625 3.75022 21.5525 3.27647 24.6762C3.22338 25.023 3.24689 25.3772 3.34537 25.7138C3.44385 26.0505 3.61489 26.3615 3.84647 26.625C4.0831 26.8997 4.37625 27.1201 4.70589 27.2711C5.03553 27.4222 5.39389 27.5002 5.75647 27.5H18.2502C18.6128 27.5003 18.9712 27.4223 19.3009 27.2713C19.6305 27.1202 19.9237 26.8998 20.1602 26.625C20.3912 26.3624 20.562 26.0525 20.6604 25.7169C20.7589 25.3813 20.7827 25.0283 20.7302 24.6825C20.264 21.5737 18.3302 18.6462 14.9802 15.98C14.8333 15.8629 14.7147 15.7142 14.6332 15.545C14.5517 15.3758 14.5093 15.1903 14.5093 15.0025C14.5093 14.8147 14.5517 14.6292 14.6332 14.46C14.7147 14.2908 14.8333 14.1421 14.9802 14.025C18.3315 11.3588 20.2652 8.43125 20.7302 5.32125C20.7825 4.97444 20.758 4.62037 20.6585 4.28406C20.5589 3.94775 20.3867 3.63742 20.154 3.375C19.9181 3.101 19.626 2.88103 19.2975 2.73004C18.9689 2.57905 18.6118 2.50059 18.2502 2.5ZM16.6015 25H7.39772C7.1932 24.9999 6.99182 24.9496 6.81125 24.8536C6.63067 24.7575 6.47643 24.6187 6.36204 24.4491C6.24765 24.2796 6.17661 24.0845 6.15516 23.8811C6.1337 23.6777 6.16248 23.4722 6.23897 23.2825C7.21782 21.1689 8.70923 19.3333 10.5777 17.9425L11.2252 17.4275C11.4464 17.2516 11.7207 17.1558 12.0033 17.1558C12.286 17.1558 12.5603 17.2516 12.7815 17.4275L13.4177 17.935C15.2836 19.3313 16.775 21.1675 17.759 23.28C17.836 23.4697 17.8652 23.6754 17.844 23.8791C17.8229 24.0827 17.752 24.278 17.6377 24.4479C17.5234 24.6177 17.3692 24.7569 17.1885 24.8532C17.0078 24.9495 16.8062 24.9999 16.6015 25ZM9.54272 22.5H14.4527C13.7395 21.5704 12.916 20.7309 12.0002 20C11.0804 20.7281 10.2549 21.5679 9.54272 22.5Z" fill="#4C6461"/>
</svg>
