<svg width="16" height="10" viewBox="0 0 16 10" fill="none" xmlns="http://www.w3.org/2000/svg">
<path d="M5.33125 2.05217C5.82292 2.05217 6.22014 1.62353 6.22014 1.09298C6.22014 0.562427 5.82292 0.133789 5.33125 0.133789H0.886806C0.39514 0.133789 -0.00208282 0.562427 -0.00208282 1.09298V5.88893C-0.00208282 6.41948 0.39514 6.84812 0.886806 6.84812C1.37847 6.84812 1.77569 6.41948 1.77569 5.88893V3.41002L6.48125 8.48474C6.82847 8.85942 7.39236 8.85942 7.73958 8.48474L10.6646 5.3284L14.4813 9.44393C14.8285 9.81861 15.3924 9.81861 15.7396 9.44393C16.0868 9.06925 16.0868 8.46076 15.7396 8.08608L11.2951 3.29012C10.9479 2.91544 10.384 2.91544 10.0368 3.29012L7.10903 6.44946L3.03403 2.05217H5.33125Z" fill="#0E3434"/>
</svg>
