<svg width="26" height="30" viewBox="0 0 26 30" fill="none" xmlns="http://www.w3.org/2000/svg">
<path d="M19.2502 17.5C19.2502 17.8315 19.1185 18.1495 18.8841 18.3839C18.6497 18.6183 18.3318 18.75 18.0002 18.75H8.00024C7.66872 18.75 7.35078 18.6183 7.11636 18.3839C6.88194 18.1495 6.75024 17.8315 6.75024 17.5C6.75024 17.1685 6.88194 16.8506 7.11636 16.6161C7.35078 16.3817 7.66872 16.25 8.00024 16.25H18.0002C18.3318 16.25 18.6497 16.3817 18.8841 16.6161C19.1185 16.8506 19.2502 17.1685 19.2502 17.5ZM14.2502 21.25H8.00024C7.66872 21.25 7.35078 21.3817 7.11636 21.6161C6.88194 21.8506 6.75024 22.1685 6.75024 22.5C6.75024 22.8315 6.88194 23.1495 7.11636 23.3839C7.35078 23.6183 7.66872 23.75 8.00024 23.75H14.2502C14.5818 23.75 14.8997 23.6183 15.1341 23.3839C15.3685 23.1495 15.5002 22.8315 15.5002 22.5C15.5002 22.1685 15.3685 21.8506 15.1341 21.6161C14.8997 21.3817 14.5818 21.25 14.2502 21.25ZM25.5002 13.1063V23.75C25.4983 25.407 24.8391 26.9956 23.6675 28.1673C22.4958 29.3389 20.9072 29.998 19.2502 30H6.75024C5.09325 29.998 3.50469 29.3389 2.33302 28.1673C1.16135 26.9956 0.502229 25.407 0.500244 23.75V6.25003C0.502229 4.59303 1.16135 3.00448 2.33302 1.8328C3.50469 0.661131 5.09325 0.00201363 6.75024 2.88108e-05H12.394C13.5435 -0.00292985 14.6822 0.222013 15.7443 0.661853C16.8063 1.10169 17.7707 1.7477 18.5815 2.56253L22.9365 6.92003C23.7518 7.73033 24.3982 8.69435 24.8383 9.75625C25.2784 10.8181 25.5034 11.9568 25.5002 13.1063ZM16.814 4.33003C16.4206 3.94898 15.9789 3.62118 15.5002 3.35503V8.75003C15.5002 9.08155 15.6319 9.39949 15.8664 9.63391C16.1008 9.86833 16.4187 10 16.7502 10H22.1452C21.8789 9.52152 21.5507 9.08021 21.169 8.68753L16.814 4.33003ZM23.0002 13.1063C23.0002 12.9 22.9602 12.7025 22.9415 12.5H16.7502C15.7557 12.5 14.8019 12.1049 14.0986 11.4017C13.3953 10.6984 13.0002 9.74459 13.0002 8.75003V2.55878C12.7977 2.54003 12.599 2.50003 12.394 2.50003H6.75024C5.75568 2.50003 4.80186 2.89512 4.09859 3.59838C3.39533 4.30164 3.00024 5.25547 3.00024 6.25003V23.75C3.00024 24.7446 3.39533 25.6984 4.09859 26.4017C4.80186 27.1049 5.75568 27.5 6.75024 27.5H19.2502C20.2448 27.5 21.1986 27.1049 21.9019 26.4017C22.6052 25.6984 23.0002 24.7446 23.0002 23.75V13.1063Z" fill="#66C2A5"/>
</svg>
