<svg width="24" height="24" viewBox="0 0 24 24" fill="none" xmlns="http://www.w3.org/2000/svg">
<path d="M24 4C24 1.794 22.206 0 20 0C17.794 0 16 1.794 16 4C16 5.858 17.28 7.411 19 7.858V10C19 10.551 18.551 11 18 11H6C5.649 11 5.313 11.061 5 11.171V7.858C6.72 7.411 8 5.858 8 4C8 1.794 6.206 0 4 0C1.794 0 0 1.794 0 4C0 5.858 1.28 7.411 3 7.858V16.142C1.28 16.589 0 18.142 0 20C0 22.206 1.794 24 4 24C6.206 24 8 22.206 8 20C8 18.142 6.72 16.589 5 16.142V14C5 13.449 5.449 13 6 13H18C19.654 13 21 11.654 21 10V7.858C22.72 7.411 24 5.858 24 4Z" fill="#E0E0E0"/>
</svg>
