<svg width="24" height="25" viewBox="0 0 24 25" fill="none" xmlns="http://www.w3.org/2000/svg">
<path d="M19 0.36438H5C2.24 0.36438 0 2.60438 0 5.36438V19.3644C0 22.1244 2.24 24.3644 5 24.3644H19C21.76 24.3644 24 22.1244 24 19.3644V5.36438C24 2.60438 21.76 0.36438 19 0.36438ZM6 5.36438H12C12.55 5.36438 13 5.81438 13 6.36438C13 6.91438 12.55 7.36438 12 7.36438H6C5.45 7.36438 5 6.91438 5 6.36438C5 5.81438 5.45 5.36438 6 5.36438ZM6 9.36438H15C15.55 9.36438 16 9.81438 16 10.3644C16 10.9144 15.55 11.3644 15 11.3644H6C5.45 11.3644 5 10.9144 5 10.3644C5 9.81438 5.45 9.36438 6 9.36438ZM9 19.3644H6C5.45 19.3644 5 18.9144 5 18.3644C5 17.8144 5.45 17.3644 6 17.3644H9C9.55 17.3644 10 17.8144 10 18.3644C10 18.9144 9.55 19.3644 9 19.3644ZM18 15.3644H6C5.45 15.3644 5 14.9144 5 14.3644C5 13.8144 5.45 13.3644 6 13.3644H18C18.55 13.3644 19 13.8144 19 14.3644C19 14.9144 18.55 15.3644 18 15.3644Z" fill="white"/>
</svg>
