<svg width="26" height="30" viewBox="0 0 26 30" fill="none" xmlns="http://www.w3.org/2000/svg">
<path d="M24.4438 4.09L21.5888 1.14125C21.2381 0.781207 20.8191 0.4948 20.3563 0.298827C19.8936 0.102853 19.3963 0.00125804 18.8938 0L13 0C11.5597 0.00181816 10.1642 0.500113 9.04844 1.4109C7.93273 2.32168 7.16512 3.58927 6.875 5H6.75C5.09301 5.00198 3.50445 5.6611 2.33277 6.83278C1.1611 8.00445 0.501985 9.59301 0.5 11.25V23.75C0.501985 25.407 1.1611 26.9956 2.33277 28.1672C3.50445 29.3389 5.09301 29.998 6.75 30H14.25C15.907 29.998 17.4956 29.3389 18.6672 28.1672C19.8389 26.9956 20.498 25.407 20.5 23.75V23.625C21.9107 23.3349 23.1783 22.5673 24.0891 21.4516C24.9999 20.3359 25.4982 18.9403 25.5 17.5V6.7C25.5019 5.72552 25.1228 4.7889 24.4438 4.09ZM14.25 27.5H6.75C5.75544 27.5 4.80161 27.1049 4.09835 26.4017C3.39509 25.6984 3 24.7446 3 23.75V11.25C3 10.2554 3.39509 9.30161 4.09835 8.59835C4.80161 7.89509 5.75544 7.5 6.75 7.5V17.5C6.75199 19.157 7.4111 20.7456 8.58278 21.9172C9.75445 23.0889 11.343 23.748 13 23.75H18C18 24.7446 17.6049 25.6984 16.9017 26.4017C16.1984 27.1049 15.2446 27.5 14.25 27.5ZM19.25 21.25H13C12.0054 21.25 11.0516 20.8549 10.3483 20.1517C9.64509 19.4484 9.25 18.4946 9.25 17.5V6.25C9.25 5.25544 9.64509 4.30161 10.3483 3.59835C11.0516 2.89509 12.0054 2.5 13 2.5H18V5C18 5.66304 18.2634 6.29893 18.7322 6.76777C19.2011 7.23661 19.837 7.5 20.5 7.5H23V17.5C23 18.4946 22.6049 19.4484 21.9017 20.1517C21.1984 20.8549 20.2446 21.25 19.25 21.25Z" fill="#4C6461"/>
</svg>
