<svg width="18" height="17" viewBox="0 0 18 17" fill="none" xmlns="http://www.w3.org/2000/svg">
<path d="M16.7071 16.4529L15.0986 14.8745M8.26258 15.6637C9.26591 15.6637 10.2594 15.4698 11.1864 15.093C12.1133 14.7163 12.9556 14.164 13.6651 13.4679C14.3745 12.7717 14.9373 11.9453 15.3213 11.0357C15.7052 10.1261 15.9028 9.15121 15.9028 8.16669C15.9028 7.18217 15.7052 6.20729 15.3213 5.29771C14.9373 4.38813 14.3745 3.56166 13.6651 2.8655C12.9556 2.16934 12.1133 1.61711 11.1864 1.24035C10.2594 0.863594 9.26591 0.669678 8.26258 0.669678C6.23626 0.669678 4.29292 1.45954 2.8601 2.8655C1.42727 4.27146 0.622314 6.17836 0.622314 8.16669C0.622314 10.155 1.42727 12.0619 2.8601 13.4679C4.29292 14.8738 6.23626 15.6637 8.26258 15.6637V15.6637Z" stroke="black" stroke-opacity="0.57" stroke-width="0.973721" stroke-linecap="round" stroke-linejoin="round"/>
</svg>
