<svg width="21" height="19" viewBox="0 0 21 19" fill="none" xmlns="http://www.w3.org/2000/svg">
<path d="M20.0604 4.05894H14.3388M4.80271 4.05894H0.988281M20.0604 14.5486H16.246M6.70993 14.5486H0.988281M8.61715 7.39657C9.05545 7.39657 9.48946 7.31024 9.8944 7.14251C10.2993 6.97478 10.6673 6.72893 10.9772 6.419C11.2871 6.10908 11.533 5.74114 11.7007 5.3362C11.8684 4.93126 11.9548 4.49725 11.9548 4.05894C11.9548 3.62064 11.8684 3.18663 11.7007 2.78169C11.533 2.37675 11.2871 2.00881 10.9772 1.69888C10.6673 1.38896 10.2993 1.14311 9.8944 0.975375C9.48946 0.807644 9.05545 0.721313 8.61715 0.721313C7.73195 0.721313 6.88301 1.07296 6.25709 1.69888C5.63116 2.32481 5.27952 3.17375 5.27952 4.05894C5.27952 4.94414 5.63116 5.79308 6.25709 6.419C6.88301 7.04493 7.73195 7.39657 8.61715 7.39657V7.39657ZM12.4316 17.8863C13.3168 17.8863 14.1657 17.5346 14.7916 16.9087C15.4176 16.2828 15.7692 15.4338 15.7692 14.5486C15.7692 13.6634 15.4176 12.8145 14.7916 12.1886C14.1657 11.5626 13.3168 11.211 12.4316 11.211C11.5464 11.211 10.6974 11.5626 10.0715 12.1886C9.44559 12.8145 9.09395 13.6634 9.09395 14.5486C9.09395 15.4338 9.44559 16.2828 10.0715 16.9087C10.6974 17.5346 11.5464 17.8863 12.4316 17.8863V17.8863Z" stroke="#88774F" stroke-width="1.24836" stroke-miterlimit="10" stroke-linecap="round" stroke-linejoin="round"/>
</svg>
