<svg width="24" height="22" viewBox="0 0 24 22" fill="none" xmlns="http://www.w3.org/2000/svg">
<g clip-path="url(#clip0_847_5101)">
<path d="M11.9999 1.375C8.63327 1.375 5.93743 2.95625 3.97493 4.83828C2.02493 6.70312 0.720768 8.9375 0.104102 10.4715C-0.0333984 10.8109 -0.0333984 11.1891 0.104102 11.5285C0.720768 13.0625 2.02493 15.2969 3.97493 17.1617C5.93743 19.0437 8.63327 20.625 11.9999 20.625C15.3666 20.625 18.0624 19.0437 20.0249 17.1617C21.9749 15.2926 23.2791 13.0625 23.8999 11.5285C24.0374 11.1891 24.0374 10.8109 23.8999 10.4715C23.2791 8.9375 21.9749 6.70312 20.0249 4.83828C18.0624 2.95625 15.3666 1.375 11.9999 1.375ZM5.99993 11C5.99993 9.35897 6.63208 7.78516 7.75729 6.62478C8.88251 5.4644 10.4086 4.8125 11.9999 4.8125C13.5912 4.8125 15.1174 5.4644 16.2426 6.62478C17.3678 7.78516 17.9999 9.35897 17.9999 11C17.9999 12.641 17.3678 14.2148 16.2426 15.3752C15.1174 16.5356 13.5912 17.1875 11.9999 17.1875C10.4086 17.1875 8.88251 16.5356 7.75729 15.3752C6.63208 14.2148 5.99993 12.641 5.99993 11ZM11.9999 8.25C11.9999 9.7668 10.8041 11 9.33327 11C9.03743 11 8.7541 10.9484 8.48743 10.8582C8.25827 10.7809 7.9916 10.927 7.99993 11.1762C8.01243 11.4727 8.0541 11.7691 8.13327 12.0656C8.7041 14.2656 10.8999 15.5719 13.0333 14.9832C15.1666 14.3945 16.4333 12.1301 15.8624 9.93008C15.3999 8.14688 13.8708 6.94805 12.1708 6.875C11.9291 6.86641 11.7874 7.13711 11.8624 7.37773C11.9499 7.65273 11.9999 7.94492 11.9999 8.25Z" fill="#F59E0B"/>
</g>
<defs>
<clipPath id="clip0_847_5101">
<rect width="24" height="22" fill="white"/>
</clipPath>
</defs>
</svg>
