<svg width="18" height="24" viewBox="0 0 18 24" fill="none" xmlns="http://www.w3.org/2000/svg">
<path d="M3 0C1.34531 0 0 1.34531 0 3V21C0 22.6547 1.34531 24 3 24H15C16.6547 24 18 22.6547 18 21V12.5C18 9.73858 15.7614 7.5 13 7.5H12C11.1703 7.5 10.5 6.82969 10.5 6V5C10.5 2.23858 8.26142 0 5.5 0H3ZM15 3C13.8929 1.89293 12 2.677 12 4.24264C12 5.2132 12.7868 6 13.7574 6C15.323 6 16.1071 4.10707 15 3ZM5.20547 12.0516C5.2043 12.0516 5.20346 12.0527 5.2038 12.0538L5.58517 13.3231C5.86039 14.2392 7.14696 14.268 7.46289 13.3652L7.94062 12C8.1 11.55 8.52656 11.2453 9.00469 11.2453C9.48281 11.2453 9.90938 11.5453 10.0688 12L10.1088 12.1145C10.5614 13.4079 12.4053 13.3647 12.7969 12.0516C12.975 11.4563 13.6031 11.1187 14.1984 11.2969C14.7937 11.475 15.1313 12.1031 14.9531 12.6984L12.7031 20.1984C12.5625 20.6672 12.1406 20.9906 11.6531 21C11.1656 21.0094 10.725 20.7094 10.5656 20.2453C10.0475 18.7669 7.95582 18.7664 7.43906 20.2453C7.27969 20.7047 6.83906 21.0094 6.35156 21C5.86406 20.9906 5.4375 20.6672 5.30156 20.1984L3.05156 12.6984C2.87344 12.1031 3.21094 11.475 3.80625 11.2969C4.40081 11.119 5.0281 11.4554 5.20713 12.0493C5.20747 12.0504 5.20664 12.0516 5.20547 12.0516Z" fill="#185ABD"/>
</svg>
